<?xml version="1.0" standalone="no"?>
<svg xmlns="http://www.w3.org/2000/svg" width="500" height="500"><defs><clipPath id="clip-path-dot-color"><rect x="25" y="115" width="10" height="10" transform="rotate(0,30,120)"/><rect x="25" y="125" width="10" height="10" transform="rotate(0,30,130)"/><rect x="25" y="135" width="10" height="10" transform="rotate(0,30,140)"/><rect x="25" y="175" width="10" height="10" transform="rotate(0,30,180)"/><rect x="25" y="195" width="10" height="10" transform="rotate(0,30,200)"/><rect x="25" y="205" width="10" height="10" transform="rotate(0,30,210)"/><rect x="25" y="215" width="10" height="10" transform="rotate(0,30,220)"/><rect x="25" y="235" width="10" height="10" transform="rotate(0,30,240)"/><rect x="25" y="245" width="10" height="10" transform="rotate(0,30,250)"/><rect x="25" y="285" width="10" height="10" transform="rotate(0,30,290)"/><rect x="25" y="295" width="10" height="10" transform="rotate(0,30,300)"/><rect x="25" y="315" width="10" height="10" transform="rotate(0,30,320)"/><rect x="25" y="325" width="10" height="10" transform="rotate(0,30,330)"/><rect x="25" y="385" width="10" height="10" transform="rotate(0,30,390)"/><rect x="35" y="115" width="10" height="10" transform="rotate(0,40,120)"/><rect x="35" y="125" width="10" height="10" transform="rotate(0,40,130)"/><rect x="35" y="135" width="10" height="10" transform="rotate(0,40,140)"/><rect x="35" y="165" width="10" height="10" transform="rotate(0,40,170)"/><rect x="35" y="215" width="10" height="10" transform="rotate(0,40,220)"/><rect x="35" y="225" width="10" height="10" transform="rotate(0,40,230)"/><rect x="35" y="245" width="10" height="10" transform="rotate(0,40,250)"/><rect x="35" y="255" width="10" height="10" transform="rotate(0,40,260)"/><rect x="35" y="265" width="10" height="10" transform="rotate(0,40,270)"/><rect x="35" y="285" width="10" height="10" transform="rotate(0,40,290)"/><rect x="35" y="295" width="10" height="10" transform="rotate(0,40,300)"/><rect x="35" y="305" width="10" height="10" transform="rotate(0,40,310)"/><rect x="35" y="335" width="10" height="10" transform="rotate(0,40,340)"/><rect x="35" y="345" width="10" height="10" transform="rotate(0,40,350)"/><rect x="35" y="355" width="10" height="10" transform="rotate(0,40,360)"/><rect x="35" y="375" width="10" height="10" transform="rotate(0,40,380)"/><rect x="45" y="105" width="10" height="10" transform="rotate(0,50,110)"/><rect x="45" y="125" width="10" height="10" transform="rotate(0,50,130)"/><rect x="45" y="135" width="10" height="10" transform="rotate(0,50,140)"/><rect x="45" y="155" width="10" height="10" transform="rotate(0,50,160)"/><rect x="45" y="185" width="10" height="10" transform="rotate(0,50,190)"/><rect x="45" y="195" width="10" height="10" transform="rotate(0,50,200)"/><rect x="45" y="215" width="10" height="10" transform="rotate(0,50,220)"/><rect x="45" y="225" width="10" height="10" transform="rotate(0,50,230)"/><rect x="45" y="235" width="10" height="10" transform="rotate(0,50,240)"/><rect x="45" y="255" width="10" height="10" transform="rotate(0,50,260)"/><rect x="45" y="265" width="10" height="10" transform="rotate(0,50,270)"/><rect x="45" y="275" width="10" height="10" transform="rotate(0,50,280)"/><rect x="45" y="285" width="10" height="10" transform="rotate(0,50,290)"/><rect x="45" y="295" width="10" height="10" transform="rotate(0,50,300)"/><rect x="45" y="325" width="10" height="10" transform="rotate(0,50,330)"/><rect x="45" y="355" width="10" height="10" transform="rotate(0,50,360)"/><rect x="45" y="375" width="10" height="10" transform="rotate(0,50,380)"/><rect x="55" y="115" width="10" height="10" transform="rotate(0,60,120)"/><rect x="55" y="125" width="10" height="10" transform="rotate(0,60,130)"/><rect x="55" y="145" width="10" height="10" transform="rotate(0,60,150)"/><rect x="55" y="165" width="10" height="10" transform="rotate(0,60,170)"/><rect x="55" y="195" width="10" height="10" transform="rotate(0,60,200)"/><rect x="55" y="225" width="10" height="10" transform="rotate(0,60,230)"/><rect x="55" y="245" width="10" height="10" transform="rotate(0,60,250)"/><rect x="55" y="255" width="10" height="10" transform="rotate(0,60,260)"/><rect x="55" y="285" width="10" height="10" transform="rotate(0,60,290)"/><rect x="55" y="305" width="10" height="10" transform="rotate(0,60,310)"/><rect x="55" y="335" width="10" height="10" transform="rotate(0,60,340)"/><rect x="55" y="345" width="10" height="10" transform="rotate(0,60,350)"/><rect x="55" y="375" width="10" height="10" transform="rotate(0,60,380)"/><rect x="55" y="385" width="10" height="10" transform="rotate(0,60,390)"/><rect x="65" y="105" width="10" height="10" transform="rotate(0,70,110)"/><rect x="65" y="125" width="10" height="10" transform="rotate(0,70,130)"/><rect x="65" y="135" width="10" height="10" transform="rotate(0,70,140)"/><rect x="65" y="145" width="10" height="10" transform="rotate(0,70,150)"/><rect x="65" y="155" width="10" height="10" transform="rotate(0,70,160)"/><rect x="65" y="185" width="10" height="10" transform="rotate(0,70,190)"/><rect x="65" y="215" width="10" height="10" transform="rotate(0,70,220)"/><rect x="65" y="225" width="10" height="10" transform="rotate(0,70,230)"/><rect x="65" y="235" width="10" height="10" transform="rotate(0,70,240)"/><rect x="65" y="245" width="10" height="10" transform="rotate(0,70,250)"/><rect x="65" y="255" width="10" height="10" transform="rotate(0,70,260)"/><rect x="65" y="265" width="10" height="10" transform="rotate(0,70,270)"/><rect x="65" y="295" width="10" height="10" transform="rotate(0,70,300)"/><rect x="65" y="315" width="10" height="10" transform="rotate(0,70,320)"/><rect x="65" y="325" width="10" height="10" transform="rotate(0,70,330)"/><rect x="65" y="335" width="10" height="10" transform="rotate(0,70,340)"/><rect x="65" y="355" width="10" height="10" transform="rotate(0,70,360)"/><rect x="65" y="365" width="10" height="10" transform="rotate(0,70,370)"/><rect x="65" y="375" width="10" height="10" transform="rotate(0,70,380)"/><rect x="65" y="385" width="10" height="10" transform="rotate(0,70,390)"/><rect x="75" y="105" width="10" height="10" transform="rotate(0,80,110)"/><rect x="75" y="135" width="10" height="10" transform="rotate(0,80,140)"/><rect x="75" y="145" width="10" height="10" transform="rotate(0,80,150)"/><rect x="75" y="155" width="10" height="10" transform="rotate(0,80,160)"/><rect x="75" y="165" width="10" height="10" transform="rotate(0,80,170)"/><rect x="75" y="195" width="10" height="10" transform="rotate(0,80,200)"/><rect x="75" y="215" width="10" height="10" transform="rotate(0,80,220)"/><rect x="75" y="225" width="10" height="10" transform="rotate(0,80,230)"/><rect x="75" y="265" width="10" height="10" transform="rotate(0,80,270)"/><rect x="75" y="275" width="10" height="10" transform="rotate(0,80,280)"/><rect x="75" y="285" width="10" height="10" transform="rotate(0,80,290)"/><rect x="75" y="295" width="10" height="10" transform="rotate(0,80,300)"/><rect x="75" y="355" width="10" height="10" transform="rotate(0,80,360)"/><rect x="85" y="105" width="10" height="10" transform="rotate(0,90,110)"/><rect x="85" y="125" width="10" height="10" transform="rotate(0,90,130)"/><rect x="85" y="145" width="10" height="10" transform="rotate(0,90,150)"/><rect x="85" y="165" width="10" height="10" transform="rotate(0,90,170)"/><rect x="85" y="185" width="10" height="10" transform="rotate(0,90,190)"/><rect x="85" y="205" width="10" height="10" transform="rotate(0,90,210)"/><rect x="85" y="225" width="10" height="10" transform="rotate(0,90,230)"/><rect x="85" y="245" width="10" height="10" transform="rotate(0,90,250)"/><rect x="85" y="265" width="10" height="10" transform="rotate(0,90,270)"/><rect x="85" y="285" width="10" height="10" transform="rotate(0,90,290)"/><rect x="85" y="305" width="10" height="10" transform="rotate(0,90,310)"/><rect x="85" y="325" width="10" height="10" transform="rotate(0,90,330)"/><rect x="85" y="345" width="10" height="10" transform="rotate(0,90,350)"/><rect x="85" y="365" width="10" height="10" transform="rotate(0,90,370)"/><rect x="85" y="385" width="10" height="10" transform="rotate(0,90,390)"/><rect x="95" y="115" width="10" height="10" transform="rotate(0,100,120)"/><rect x="95" y="145" width="10" height="10" transform="rotate(0,100,150)"/><rect x="95" y="155" width="10" height="10" transform="rotate(0,100,160)"/><rect x="95" y="175" width="10" height="10" transform="rotate(0,100,180)"/><rect x="95" y="195" width="10" height="10" transform="rotate(0,100,200)"/><rect x="95" y="205" width="10" height="10" transform="rotate(0,100,210)"/><rect x="95" y="215" width="10" height="10" transform="rotate(0,100,220)"/><rect x="95" y="225" width="10" height="10" transform="rotate(0,100,230)"/><rect x="95" y="265" width="10" height="10" transform="rotate(0,100,270)"/><rect x="95" y="345" width="10" height="10" transform="rotate(0,100,350)"/><rect x="95" y="355" width="10" height="10" transform="rotate(0,100,360)"/><rect x="95" y="365" width="10" height="10" transform="rotate(0,100,370)"/><rect x="95" y="375" width="10" height="10" transform="rotate(0,100,380)"/><rect x="105" y="35" width="10" height="10" transform="rotate(0,110,40)"/><rect x="105" y="65" width="10" height="10" transform="rotate(0,110,70)"/><rect x="105" y="85" width="10" height="10" transform="rotate(0,110,90)"/><rect x="105" y="105" width="10" height="10" transform="rotate(0,110,110)"/><rect x="105" y="115" width="10" height="10" transform="rotate(0,110,120)"/><rect x="105" y="155" width="10" height="10" transform="rotate(0,110,160)"/><rect x="105" y="185" width="10" height="10" transform="rotate(0,110,190)"/><rect x="105" y="195" width="10" height="10" transform="rotate(0,110,200)"/><rect x="105" y="215" width="10" height="10" transform="rotate(0,110,220)"/><rect x="105" y="225" width="10" height="10" transform="rotate(0,110,230)"/><rect x="105" y="235" width="10" height="10" transform="rotate(0,110,240)"/><rect x="105" y="245" width="10" height="10" transform="rotate(0,110,250)"/><rect x="105" y="255" width="10" height="10" transform="rotate(0,110,260)"/><rect x="105" y="265" width="10" height="10" transform="rotate(0,110,270)"/><rect x="105" y="275" width="10" height="10" transform="rotate(0,110,280)"/><rect x="105" y="285" width="10" height="10" transform="rotate(0,110,290)"/><rect x="105" y="325" width="10" height="10" transform="rotate(0,110,330)"/><rect x="105" y="335" width="10" height="10" transform="rotate(0,110,340)"/><rect x="105" y="345" width="10" height="10" transform="rotate(0,110,350)"/><rect x="105" y="355" width="10" height="10" transform="rotate(0,110,360)"/><rect x="105" y="395" width="10" height="10" transform="rotate(0,110,400)"/><rect x="105" y="415" width="10" height="10" transform="rotate(0,110,420)"/><rect x="105" y="425" width="10" height="10" transform="rotate(0,110,430)"/><rect x="105" y="445" width="10" height="10" transform="rotate(0,110,450)"/><rect x="115" y="25" width="10" height="10" transform="rotate(0,120,30)"/><rect x="115" y="35" width="10" height="10" transform="rotate(0,120,40)"/><rect x="115" y="45" width="10" height="10" transform="rotate(0,120,50)"/><rect x="115" y="65" width="10" height="10" transform="rotate(0,120,70)"/><rect x="115" y="95" width="10" height="10" transform="rotate(0,120,100)"/><rect x="115" y="135" width="10" height="10" transform="rotate(0,120,140)"/><rect x="115" y="145" width="10" height="10" transform="rotate(0,120,150)"/><rect x="115" y="155" width="10" height="10" transform="rotate(0,120,160)"/><rect x="115" y="175" width="10" height="10" transform="rotate(0,120,180)"/><rect x="115" y="185" width="10" height="10" transform="rotate(0,120,190)"/><rect x="115" y="205" width="10" height="10" transform="rotate(0,120,210)"/><rect x="115" y="215" width="10" height="10" transform="rotate(0,120,220)"/><rect x="115" y="225" width="10" height="10" transform="rotate(0,120,230)"/><rect x="115" y="235" width="10" height="10" transform="rotate(0,120,240)"/><rect x="115" y="265" width="10" height="10" transform="rotate(0,120,270)"/><rect x="115" y="275" width="10" height="10" transform="rotate(0,120,280)"/><rect x="115" y="285" width="10" height="10" transform="rotate(0,120,290)"/><rect x="115" y="305" width="10" height="10" transform="rotate(0,120,310)"/><rect x="115" y="315" width="10" height="10" transform="rotate(0,120,320)"/><rect x="115" y="325" width="10" height="10" transform="rotate(0,120,330)"/><rect x="115" y="335" width="10" height="10" transform="rotate(0,120,340)"/><rect x="115" y="345" width="10" height="10" transform="rotate(0,120,350)"/><rect x="115" y="355" width="10" height="10" transform="rotate(0,120,360)"/><rect x="115" y="375" width="10" height="10" transform="rotate(0,120,380)"/><rect x="115" y="385" width="10" height="10" transform="rotate(0,120,390)"/><rect x="115" y="405" width="10" height="10" transform="rotate(0,120,410)"/><rect x="115" y="445" width="10" height="10" transform="rotate(0,120,450)"/><rect x="115" y="455" width="10" height="10" transform="rotate(0,120,460)"/><rect x="125" y="25" width="10" height="10" transform="rotate(0,130,30)"/><rect x="125" y="35" width="10" height="10" transform="rotate(0,130,40)"/><rect x="125" y="85" width="10" height="10" transform="rotate(0,130,90)"/><rect x="125" y="95" width="10" height="10" transform="rotate(0,130,100)"/><rect x="125" y="125" width="10" height="10" transform="rotate(0,130,130)"/><rect x="125" y="145" width="10" height="10" transform="rotate(0,130,150)"/><rect x="125" y="185" width="10" height="10" transform="rotate(0,130,190)"/><rect x="125" y="195" width="10" height="10" transform="rotate(0,130,200)"/><rect x="125" y="215" width="10" height="10" transform="rotate(0,130,220)"/><rect x="125" y="235" width="10" height="10" transform="rotate(0,130,240)"/><rect x="125" y="245" width="10" height="10" transform="rotate(0,130,250)"/><rect x="125" y="255" width="10" height="10" transform="rotate(0,130,260)"/><rect x="125" y="265" width="10" height="10" transform="rotate(0,130,270)"/><rect x="125" y="275" width="10" height="10" transform="rotate(0,130,280)"/><rect x="125" y="285" width="10" height="10" transform="rotate(0,130,290)"/><rect x="125" y="295" width="10" height="10" transform="rotate(0,130,300)"/><rect x="125" y="305" width="10" height="10" transform="rotate(0,130,310)"/><rect x="125" y="325" width="10" height="10" transform="rotate(0,130,330)"/><rect x="125" y="335" width="10" height="10" transform="rotate(0,130,340)"/><rect x="125" y="345" width="10" height="10" transform="rotate(0,130,350)"/><rect x="125" y="355" width="10" height="10" transform="rotate(0,130,360)"/><rect x="125" y="375" width="10" height="10" transform="rotate(0,130,380)"/><rect x="125" y="395" width="10" height="10" transform="rotate(0,130,400)"/><rect x="125" y="405" width="10" height="10" transform="rotate(0,130,410)"/><rect x="125" y="425" width="10" height="10" transform="rotate(0,130,430)"/><rect x="125" y="445" width="10" height="10" transform="rotate(0,130,450)"/><rect x="125" y="455" width="10" height="10" transform="rotate(0,130,460)"/><rect x="135" y="25" width="10" height="10" transform="rotate(0,140,30)"/><rect x="135" y="65" width="10" height="10" transform="rotate(0,140,70)"/><rect x="135" y="75" width="10" height="10" transform="rotate(0,140,80)"/><rect x="135" y="115" width="10" height="10" transform="rotate(0,140,120)"/><rect x="135" y="125" width="10" height="10" transform="rotate(0,140,130)"/><rect x="135" y="135" width="10" height="10" transform="rotate(0,140,140)"/><rect x="135" y="155" width="10" height="10" transform="rotate(0,140,160)"/><rect x="135" y="175" width="10" height="10" transform="rotate(0,140,180)"/><rect x="135" y="185" width="10" height="10" transform="rotate(0,140,190)"/><rect x="135" y="215" width="10" height="10" transform="rotate(0,140,220)"/><rect x="135" y="225" width="10" height="10" transform="rotate(0,140,230)"/><rect x="135" y="235" width="10" height="10" transform="rotate(0,140,240)"/><rect x="135" y="255" width="10" height="10" transform="rotate(0,140,260)"/><rect x="135" y="265" width="10" height="10" transform="rotate(0,140,270)"/><rect x="135" y="285" width="10" height="10" transform="rotate(0,140,290)"/><rect x="135" y="315" width="10" height="10" transform="rotate(0,140,320)"/><rect x="135" y="325" width="10" height="10" transform="rotate(0,140,330)"/><rect x="135" y="345" width="10" height="10" transform="rotate(0,140,350)"/><rect x="135" y="365" width="10" height="10" transform="rotate(0,140,370)"/><rect x="135" y="375" width="10" height="10" transform="rotate(0,140,380)"/><rect x="135" y="395" width="10" height="10" transform="rotate(0,140,400)"/><rect x="135" y="435" width="10" height="10" transform="rotate(0,140,440)"/><rect x="135" y="455" width="10" height="10" transform="rotate(0,140,460)"/><rect x="145" y="45" width="10" height="10" transform="rotate(0,150,50)"/><rect x="145" y="85" width="10" height="10" transform="rotate(0,150,90)"/><rect x="145" y="95" width="10" height="10" transform="rotate(0,150,100)"/><rect x="145" y="125" width="10" height="10" transform="rotate(0,150,130)"/><rect x="145" y="135" width="10" height="10" transform="rotate(0,150,140)"/><rect x="145" y="145" width="10" height="10" transform="rotate(0,150,150)"/><rect x="145" y="175" width="10" height="10" transform="rotate(0,150,180)"/><rect x="145" y="195" width="10" height="10" transform="rotate(0,150,200)"/><rect x="145" y="265" width="10" height="10" transform="rotate(0,150,270)"/><rect x="145" y="285" width="10" height="10" transform="rotate(0,150,290)"/><rect x="145" y="295" width="10" height="10" transform="rotate(0,150,300)"/><rect x="145" y="315" width="10" height="10" transform="rotate(0,150,320)"/><rect x="145" y="345" width="10" height="10" transform="rotate(0,150,350)"/><rect x="145" y="365" width="10" height="10" transform="rotate(0,150,370)"/><rect x="145" y="405" width="10" height="10" transform="rotate(0,150,410)"/><rect x="145" y="415" width="10" height="10" transform="rotate(0,150,420)"/><rect x="145" y="465" width="10" height="10" transform="rotate(0,150,470)"/><rect x="155" y="65" width="10" height="10" transform="rotate(0,160,70)"/><rect x="155" y="75" width="10" height="10" transform="rotate(0,160,80)"/><rect x="155" y="125" width="10" height="10" transform="rotate(0,160,130)"/><rect x="155" y="175" width="10" height="10" transform="rotate(0,160,180)"/><rect x="155" y="185" width="10" height="10" transform="rotate(0,160,190)"/><rect x="155" y="225" width="10" height="10" transform="rotate(0,160,230)"/><rect x="155" y="255" width="10" height="10" transform="rotate(0,160,260)"/><rect x="155" y="265" width="10" height="10" transform="rotate(0,160,270)"/><rect x="155" y="285" width="10" height="10" transform="rotate(0,160,290)"/><rect x="155" y="305" width="10" height="10" transform="rotate(0,160,310)"/><rect x="155" y="325" width="10" height="10" transform="rotate(0,160,330)"/><rect x="155" y="385" width="10" height="10" transform="rotate(0,160,390)"/><rect x="155" y="405" width="10" height="10" transform="rotate(0,160,410)"/><rect x="155" y="425" width="10" height="10" transform="rotate(0,160,430)"/><rect x="155" y="435" width="10" height="10" transform="rotate(0,160,440)"/><rect x="155" y="445" width="10" height="10" transform="rotate(0,160,450)"/><rect x="155" y="455" width="10" height="10" transform="rotate(0,160,460)"/><rect x="165" y="25" width="10" height="10" transform="rotate(0,170,30)"/><rect x="165" y="35" width="10" height="10" transform="rotate(0,170,40)"/><rect x="165" y="45" width="10" height="10" transform="rotate(0,170,50)"/><rect x="165" y="65" width="10" height="10" transform="rotate(0,170,70)"/><rect x="165" y="85" width="10" height="10" transform="rotate(0,170,90)"/><rect x="165" y="125" width="10" height="10" transform="rotate(0,170,130)"/><rect x="165" y="135" width="10" height="10" transform="rotate(0,170,140)"/><rect x="165" y="145" width="10" height="10" transform="rotate(0,170,150)"/><rect x="165" y="165" width="10" height="10" transform="rotate(0,170,170)"/><rect x="165" y="175" width="10" height="10" transform="rotate(0,170,180)"/><rect x="165" y="185" width="10" height="10" transform="rotate(0,170,190)"/><rect x="165" y="215" width="10" height="10" transform="rotate(0,170,220)"/><rect x="165" y="235" width="10" height="10" transform="rotate(0,170,240)"/><rect x="165" y="265" width="10" height="10" transform="rotate(0,170,270)"/><rect x="165" y="285" width="10" height="10" transform="rotate(0,170,290)"/><rect x="165" y="315" width="10" height="10" transform="rotate(0,170,320)"/><rect x="165" y="325" width="10" height="10" transform="rotate(0,170,330)"/><rect x="165" y="355" width="10" height="10" transform="rotate(0,170,360)"/><rect x="165" y="365" width="10" height="10" transform="rotate(0,170,370)"/><rect x="165" y="375" width="10" height="10" transform="rotate(0,170,380)"/><rect x="165" y="405" width="10" height="10" transform="rotate(0,170,410)"/><rect x="175" y="35" width="10" height="10" transform="rotate(0,180,40)"/><rect x="175" y="45" width="10" height="10" transform="rotate(0,180,50)"/><rect x="175" y="55" width="10" height="10" transform="rotate(0,180,60)"/><rect x="175" y="65" width="10" height="10" transform="rotate(0,180,70)"/><rect x="175" y="115" width="10" height="10" transform="rotate(0,180,120)"/><rect x="175" y="155" width="10" height="10" transform="rotate(0,180,160)"/><rect x="175" y="165" width="10" height="10" transform="rotate(0,180,170)"/><rect x="175" y="195" width="10" height="10" transform="rotate(0,180,200)"/><rect x="175" y="205" width="10" height="10" transform="rotate(0,180,210)"/><rect x="175" y="215" width="10" height="10" transform="rotate(0,180,220)"/><rect x="175" y="225" width="10" height="10" transform="rotate(0,180,230)"/><rect x="175" y="235" width="10" height="10" transform="rotate(0,180,240)"/><rect x="175" y="275" width="10" height="10" transform="rotate(0,180,280)"/><rect x="175" y="295" width="10" height="10" transform="rotate(0,180,300)"/><rect x="175" y="325" width="10" height="10" transform="rotate(0,180,330)"/><rect x="175" y="345" width="10" height="10" transform="rotate(0,180,350)"/><rect x="175" y="355" width="10" height="10" transform="rotate(0,180,360)"/><rect x="175" y="375" width="10" height="10" transform="rotate(0,180,380)"/><rect x="175" y="385" width="10" height="10" transform="rotate(0,180,390)"/><rect x="175" y="395" width="10" height="10" transform="rotate(0,180,400)"/><rect x="175" y="405" width="10" height="10" transform="rotate(0,180,410)"/><rect x="175" y="425" width="10" height="10" transform="rotate(0,180,430)"/><rect x="175" y="465" width="10" height="10" transform="rotate(0,180,470)"/><rect x="185" y="65" width="10" height="10" transform="rotate(0,190,70)"/><rect x="185" y="75" width="10" height="10" transform="rotate(0,190,80)"/><rect x="185" y="85" width="10" height="10" transform="rotate(0,190,90)"/><rect x="185" y="115" width="10" height="10" transform="rotate(0,190,120)"/><rect x="185" y="135" width="10" height="10" transform="rotate(0,190,140)"/><rect x="185" y="145" width="10" height="10" transform="rotate(0,190,150)"/><rect x="185" y="155" width="10" height="10" transform="rotate(0,190,160)"/><rect x="185" y="195" width="10" height="10" transform="rotate(0,190,200)"/><rect x="185" y="255" width="10" height="10" transform="rotate(0,190,260)"/><rect x="185" y="275" width="10" height="10" transform="rotate(0,190,280)"/><rect x="185" y="295" width="10" height="10" transform="rotate(0,190,300)"/><rect x="185" y="315" width="10" height="10" transform="rotate(0,190,320)"/><rect x="185" y="325" width="10" height="10" transform="rotate(0,190,330)"/><rect x="185" y="345" width="10" height="10" transform="rotate(0,190,350)"/><rect x="185" y="365" width="10" height="10" transform="rotate(0,190,370)"/><rect x="185" y="375" width="10" height="10" transform="rotate(0,190,380)"/><rect x="185" y="415" width="10" height="10" transform="rotate(0,190,420)"/><rect x="185" y="435" width="10" height="10" transform="rotate(0,190,440)"/><rect x="185" y="445" width="10" height="10" transform="rotate(0,190,450)"/><rect x="185" y="465" width="10" height="10" transform="rotate(0,190,470)"/><rect x="195" y="55" width="10" height="10" transform="rotate(0,200,60)"/><rect x="195" y="65" width="10" height="10" transform="rotate(0,200,70)"/><rect x="195" y="95" width="10" height="10" transform="rotate(0,200,100)"/><rect x="195" y="135" width="10" height="10" transform="rotate(0,200,140)"/><rect x="195" y="145" width="10" height="10" transform="rotate(0,200,150)"/><rect x="195" y="175" width="10" height="10" transform="rotate(0,200,180)"/><rect x="195" y="195" width="10" height="10" transform="rotate(0,200,200)"/><rect x="195" y="205" width="10" height="10" transform="rotate(0,200,210)"/><rect x="195" y="215" width="10" height="10" transform="rotate(0,200,220)"/><rect x="195" y="235" width="10" height="10" transform="rotate(0,200,240)"/><rect x="195" y="245" width="10" height="10" transform="rotate(0,200,250)"/><rect x="195" y="255" width="10" height="10" transform="rotate(0,200,260)"/><rect x="195" y="275" width="10" height="10" transform="rotate(0,200,280)"/><rect x="195" y="285" width="10" height="10" transform="rotate(0,200,290)"/><rect x="195" y="295" width="10" height="10" transform="rotate(0,200,300)"/><rect x="195" y="305" width="10" height="10" transform="rotate(0,200,310)"/><rect x="195" y="315" width="10" height="10" transform="rotate(0,200,320)"/><rect x="195" y="325" width="10" height="10" transform="rotate(0,200,330)"/><rect x="195" y="345" width="10" height="10" transform="rotate(0,200,350)"/><rect x="195" y="385" width="10" height="10" transform="rotate(0,200,390)"/><rect x="195" y="405" width="10" height="10" transform="rotate(0,200,410)"/><rect x="195" y="425" width="10" height="10" transform="rotate(0,200,430)"/><rect x="195" y="435" width="10" height="10" transform="rotate(0,200,440)"/><rect x="195" y="455" width="10" height="10" transform="rotate(0,200,460)"/><rect x="205" y="35" width="10" height="10" transform="rotate(0,210,40)"/><rect x="205" y="55" width="10" height="10" transform="rotate(0,210,60)"/><rect x="205" y="65" width="10" height="10" transform="rotate(0,210,70)"/><rect x="205" y="85" width="10" height="10" transform="rotate(0,210,90)"/><rect x="205" y="95" width="10" height="10" transform="rotate(0,210,100)"/><rect x="205" y="105" width="10" height="10" transform="rotate(0,210,110)"/><rect x="205" y="115" width="10" height="10" transform="rotate(0,210,120)"/><rect x="205" y="135" width="10" height="10" transform="rotate(0,210,140)"/><rect x="205" y="145" width="10" height="10" transform="rotate(0,210,150)"/><rect x="205" y="185" width="10" height="10" transform="rotate(0,210,190)"/><rect x="205" y="195" width="10" height="10" transform="rotate(0,210,200)"/><rect x="205" y="205" width="10" height="10" transform="rotate(0,210,210)"/><rect x="205" y="215" width="10" height="10" transform="rotate(0,210,220)"/><rect x="205" y="275" width="10" height="10" transform="rotate(0,210,280)"/><rect x="205" y="285" width="10" height="10" transform="rotate(0,210,290)"/><rect x="205" y="355" width="10" height="10" transform="rotate(0,210,360)"/><rect x="205" y="385" width="10" height="10" transform="rotate(0,210,390)"/><rect x="205" y="395" width="10" height="10" transform="rotate(0,210,400)"/><rect x="205" y="405" width="10" height="10" transform="rotate(0,210,410)"/><rect x="205" y="435" width="10" height="10" transform="rotate(0,210,440)"/><rect x="205" y="445" width="10" height="10" transform="rotate(0,210,450)"/><rect x="205" y="455" width="10" height="10" transform="rotate(0,210,460)"/><rect x="215" y="35" width="10" height="10" transform="rotate(0,220,40)"/><rect x="215" y="55" width="10" height="10" transform="rotate(0,220,60)"/><rect x="215" y="65" width="10" height="10" transform="rotate(0,220,70)"/><rect x="215" y="75" width="10" height="10" transform="rotate(0,220,80)"/><rect x="215" y="115" width="10" height="10" transform="rotate(0,220,120)"/><rect x="215" y="145" width="10" height="10" transform="rotate(0,220,150)"/><rect x="215" y="155" width="10" height="10" transform="rotate(0,220,160)"/><rect x="215" y="175" width="10" height="10" transform="rotate(0,220,180)"/><rect x="215" y="215" width="10" height="10" transform="rotate(0,220,220)"/><rect x="215" y="235" width="10" height="10" transform="rotate(0,220,240)"/><rect x="215" y="255" width="10" height="10" transform="rotate(0,220,260)"/><rect x="215" y="265" width="10" height="10" transform="rotate(0,220,270)"/><rect x="215" y="305" width="10" height="10" transform="rotate(0,220,310)"/><rect x="215" y="315" width="10" height="10" transform="rotate(0,220,320)"/><rect x="215" y="345" width="10" height="10" transform="rotate(0,220,350)"/><rect x="215" y="375" width="10" height="10" transform="rotate(0,220,380)"/><rect x="215" y="435" width="10" height="10" transform="rotate(0,220,440)"/><rect x="215" y="465" width="10" height="10" transform="rotate(0,220,470)"/><rect x="225" y="35" width="10" height="10" transform="rotate(0,230,40)"/><rect x="225" y="45" width="10" height="10" transform="rotate(0,230,50)"/><rect x="225" y="65" width="10" height="10" transform="rotate(0,230,70)"/><rect x="225" y="75" width="10" height="10" transform="rotate(0,230,80)"/><rect x="225" y="85" width="10" height="10" transform="rotate(0,230,90)"/><rect x="225" y="95" width="10" height="10" transform="rotate(0,230,100)"/><rect x="225" y="105" width="10" height="10" transform="rotate(0,230,110)"/><rect x="225" y="115" width="10" height="10" transform="rotate(0,230,120)"/><rect x="225" y="125" width="10" height="10" transform="rotate(0,230,130)"/><rect x="225" y="135" width="10" height="10" transform="rotate(0,230,140)"/><rect x="225" y="165" width="10" height="10" transform="rotate(0,230,170)"/><rect x="225" y="175" width="10" height="10" transform="rotate(0,230,180)"/><rect x="225" y="185" width="10" height="10" transform="rotate(0,230,190)"/><rect x="225" y="205" width="10" height="10" transform="rotate(0,230,210)"/><rect x="225" y="225" width="10" height="10" transform="rotate(0,230,230)"/><rect x="225" y="235" width="10" height="10" transform="rotate(0,230,240)"/><rect x="225" y="245" width="10" height="10" transform="rotate(0,230,250)"/><rect x="225" y="255" width="10" height="10" transform="rotate(0,230,260)"/><rect x="225" y="265" width="10" height="10" transform="rotate(0,230,270)"/><rect x="225" y="285" width="10" height="10" transform="rotate(0,230,290)"/><rect x="225" y="315" width="10" height="10" transform="rotate(0,230,320)"/><rect x="225" y="325" width="10" height="10" transform="rotate(0,230,330)"/><rect x="225" y="335" width="10" height="10" transform="rotate(0,230,340)"/><rect x="225" y="345" width="10" height="10" transform="rotate(0,230,350)"/><rect x="225" y="355" width="10" height="10" transform="rotate(0,230,360)"/><rect x="225" y="365" width="10" height="10" transform="rotate(0,230,370)"/><rect x="225" y="385" width="10" height="10" transform="rotate(0,230,390)"/><rect x="225" y="395" width="10" height="10" transform="rotate(0,230,400)"/><rect x="225" y="405" width="10" height="10" transform="rotate(0,230,410)"/><rect x="225" y="415" width="10" height="10" transform="rotate(0,230,420)"/><rect x="225" y="425" width="10" height="10" transform="rotate(0,230,430)"/><rect x="225" y="435" width="10" height="10" transform="rotate(0,230,440)"/><rect x="235" y="25" width="10" height="10" transform="rotate(0,240,30)"/><rect x="235" y="35" width="10" height="10" transform="rotate(0,240,40)"/><rect x="235" y="45" width="10" height="10" transform="rotate(0,240,50)"/><rect x="235" y="55" width="10" height="10" transform="rotate(0,240,60)"/><rect x="235" y="65" width="10" height="10" transform="rotate(0,240,70)"/><rect x="235" y="105" width="10" height="10" transform="rotate(0,240,110)"/><rect x="235" y="135" width="10" height="10" transform="rotate(0,240,140)"/><rect x="235" y="175" width="10" height="10" transform="rotate(0,240,180)"/><rect x="235" y="225" width="10" height="10" transform="rotate(0,240,230)"/><rect x="235" y="265" width="10" height="10" transform="rotate(0,240,270)"/><rect x="235" y="275" width="10" height="10" transform="rotate(0,240,280)"/><rect x="235" y="285" width="10" height="10" transform="rotate(0,240,290)"/><rect x="235" y="295" width="10" height="10" transform="rotate(0,240,300)"/><rect x="235" y="325" width="10" height="10" transform="rotate(0,240,330)"/><rect x="235" y="335" width="10" height="10" transform="rotate(0,240,340)"/><rect x="235" y="345" width="10" height="10" transform="rotate(0,240,350)"/><rect x="235" y="355" width="10" height="10" transform="rotate(0,240,360)"/><rect x="235" y="375" width="10" height="10" transform="rotate(0,240,380)"/><rect x="235" y="385" width="10" height="10" transform="rotate(0,240,390)"/><rect x="235" y="425" width="10" height="10" transform="rotate(0,240,430)"/><rect x="235" y="455" width="10" height="10" transform="rotate(0,240,460)"/><rect x="245" y="25" width="10" height="10" transform="rotate(0,250,30)"/><rect x="245" y="35" width="10" height="10" transform="rotate(0,250,40)"/><rect x="245" y="45" width="10" height="10" transform="rotate(0,250,50)"/><rect x="245" y="55" width="10" height="10" transform="rotate(0,250,60)"/><rect x="245" y="65" width="10" height="10" transform="rotate(0,250,70)"/><rect x="245" y="85" width="10" height="10" transform="rotate(0,250,90)"/><rect x="245" y="105" width="10" height="10" transform="rotate(0,250,110)"/><rect x="245" y="115" width="10" height="10" transform="rotate(0,250,120)"/><rect x="245" y="165" width="10" height="10" transform="rotate(0,250,170)"/><rect x="245" y="185" width="10" height="10" transform="rotate(0,250,190)"/><rect x="245" y="205" width="10" height="10" transform="rotate(0,250,210)"/><rect x="245" y="215" width="10" height="10" transform="rotate(0,250,220)"/><rect x="245" y="225" width="10" height="10" transform="rotate(0,250,230)"/><rect x="245" y="245" width="10" height="10" transform="rotate(0,250,250)"/><rect x="245" y="265" width="10" height="10" transform="rotate(0,250,270)"/><rect x="245" y="275" width="10" height="10" transform="rotate(0,250,280)"/><rect x="245" y="295" width="10" height="10" transform="rotate(0,250,300)"/><rect x="245" y="305" width="10" height="10" transform="rotate(0,250,310)"/><rect x="245" y="385" width="10" height="10" transform="rotate(0,250,390)"/><rect x="245" y="405" width="10" height="10" transform="rotate(0,250,410)"/><rect x="245" y="425" width="10" height="10" transform="rotate(0,250,430)"/><rect x="245" y="435" width="10" height="10" transform="rotate(0,250,440)"/><rect x="255" y="65" width="10" height="10" transform="rotate(0,260,70)"/><rect x="255" y="105" width="10" height="10" transform="rotate(0,260,110)"/><rect x="255" y="125" width="10" height="10" transform="rotate(0,260,130)"/><rect x="255" y="135" width="10" height="10" transform="rotate(0,260,140)"/><rect x="255" y="165" width="10" height="10" transform="rotate(0,260,170)"/><rect x="255" y="185" width="10" height="10" transform="rotate(0,260,190)"/><rect x="255" y="205" width="10" height="10" transform="rotate(0,260,210)"/><rect x="255" y="225" width="10" height="10" transform="rotate(0,260,230)"/><rect x="255" y="265" width="10" height="10" transform="rotate(0,260,270)"/><rect x="255" y="275" width="10" height="10" transform="rotate(0,260,280)"/><rect x="255" y="295" width="10" height="10" transform="rotate(0,260,300)"/><rect x="255" y="325" width="10" height="10" transform="rotate(0,260,330)"/><rect x="255" y="335" width="10" height="10" transform="rotate(0,260,340)"/><rect x="255" y="345" width="10" height="10" transform="rotate(0,260,350)"/><rect x="255" y="375" width="10" height="10" transform="rotate(0,260,380)"/><rect x="255" y="385" width="10" height="10" transform="rotate(0,260,390)"/><rect x="255" y="425" width="10" height="10" transform="rotate(0,260,430)"/><rect x="255" y="455" width="10" height="10" transform="rotate(0,260,460)"/><rect x="265" y="25" width="10" height="10" transform="rotate(0,270,30)"/><rect x="265" y="45" width="10" height="10" transform="rotate(0,270,50)"/><rect x="265" y="55" width="10" height="10" transform="rotate(0,270,60)"/><rect x="265" y="65" width="10" height="10" transform="rotate(0,270,70)"/><rect x="265" y="75" width="10" height="10" transform="rotate(0,270,80)"/><rect x="265" y="85" width="10" height="10" transform="rotate(0,270,90)"/><rect x="265" y="95" width="10" height="10" transform="rotate(0,270,100)"/><rect x="265" y="105" width="10" height="10" transform="rotate(0,270,110)"/><rect x="265" y="115" width="10" height="10" transform="rotate(0,270,120)"/><rect x="265" y="145" width="10" height="10" transform="rotate(0,270,150)"/><rect x="265" y="155" width="10" height="10" transform="rotate(0,270,160)"/><rect x="265" y="175" width="10" height="10" transform="rotate(0,270,180)"/><rect x="265" y="205" width="10" height="10" transform="rotate(0,270,210)"/><rect x="265" y="215" width="10" height="10" transform="rotate(0,270,220)"/><rect x="265" y="225" width="10" height="10" transform="rotate(0,270,230)"/><rect x="265" y="235" width="10" height="10" transform="rotate(0,270,240)"/><rect x="265" y="245" width="10" height="10" transform="rotate(0,270,250)"/><rect x="265" y="255" width="10" height="10" transform="rotate(0,270,260)"/><rect x="265" y="265" width="10" height="10" transform="rotate(0,270,270)"/><rect x="265" y="275" width="10" height="10" transform="rotate(0,270,280)"/><rect x="265" y="315" width="10" height="10" transform="rotate(0,270,320)"/><rect x="265" y="345" width="10" height="10" transform="rotate(0,270,350)"/><rect x="265" y="385" width="10" height="10" transform="rotate(0,270,390)"/><rect x="265" y="395" width="10" height="10" transform="rotate(0,270,400)"/><rect x="265" y="405" width="10" height="10" transform="rotate(0,270,410)"/><rect x="265" y="415" width="10" height="10" transform="rotate(0,270,420)"/><rect x="265" y="425" width="10" height="10" transform="rotate(0,270,430)"/><rect x="265" y="435" width="10" height="10" transform="rotate(0,270,440)"/><rect x="265" y="455" width="10" height="10" transform="rotate(0,270,460)"/><rect x="265" y="465" width="10" height="10" transform="rotate(0,270,470)"/><rect x="275" y="25" width="10" height="10" transform="rotate(0,280,30)"/><rect x="275" y="35" width="10" height="10" transform="rotate(0,280,40)"/><rect x="275" y="45" width="10" height="10" transform="rotate(0,280,50)"/><rect x="275" y="55" width="10" height="10" transform="rotate(0,280,60)"/><rect x="275" y="75" width="10" height="10" transform="rotate(0,280,80)"/><rect x="275" y="95" width="10" height="10" transform="rotate(0,280,100)"/><rect x="275" y="105" width="10" height="10" transform="rotate(0,280,110)"/><rect x="275" y="115" width="10" height="10" transform="rotate(0,280,120)"/><rect x="275" y="145" width="10" height="10" transform="rotate(0,280,150)"/><rect x="275" y="155" width="10" height="10" transform="rotate(0,280,160)"/><rect x="275" y="165" width="10" height="10" transform="rotate(0,280,170)"/><rect x="275" y="175" width="10" height="10" transform="rotate(0,280,180)"/><rect x="275" y="185" width="10" height="10" transform="rotate(0,280,190)"/><rect x="275" y="205" width="10" height="10" transform="rotate(0,280,210)"/><rect x="275" y="235" width="10" height="10" transform="rotate(0,280,240)"/><rect x="275" y="295" width="10" height="10" transform="rotate(0,280,300)"/><rect x="275" y="305" width="10" height="10" transform="rotate(0,280,310)"/><rect x="275" y="315" width="10" height="10" transform="rotate(0,280,320)"/><rect x="275" y="325" width="10" height="10" transform="rotate(0,280,330)"/><rect x="275" y="355" width="10" height="10" transform="rotate(0,280,360)"/><rect x="275" y="405" width="10" height="10" transform="rotate(0,280,410)"/><rect x="275" y="435" width="10" height="10" transform="rotate(0,280,440)"/><rect x="275" y="455" width="10" height="10" transform="rotate(0,280,460)"/><rect x="285" y="25" width="10" height="10" transform="rotate(0,290,30)"/><rect x="285" y="65" width="10" height="10" transform="rotate(0,290,70)"/><rect x="285" y="85" width="10" height="10" transform="rotate(0,290,90)"/><rect x="285" y="105" width="10" height="10" transform="rotate(0,290,110)"/><rect x="285" y="115" width="10" height="10" transform="rotate(0,290,120)"/><rect x="285" y="125" width="10" height="10" transform="rotate(0,290,130)"/><rect x="285" y="145" width="10" height="10" transform="rotate(0,290,150)"/><rect x="285" y="165" width="10" height="10" transform="rotate(0,290,170)"/><rect x="285" y="175" width="10" height="10" transform="rotate(0,290,180)"/><rect x="285" y="215" width="10" height="10" transform="rotate(0,290,220)"/><rect x="285" y="225" width="10" height="10" transform="rotate(0,290,230)"/><rect x="285" y="235" width="10" height="10" transform="rotate(0,290,240)"/><rect x="285" y="255" width="10" height="10" transform="rotate(0,290,260)"/><rect x="285" y="265" width="10" height="10" transform="rotate(0,290,270)"/><rect x="285" y="275" width="10" height="10" transform="rotate(0,290,280)"/><rect x="285" y="285" width="10" height="10" transform="rotate(0,290,290)"/><rect x="285" y="295" width="10" height="10" transform="rotate(0,290,300)"/><rect x="285" y="305" width="10" height="10" transform="rotate(0,290,310)"/><rect x="285" y="315" width="10" height="10" transform="rotate(0,290,320)"/><rect x="285" y="325" width="10" height="10" transform="rotate(0,290,330)"/><rect x="285" y="335" width="10" height="10" transform="rotate(0,290,340)"/><rect x="285" y="345" width="10" height="10" transform="rotate(0,290,350)"/><rect x="285" y="355" width="10" height="10" transform="rotate(0,290,360)"/><rect x="285" y="375" width="10" height="10" transform="rotate(0,290,380)"/><rect x="285" y="425" width="10" height="10" transform="rotate(0,290,430)"/><rect x="285" y="435" width="10" height="10" transform="rotate(0,290,440)"/><rect x="285" y="445" width="10" height="10" transform="rotate(0,290,450)"/><rect x="285" y="455" width="10" height="10" transform="rotate(0,290,460)"/><rect x="295" y="25" width="10" height="10" transform="rotate(0,300,30)"/><rect x="295" y="35" width="10" height="10" transform="rotate(0,300,40)"/><rect x="295" y="65" width="10" height="10" transform="rotate(0,300,70)"/><rect x="295" y="95" width="10" height="10" transform="rotate(0,300,100)"/><rect x="295" y="115" width="10" height="10" transform="rotate(0,300,120)"/><rect x="295" y="125" width="10" height="10" transform="rotate(0,300,130)"/><rect x="295" y="135" width="10" height="10" transform="rotate(0,300,140)"/><rect x="295" y="145" width="10" height="10" transform="rotate(0,300,150)"/><rect x="295" y="185" width="10" height="10" transform="rotate(0,300,190)"/><rect x="295" y="205" width="10" height="10" transform="rotate(0,300,210)"/><rect x="295" y="215" width="10" height="10" transform="rotate(0,300,220)"/><rect x="295" y="225" width="10" height="10" transform="rotate(0,300,230)"/><rect x="295" y="255" width="10" height="10" transform="rotate(0,300,260)"/><rect x="295" y="265" width="10" height="10" transform="rotate(0,300,270)"/><rect x="295" y="315" width="10" height="10" transform="rotate(0,300,320)"/><rect x="295" y="335" width="10" height="10" transform="rotate(0,300,340)"/><rect x="295" y="365" width="10" height="10" transform="rotate(0,300,370)"/><rect x="295" y="385" width="10" height="10" transform="rotate(0,300,390)"/><rect x="295" y="405" width="10" height="10" transform="rotate(0,300,410)"/><rect x="295" y="415" width="10" height="10" transform="rotate(0,300,420)"/><rect x="295" y="425" width="10" height="10" transform="rotate(0,300,430)"/><rect x="305" y="25" width="10" height="10" transform="rotate(0,310,30)"/><rect x="305" y="35" width="10" height="10" transform="rotate(0,310,40)"/><rect x="305" y="65" width="10" height="10" transform="rotate(0,310,70)"/><rect x="305" y="85" width="10" height="10" transform="rotate(0,310,90)"/><rect x="305" y="115" width="10" height="10" transform="rotate(0,310,120)"/><rect x="305" y="135" width="10" height="10" transform="rotate(0,310,140)"/><rect x="305" y="145" width="10" height="10" transform="rotate(0,310,150)"/><rect x="305" y="155" width="10" height="10" transform="rotate(0,310,160)"/><rect x="305" y="165" width="10" height="10" transform="rotate(0,310,170)"/><rect x="305" y="175" width="10" height="10" transform="rotate(0,310,180)"/><rect x="305" y="185" width="10" height="10" transform="rotate(0,310,190)"/><rect x="305" y="205" width="10" height="10" transform="rotate(0,310,210)"/><rect x="305" y="225" width="10" height="10" transform="rotate(0,310,230)"/><rect x="305" y="245" width="10" height="10" transform="rotate(0,310,250)"/><rect x="305" y="265" width="10" height="10" transform="rotate(0,310,270)"/><rect x="305" y="275" width="10" height="10" transform="rotate(0,310,280)"/><rect x="305" y="285" width="10" height="10" transform="rotate(0,310,290)"/><rect x="305" y="295" width="10" height="10" transform="rotate(0,310,300)"/><rect x="305" y="315" width="10" height="10" transform="rotate(0,310,320)"/><rect x="305" y="335" width="10" height="10" transform="rotate(0,310,340)"/><rect x="305" y="345" width="10" height="10" transform="rotate(0,310,350)"/><rect x="305" y="355" width="10" height="10" transform="rotate(0,310,360)"/><rect x="305" y="385" width="10" height="10" transform="rotate(0,310,390)"/><rect x="305" y="395" width="10" height="10" transform="rotate(0,310,400)"/><rect x="305" y="405" width="10" height="10" transform="rotate(0,310,410)"/><rect x="305" y="425" width="10" height="10" transform="rotate(0,310,430)"/><rect x="305" y="435" width="10" height="10" transform="rotate(0,310,440)"/><rect x="305" y="465" width="10" height="10" transform="rotate(0,310,470)"/><rect x="315" y="95" width="10" height="10" transform="rotate(0,320,100)"/><rect x="315" y="105" width="10" height="10" transform="rotate(0,320,110)"/><rect x="315" y="115" width="10" height="10" transform="rotate(0,320,120)"/><rect x="315" y="165" width="10" height="10" transform="rotate(0,320,170)"/><rect x="315" y="195" width="10" height="10" transform="rotate(0,320,200)"/><rect x="315" y="225" width="10" height="10" transform="rotate(0,320,230)"/><rect x="315" y="245" width="10" height="10" transform="rotate(0,320,250)"/><rect x="315" y="265" width="10" height="10" transform="rotate(0,320,270)"/><rect x="315" y="275" width="10" height="10" transform="rotate(0,320,280)"/><rect x="315" y="285" width="10" height="10" transform="rotate(0,320,290)"/><rect x="315" y="295" width="10" height="10" transform="rotate(0,320,300)"/><rect x="315" y="305" width="10" height="10" transform="rotate(0,320,310)"/><rect x="315" y="315" width="10" height="10" transform="rotate(0,320,320)"/><rect x="315" y="325" width="10" height="10" transform="rotate(0,320,330)"/><rect x="315" y="345" width="10" height="10" transform="rotate(0,320,350)"/><rect x="315" y="355" width="10" height="10" transform="rotate(0,320,360)"/><rect x="315" y="385" width="10" height="10" transform="rotate(0,320,390)"/><rect x="315" y="435" width="10" height="10" transform="rotate(0,320,440)"/><rect x="325" y="45" width="10" height="10" transform="rotate(0,330,50)"/><rect x="325" y="65" width="10" height="10" transform="rotate(0,330,70)"/><rect x="325" y="75" width="10" height="10" transform="rotate(0,330,80)"/><rect x="325" y="85" width="10" height="10" transform="rotate(0,330,90)"/><rect x="325" y="105" width="10" height="10" transform="rotate(0,330,110)"/><rect x="325" y="145" width="10" height="10" transform="rotate(0,330,150)"/><rect x="325" y="165" width="10" height="10" transform="rotate(0,330,170)"/><rect x="325" y="175" width="10" height="10" transform="rotate(0,330,180)"/><rect x="325" y="185" width="10" height="10" transform="rotate(0,330,190)"/><rect x="325" y="195" width="10" height="10" transform="rotate(0,330,200)"/><rect x="325" y="205" width="10" height="10" transform="rotate(0,330,210)"/><rect x="325" y="215" width="10" height="10" transform="rotate(0,330,220)"/><rect x="325" y="235" width="10" height="10" transform="rotate(0,330,240)"/><rect x="325" y="285" width="10" height="10" transform="rotate(0,330,290)"/><rect x="325" y="305" width="10" height="10" transform="rotate(0,330,310)"/><rect x="325" y="315" width="10" height="10" transform="rotate(0,330,320)"/><rect x="325" y="325" width="10" height="10" transform="rotate(0,330,330)"/><rect x="325" y="355" width="10" height="10" transform="rotate(0,330,360)"/><rect x="325" y="375" width="10" height="10" transform="rotate(0,330,380)"/><rect x="325" y="385" width="10" height="10" transform="rotate(0,330,390)"/><rect x="325" y="395" width="10" height="10" transform="rotate(0,330,400)"/><rect x="325" y="415" width="10" height="10" transform="rotate(0,330,420)"/><rect x="325" y="425" width="10" height="10" transform="rotate(0,330,430)"/><rect x="325" y="435" width="10" height="10" transform="rotate(0,330,440)"/><rect x="325" y="445" width="10" height="10" transform="rotate(0,330,450)"/><rect x="335" y="25" width="10" height="10" transform="rotate(0,340,30)"/><rect x="335" y="45" width="10" height="10" transform="rotate(0,340,50)"/><rect x="335" y="65" width="10" height="10" transform="rotate(0,340,70)"/><rect x="335" y="75" width="10" height="10" transform="rotate(0,340,80)"/><rect x="335" y="105" width="10" height="10" transform="rotate(0,340,110)"/><rect x="335" y="125" width="10" height="10" transform="rotate(0,340,130)"/><rect x="335" y="135" width="10" height="10" transform="rotate(0,340,140)"/><rect x="335" y="145" width="10" height="10" transform="rotate(0,340,150)"/><rect x="335" y="155" width="10" height="10" transform="rotate(0,340,160)"/><rect x="335" y="195" width="10" height="10" transform="rotate(0,340,200)"/><rect x="335" y="215" width="10" height="10" transform="rotate(0,340,220)"/><rect x="335" y="235" width="10" height="10" transform="rotate(0,340,240)"/><rect x="335" y="245" width="10" height="10" transform="rotate(0,340,250)"/><rect x="335" y="285" width="10" height="10" transform="rotate(0,340,290)"/><rect x="335" y="315" width="10" height="10" transform="rotate(0,340,320)"/><rect x="335" y="345" width="10" height="10" transform="rotate(0,340,350)"/><rect x="335" y="375" width="10" height="10" transform="rotate(0,340,380)"/><rect x="335" y="385" width="10" height="10" transform="rotate(0,340,390)"/><rect x="335" y="395" width="10" height="10" transform="rotate(0,340,400)"/><rect x="335" y="425" width="10" height="10" transform="rotate(0,340,430)"/><rect x="335" y="465" width="10" height="10" transform="rotate(0,340,470)"/><rect x="345" y="35" width="10" height="10" transform="rotate(0,350,40)"/><rect x="345" y="55" width="10" height="10" transform="rotate(0,350,60)"/><rect x="345" y="65" width="10" height="10" transform="rotate(0,350,70)"/><rect x="345" y="75" width="10" height="10" transform="rotate(0,350,80)"/><rect x="345" y="85" width="10" height="10" transform="rotate(0,350,90)"/><rect x="345" y="95" width="10" height="10" transform="rotate(0,350,100)"/><rect x="345" y="115" width="10" height="10" transform="rotate(0,350,120)"/><rect x="345" y="135" width="10" height="10" transform="rotate(0,350,140)"/><rect x="345" y="155" width="10" height="10" transform="rotate(0,350,160)"/><rect x="345" y="165" width="10" height="10" transform="rotate(0,350,170)"/><rect x="345" y="195" width="10" height="10" transform="rotate(0,350,200)"/><rect x="345" y="215" width="10" height="10" transform="rotate(0,350,220)"/><rect x="345" y="225" width="10" height="10" transform="rotate(0,350,230)"/><rect x="345" y="255" width="10" height="10" transform="rotate(0,350,260)"/><rect x="345" y="265" width="10" height="10" transform="rotate(0,350,270)"/><rect x="345" y="285" width="10" height="10" transform="rotate(0,350,290)"/><rect x="345" y="315" width="10" height="10" transform="rotate(0,350,320)"/><rect x="345" y="345" width="10" height="10" transform="rotate(0,350,350)"/><rect x="345" y="365" width="10" height="10" transform="rotate(0,350,370)"/><rect x="345" y="395" width="10" height="10" transform="rotate(0,350,400)"/><rect x="345" y="405" width="10" height="10" transform="rotate(0,350,410)"/><rect x="345" y="425" width="10" height="10" transform="rotate(0,350,430)"/><rect x="345" y="435" width="10" height="10" transform="rotate(0,350,440)"/><rect x="345" y="455" width="10" height="10" transform="rotate(0,350,460)"/><rect x="345" y="465" width="10" height="10" transform="rotate(0,350,470)"/><rect x="355" y="25" width="10" height="10" transform="rotate(0,360,30)"/><rect x="355" y="55" width="10" height="10" transform="rotate(0,360,60)"/><rect x="355" y="75" width="10" height="10" transform="rotate(0,360,80)"/><rect x="355" y="95" width="10" height="10" transform="rotate(0,360,100)"/><rect x="355" y="125" width="10" height="10" transform="rotate(0,360,130)"/><rect x="355" y="135" width="10" height="10" transform="rotate(0,360,140)"/><rect x="355" y="165" width="10" height="10" transform="rotate(0,360,170)"/><rect x="355" y="195" width="10" height="10" transform="rotate(0,360,200)"/><rect x="355" y="205" width="10" height="10" transform="rotate(0,360,210)"/><rect x="355" y="225" width="10" height="10" transform="rotate(0,360,230)"/><rect x="355" y="245" width="10" height="10" transform="rotate(0,360,250)"/><rect x="355" y="255" width="10" height="10" transform="rotate(0,360,260)"/><rect x="355" y="295" width="10" height="10" transform="rotate(0,360,300)"/><rect x="355" y="305" width="10" height="10" transform="rotate(0,360,310)"/><rect x="355" y="325" width="10" height="10" transform="rotate(0,360,330)"/><rect x="355" y="345" width="10" height="10" transform="rotate(0,360,350)"/><rect x="355" y="355" width="10" height="10" transform="rotate(0,360,360)"/><rect x="355" y="375" width="10" height="10" transform="rotate(0,360,380)"/><rect x="355" y="395" width="10" height="10" transform="rotate(0,360,400)"/><rect x="355" y="405" width="10" height="10" transform="rotate(0,360,410)"/><rect x="355" y="415" width="10" height="10" transform="rotate(0,360,420)"/><rect x="355" y="435" width="10" height="10" transform="rotate(0,360,440)"/><rect x="355" y="455" width="10" height="10" transform="rotate(0,360,460)"/><rect x="365" y="65" width="10" height="10" transform="rotate(0,370,70)"/><rect x="365" y="85" width="10" height="10" transform="rotate(0,370,90)"/><rect x="365" y="95" width="10" height="10" transform="rotate(0,370,100)"/><rect x="365" y="105" width="10" height="10" transform="rotate(0,370,110)"/><rect x="365" y="125" width="10" height="10" transform="rotate(0,370,130)"/><rect x="365" y="145" width="10" height="10" transform="rotate(0,370,150)"/><rect x="365" y="155" width="10" height="10" transform="rotate(0,370,160)"/><rect x="365" y="175" width="10" height="10" transform="rotate(0,370,180)"/><rect x="365" y="195" width="10" height="10" transform="rotate(0,370,200)"/><rect x="365" y="245" width="10" height="10" transform="rotate(0,370,250)"/><rect x="365" y="255" width="10" height="10" transform="rotate(0,370,260)"/><rect x="365" y="265" width="10" height="10" transform="rotate(0,370,270)"/><rect x="365" y="275" width="10" height="10" transform="rotate(0,370,280)"/><rect x="365" y="315" width="10" height="10" transform="rotate(0,370,320)"/><rect x="365" y="325" width="10" height="10" transform="rotate(0,370,330)"/><rect x="365" y="335" width="10" height="10" transform="rotate(0,370,340)"/><rect x="365" y="355" width="10" height="10" transform="rotate(0,370,360)"/><rect x="365" y="385" width="10" height="10" transform="rotate(0,370,390)"/><rect x="365" y="395" width="10" height="10" transform="rotate(0,370,400)"/><rect x="365" y="415" width="10" height="10" transform="rotate(0,370,420)"/><rect x="365" y="425" width="10" height="10" transform="rotate(0,370,430)"/><rect x="365" y="445" width="10" height="10" transform="rotate(0,370,450)"/><rect x="365" y="455" width="10" height="10" transform="rotate(0,370,460)"/><rect x="375" y="35" width="10" height="10" transform="rotate(0,380,40)"/><rect x="375" y="45" width="10" height="10" transform="rotate(0,380,50)"/><rect x="375" y="55" width="10" height="10" transform="rotate(0,380,60)"/><rect x="375" y="65" width="10" height="10" transform="rotate(0,380,70)"/><rect x="375" y="105" width="10" height="10" transform="rotate(0,380,110)"/><rect x="375" y="115" width="10" height="10" transform="rotate(0,380,120)"/><rect x="375" y="135" width="10" height="10" transform="rotate(0,380,140)"/><rect x="375" y="155" width="10" height="10" transform="rotate(0,380,160)"/><rect x="375" y="165" width="10" height="10" transform="rotate(0,380,170)"/><rect x="375" y="175" width="10" height="10" transform="rotate(0,380,180)"/><rect x="375" y="195" width="10" height="10" transform="rotate(0,380,200)"/><rect x="375" y="205" width="10" height="10" transform="rotate(0,380,210)"/><rect x="375" y="235" width="10" height="10" transform="rotate(0,380,240)"/><rect x="375" y="255" width="10" height="10" transform="rotate(0,380,260)"/><rect x="375" y="275" width="10" height="10" transform="rotate(0,380,280)"/><rect x="375" y="285" width="10" height="10" transform="rotate(0,380,290)"/><rect x="375" y="295" width="10" height="10" transform="rotate(0,380,300)"/><rect x="375" y="325" width="10" height="10" transform="rotate(0,380,330)"/><rect x="375" y="345" width="10" height="10" transform="rotate(0,380,350)"/><rect x="375" y="385" width="10" height="10" transform="rotate(0,380,390)"/><rect x="375" y="405" width="10" height="10" transform="rotate(0,380,410)"/><rect x="375" y="425" width="10" height="10" transform="rotate(0,380,430)"/><rect x="375" y="435" width="10" height="10" transform="rotate(0,380,440)"/><rect x="385" y="25" width="10" height="10" transform="rotate(0,390,30)"/><rect x="385" y="55" width="10" height="10" transform="rotate(0,390,60)"/><rect x="385" y="65" width="10" height="10" transform="rotate(0,390,70)"/><rect x="385" y="85" width="10" height="10" transform="rotate(0,390,90)"/><rect x="385" y="115" width="10" height="10" transform="rotate(0,390,120)"/><rect x="385" y="125" width="10" height="10" transform="rotate(0,390,130)"/><rect x="385" y="135" width="10" height="10" transform="rotate(0,390,140)"/><rect x="385" y="145" width="10" height="10" transform="rotate(0,390,150)"/><rect x="385" y="175" width="10" height="10" transform="rotate(0,390,180)"/><rect x="385" y="225" width="10" height="10" transform="rotate(0,390,230)"/><rect x="385" y="235" width="10" height="10" transform="rotate(0,390,240)"/><rect x="385" y="245" width="10" height="10" transform="rotate(0,390,250)"/><rect x="385" y="255" width="10" height="10" transform="rotate(0,390,260)"/><rect x="385" y="265" width="10" height="10" transform="rotate(0,390,270)"/><rect x="385" y="285" width="10" height="10" transform="rotate(0,390,290)"/><rect x="385" y="295" width="10" height="10" transform="rotate(0,390,300)"/><rect x="385" y="315" width="10" height="10" transform="rotate(0,390,320)"/><rect x="385" y="325" width="10" height="10" transform="rotate(0,390,330)"/><rect x="385" y="345" width="10" height="10" transform="rotate(0,390,350)"/><rect x="385" y="365" width="10" height="10" transform="rotate(0,390,370)"/><rect x="385" y="385" width="10" height="10" transform="rotate(0,390,390)"/><rect x="385" y="395" width="10" height="10" transform="rotate(0,390,400)"/><rect x="385" y="405" width="10" height="10" transform="rotate(0,390,410)"/><rect x="385" y="415" width="10" height="10" transform="rotate(0,390,420)"/><rect x="385" y="425" width="10" height="10" transform="rotate(0,390,430)"/><rect x="385" y="435" width="10" height="10" transform="rotate(0,390,440)"/><rect x="385" y="465" width="10" height="10" transform="rotate(0,390,470)"/><rect x="395" y="105" width="10" height="10" transform="rotate(0,400,110)"/><rect x="395" y="115" width="10" height="10" transform="rotate(0,400,120)"/><rect x="395" y="125" width="10" height="10" transform="rotate(0,400,130)"/><rect x="395" y="145" width="10" height="10" transform="rotate(0,400,150)"/><rect x="395" y="175" width="10" height="10" transform="rotate(0,400,180)"/><rect x="395" y="195" width="10" height="10" transform="rotate(0,400,200)"/><rect x="395" y="215" width="10" height="10" transform="rotate(0,400,220)"/><rect x="395" y="225" width="10" height="10" transform="rotate(0,400,230)"/><rect x="395" y="265" width="10" height="10" transform="rotate(0,400,270)"/><rect x="395" y="295" width="10" height="10" transform="rotate(0,400,300)"/><rect x="395" y="305" width="10" height="10" transform="rotate(0,400,310)"/><rect x="395" y="315" width="10" height="10" transform="rotate(0,400,320)"/><rect x="395" y="325" width="10" height="10" transform="rotate(0,400,330)"/><rect x="395" y="345" width="10" height="10" transform="rotate(0,400,350)"/><rect x="395" y="355" width="10" height="10" transform="rotate(0,400,360)"/><rect x="395" y="365" width="10" height="10" transform="rotate(0,400,370)"/><rect x="395" y="375" width="10" height="10" transform="rotate(0,400,380)"/><rect x="395" y="385" width="10" height="10" transform="rotate(0,400,390)"/><rect x="395" y="425" width="10" height="10" transform="rotate(0,400,430)"/><rect x="395" y="435" width="10" height="10" transform="rotate(0,400,440)"/><rect x="395" y="455" width="10" height="10" transform="rotate(0,400,460)"/><rect x="405" y="115" width="10" height="10" transform="rotate(0,410,120)"/><rect x="405" y="125" width="10" height="10" transform="rotate(0,410,130)"/><rect x="405" y="165" width="10" height="10" transform="rotate(0,410,170)"/><rect x="405" y="175" width="10" height="10" transform="rotate(0,410,180)"/><rect x="405" y="195" width="10" height="10" transform="rotate(0,410,200)"/><rect x="405" y="225" width="10" height="10" transform="rotate(0,410,230)"/><rect x="405" y="245" width="10" height="10" transform="rotate(0,410,250)"/><rect x="405" y="265" width="10" height="10" transform="rotate(0,410,270)"/><rect x="405" y="315" width="10" height="10" transform="rotate(0,410,320)"/><rect x="405" y="345" width="10" height="10" transform="rotate(0,410,350)"/><rect x="405" y="355" width="10" height="10" transform="rotate(0,410,360)"/><rect x="405" y="365" width="10" height="10" transform="rotate(0,410,370)"/><rect x="405" y="375" width="10" height="10" transform="rotate(0,410,380)"/><rect x="405" y="385" width="10" height="10" transform="rotate(0,410,390)"/><rect x="405" y="405" width="10" height="10" transform="rotate(0,410,410)"/><rect x="405" y="425" width="10" height="10" transform="rotate(0,410,430)"/><rect x="405" y="445" width="10" height="10" transform="rotate(0,410,450)"/><rect x="405" y="455" width="10" height="10" transform="rotate(0,410,460)"/><rect x="415" y="115" width="10" height="10" transform="rotate(0,420,120)"/><rect x="415" y="125" width="10" height="10" transform="rotate(0,420,130)"/><rect x="415" y="155" width="10" height="10" transform="rotate(0,420,160)"/><rect x="415" y="175" width="10" height="10" transform="rotate(0,420,180)"/><rect x="415" y="185" width="10" height="10" transform="rotate(0,420,190)"/><rect x="415" y="225" width="10" height="10" transform="rotate(0,420,230)"/><rect x="415" y="265" width="10" height="10" transform="rotate(0,420,270)"/><rect x="415" y="285" width="10" height="10" transform="rotate(0,420,290)"/><rect x="415" y="295" width="10" height="10" transform="rotate(0,420,300)"/><rect x="415" y="345" width="10" height="10" transform="rotate(0,420,350)"/><rect x="415" y="385" width="10" height="10" transform="rotate(0,420,390)"/><rect x="415" y="425" width="10" height="10" transform="rotate(0,420,430)"/><rect x="415" y="465" width="10" height="10" transform="rotate(0,420,470)"/><rect x="425" y="105" width="10" height="10" transform="rotate(0,430,110)"/><rect x="425" y="115" width="10" height="10" transform="rotate(0,430,120)"/><rect x="425" y="145" width="10" height="10" transform="rotate(0,430,150)"/><rect x="425" y="165" width="10" height="10" transform="rotate(0,430,170)"/><rect x="425" y="215" width="10" height="10" transform="rotate(0,430,220)"/><rect x="425" y="225" width="10" height="10" transform="rotate(0,430,230)"/><rect x="425" y="235" width="10" height="10" transform="rotate(0,430,240)"/><rect x="425" y="245" width="10" height="10" transform="rotate(0,430,250)"/><rect x="425" y="255" width="10" height="10" transform="rotate(0,430,260)"/><rect x="425" y="265" width="10" height="10" transform="rotate(0,430,270)"/><rect x="425" y="285" width="10" height="10" transform="rotate(0,430,290)"/><rect x="425" y="295" width="10" height="10" transform="rotate(0,430,300)"/><rect x="425" y="315" width="10" height="10" transform="rotate(0,430,320)"/><rect x="425" y="325" width="10" height="10" transform="rotate(0,430,330)"/><rect x="425" y="345" width="10" height="10" transform="rotate(0,430,350)"/><rect x="425" y="355" width="10" height="10" transform="rotate(0,430,360)"/><rect x="425" y="365" width="10" height="10" transform="rotate(0,430,370)"/><rect x="425" y="385" width="10" height="10" transform="rotate(0,430,390)"/><rect x="425" y="395" width="10" height="10" transform="rotate(0,430,400)"/><rect x="425" y="405" width="10" height="10" transform="rotate(0,430,410)"/><rect x="425" y="415" width="10" height="10" transform="rotate(0,430,420)"/><rect x="425" y="425" width="10" height="10" transform="rotate(0,430,430)"/><rect x="425" y="445" width="10" height="10" transform="rotate(0,430,450)"/><rect x="425" y="465" width="10" height="10" transform="rotate(0,430,470)"/><rect x="435" y="115" width="10" height="10" transform="rotate(0,440,120)"/><rect x="435" y="135" width="10" height="10" transform="rotate(0,440,140)"/><rect x="435" y="145" width="10" height="10" transform="rotate(0,440,150)"/><rect x="435" y="155" width="10" height="10" transform="rotate(0,440,160)"/><rect x="435" y="165" width="10" height="10" transform="rotate(0,440,170)"/><rect x="435" y="175" width="10" height="10" transform="rotate(0,440,180)"/><rect x="435" y="185" width="10" height="10" transform="rotate(0,440,190)"/><rect x="435" y="195" width="10" height="10" transform="rotate(0,440,200)"/><rect x="435" y="235" width="10" height="10" transform="rotate(0,440,240)"/><rect x="435" y="305" width="10" height="10" transform="rotate(0,440,310)"/><rect x="435" y="315" width="10" height="10" transform="rotate(0,440,320)"/><rect x="435" y="325" width="10" height="10" transform="rotate(0,440,330)"/><rect x="435" y="395" width="10" height="10" transform="rotate(0,440,400)"/><rect x="435" y="405" width="10" height="10" transform="rotate(0,440,410)"/><rect x="435" y="415" width="10" height="10" transform="rotate(0,440,420)"/><rect x="435" y="425" width="10" height="10" transform="rotate(0,440,430)"/><rect x="435" y="435" width="10" height="10" transform="rotate(0,440,440)"/><rect x="435" y="445" width="10" height="10" transform="rotate(0,440,450)"/><rect x="435" y="455" width="10" height="10" transform="rotate(0,440,460)"/><rect x="435" y="465" width="10" height="10" transform="rotate(0,440,470)"/><rect x="445" y="115" width="10" height="10" transform="rotate(0,450,120)"/><rect x="445" y="125" width="10" height="10" transform="rotate(0,450,130)"/><rect x="445" y="165" width="10" height="10" transform="rotate(0,450,170)"/><rect x="445" y="205" width="10" height="10" transform="rotate(0,450,210)"/><rect x="445" y="235" width="10" height="10" transform="rotate(0,450,240)"/><rect x="445" y="245" width="10" height="10" transform="rotate(0,450,250)"/><rect x="445" y="255" width="10" height="10" transform="rotate(0,450,260)"/><rect x="445" y="265" width="10" height="10" transform="rotate(0,450,270)"/><rect x="445" y="285" width="10" height="10" transform="rotate(0,450,290)"/><rect x="445" y="335" width="10" height="10" transform="rotate(0,450,340)"/><rect x="445" y="345" width="10" height="10" transform="rotate(0,450,350)"/><rect x="445" y="355" width="10" height="10" transform="rotate(0,450,360)"/><rect x="445" y="425" width="10" height="10" transform="rotate(0,450,430)"/><rect x="445" y="435" width="10" height="10" transform="rotate(0,450,440)"/><rect x="445" y="455" width="10" height="10" transform="rotate(0,450,460)"/><rect x="455" y="105" width="10" height="10" transform="rotate(0,460,110)"/><rect x="455" y="115" width="10" height="10" transform="rotate(0,460,120)"/><rect x="455" y="125" width="10" height="10" transform="rotate(0,460,130)"/><rect x="455" y="155" width="10" height="10" transform="rotate(0,460,160)"/><rect x="455" y="175" width="10" height="10" transform="rotate(0,460,180)"/><rect x="455" y="185" width="10" height="10" transform="rotate(0,460,190)"/><rect x="455" y="265" width="10" height="10" transform="rotate(0,460,270)"/><rect x="455" y="275" width="10" height="10" transform="rotate(0,460,280)"/><rect x="455" y="285" width="10" height="10" transform="rotate(0,460,290)"/><rect x="455" y="295" width="10" height="10" transform="rotate(0,460,300)"/><rect x="455" y="305" width="10" height="10" transform="rotate(0,460,310)"/><rect x="455" y="325" width="10" height="10" transform="rotate(0,460,330)"/><rect x="455" y="335" width="10" height="10" transform="rotate(0,460,340)"/><rect x="455" y="345" width="10" height="10" transform="rotate(0,460,350)"/><rect x="455" y="365" width="10" height="10" transform="rotate(0,460,370)"/><rect x="455" y="385" width="10" height="10" transform="rotate(0,460,390)"/><rect x="455" y="395" width="10" height="10" transform="rotate(0,460,400)"/><rect x="455" y="415" width="10" height="10" transform="rotate(0,460,420)"/><rect x="455" y="425" width="10" height="10" transform="rotate(0,460,430)"/><rect x="455" y="435" width="10" height="10" transform="rotate(0,460,440)"/><rect x="465" y="115" width="10" height="10" transform="rotate(0,470,120)"/><rect x="465" y="155" width="10" height="10" transform="rotate(0,470,160)"/><rect x="465" y="165" width="10" height="10" transform="rotate(0,470,170)"/><rect x="465" y="175" width="10" height="10" transform="rotate(0,470,180)"/><rect x="465" y="185" width="10" height="10" transform="rotate(0,470,190)"/><rect x="465" y="205" width="10" height="10" transform="rotate(0,470,210)"/><rect x="465" y="215" width="10" height="10" transform="rotate(0,470,220)"/><rect x="465" y="245" width="10" height="10" transform="rotate(0,470,250)"/><rect x="465" y="255" width="10" height="10" transform="rotate(0,470,260)"/><rect x="465" y="285" width="10" height="10" transform="rotate(0,470,290)"/><rect x="465" y="295" width="10" height="10" transform="rotate(0,470,300)"/><rect x="465" y="305" width="10" height="10" transform="rotate(0,470,310)"/><rect x="465" y="345" width="10" height="10" transform="rotate(0,470,350)"/><rect x="465" y="355" width="10" height="10" transform="rotate(0,470,360)"/><rect x="465" y="365" width="10" height="10" transform="rotate(0,470,370)"/><rect x="465" y="385" width="10" height="10" transform="rotate(0,470,390)"/><rect x="465" y="415" width="10" height="10" transform="rotate(0,470,420)"/><rect x="465" y="465" width="10" height="10" transform="rotate(0,470,470)"/><path clip-rule="evenodd" d="M 25 25v 70h 70v -70zM 35 35h 50v 50h -50z" transform="rotate(0,60,60)"/><rect x="45" y="45" width="30" height="30" transform="rotate(0,60,60)"/><path clip-rule="evenodd" d="M 405 25v 70h 70v -70zM 415 35h 50v 50h -50z" transform="rotate(90,440,60)"/><rect x="425" y="45" width="30" height="30" transform="rotate(90,440,60)"/><path clip-rule="evenodd" d="M 25 405v 70h 70v -70zM 35 415h 50v 50h -50z" transform="rotate(-90,60,440)"/><rect x="45" y="425" width="30" height="30" transform="rotate(-90,60,440)"/></clipPath></defs><rect x="0" y="0" height="500" width="500" clip-path="url('#clip-path-background-color')" fill="#fff"/><rect x="0" y="0" height="500" width="500" clip-path="url('#clip-path-dot-color')" fill="#000000"/></svg>