<?xml version="1.0" standalone="no"?>
<svg xmlns="http://www.w3.org/2000/svg" width="500" height="500"><defs><clipPath id="clip-path-dot-color"><rect x="25" y="115" width="10" height="10" transform="rotate(0,30,120)"/><rect x="25" y="125" width="10" height="10" transform="rotate(0,30,130)"/><rect x="25" y="175" width="10" height="10" transform="rotate(0,30,180)"/><rect x="25" y="205" width="10" height="10" transform="rotate(0,30,210)"/><rect x="25" y="215" width="10" height="10" transform="rotate(0,30,220)"/><rect x="25" y="235" width="10" height="10" transform="rotate(0,30,240)"/><rect x="25" y="245" width="10" height="10" transform="rotate(0,30,250)"/><rect x="25" y="255" width="10" height="10" transform="rotate(0,30,260)"/><rect x="25" y="275" width="10" height="10" transform="rotate(0,30,280)"/><rect x="25" y="315" width="10" height="10" transform="rotate(0,30,320)"/><rect x="25" y="325" width="10" height="10" transform="rotate(0,30,330)"/><rect x="25" y="335" width="10" height="10" transform="rotate(0,30,340)"/><rect x="25" y="355" width="10" height="10" transform="rotate(0,30,360)"/><rect x="25" y="385" width="10" height="10" transform="rotate(0,30,390)"/><rect x="35" y="105" width="10" height="10" transform="rotate(0,40,110)"/><rect x="35" y="115" width="10" height="10" transform="rotate(0,40,120)"/><rect x="35" y="125" width="10" height="10" transform="rotate(0,40,130)"/><rect x="35" y="135" width="10" height="10" transform="rotate(0,40,140)"/><rect x="35" y="145" width="10" height="10" transform="rotate(0,40,150)"/><rect x="35" y="165" width="10" height="10" transform="rotate(0,40,170)"/><rect x="35" y="175" width="10" height="10" transform="rotate(0,40,180)"/><rect x="35" y="195" width="10" height="10" transform="rotate(0,40,200)"/><rect x="35" y="225" width="10" height="10" transform="rotate(0,40,230)"/><rect x="35" y="255" width="10" height="10" transform="rotate(0,40,260)"/><rect x="35" y="315" width="10" height="10" transform="rotate(0,40,320)"/><rect x="35" y="325" width="10" height="10" transform="rotate(0,40,330)"/><rect x="35" y="345" width="10" height="10" transform="rotate(0,40,350)"/><rect x="35" y="355" width="10" height="10" transform="rotate(0,40,360)"/><rect x="35" y="375" width="10" height="10" transform="rotate(0,40,380)"/><rect x="45" y="105" width="10" height="10" transform="rotate(0,50,110)"/><rect x="45" y="165" width="10" height="10" transform="rotate(0,50,170)"/><rect x="45" y="175" width="10" height="10" transform="rotate(0,50,180)"/><rect x="45" y="195" width="10" height="10" transform="rotate(0,50,200)"/><rect x="45" y="235" width="10" height="10" transform="rotate(0,50,240)"/><rect x="45" y="255" width="10" height="10" transform="rotate(0,50,260)"/><rect x="45" y="275" width="10" height="10" transform="rotate(0,50,280)"/><rect x="45" y="335" width="10" height="10" transform="rotate(0,50,340)"/><rect x="45" y="375" width="10" height="10" transform="rotate(0,50,380)"/><rect x="55" y="115" width="10" height="10" transform="rotate(0,60,120)"/><rect x="55" y="125" width="10" height="10" transform="rotate(0,60,130)"/><rect x="55" y="155" width="10" height="10" transform="rotate(0,60,160)"/><rect x="55" y="175" width="10" height="10" transform="rotate(0,60,180)"/><rect x="55" y="185" width="10" height="10" transform="rotate(0,60,190)"/><rect x="55" y="205" width="10" height="10" transform="rotate(0,60,210)"/><rect x="55" y="235" width="10" height="10" transform="rotate(0,60,240)"/><rect x="55" y="245" width="10" height="10" transform="rotate(0,60,250)"/><rect x="55" y="255" width="10" height="10" transform="rotate(0,60,260)"/><rect x="55" y="265" width="10" height="10" transform="rotate(0,60,270)"/><rect x="55" y="275" width="10" height="10" transform="rotate(0,60,280)"/><rect x="55" y="375" width="10" height="10" transform="rotate(0,60,380)"/><rect x="55" y="385" width="10" height="10" transform="rotate(0,60,390)"/><rect x="65" y="115" width="10" height="10" transform="rotate(0,70,120)"/><rect x="65" y="135" width="10" height="10" transform="rotate(0,70,140)"/><rect x="65" y="145" width="10" height="10" transform="rotate(0,70,150)"/><rect x="65" y="165" width="10" height="10" transform="rotate(0,70,170)"/><rect x="65" y="175" width="10" height="10" transform="rotate(0,70,180)"/><rect x="65" y="185" width="10" height="10" transform="rotate(0,70,190)"/><rect x="65" y="195" width="10" height="10" transform="rotate(0,70,200)"/><rect x="65" y="205" width="10" height="10" transform="rotate(0,70,210)"/><rect x="65" y="215" width="10" height="10" transform="rotate(0,70,220)"/><rect x="65" y="225" width="10" height="10" transform="rotate(0,70,230)"/><rect x="65" y="235" width="10" height="10" transform="rotate(0,70,240)"/><rect x="65" y="245" width="10" height="10" transform="rotate(0,70,250)"/><rect x="65" y="255" width="10" height="10" transform="rotate(0,70,260)"/><rect x="65" y="265" width="10" height="10" transform="rotate(0,70,270)"/><rect x="65" y="285" width="10" height="10" transform="rotate(0,70,290)"/><rect x="65" y="335" width="10" height="10" transform="rotate(0,70,340)"/><rect x="65" y="345" width="10" height="10" transform="rotate(0,70,350)"/><rect x="65" y="355" width="10" height="10" transform="rotate(0,70,360)"/><rect x="65" y="365" width="10" height="10" transform="rotate(0,70,370)"/><rect x="65" y="375" width="10" height="10" transform="rotate(0,70,380)"/><rect x="65" y="385" width="10" height="10" transform="rotate(0,70,390)"/><rect x="75" y="125" width="10" height="10" transform="rotate(0,80,130)"/><rect x="75" y="135" width="10" height="10" transform="rotate(0,80,140)"/><rect x="75" y="145" width="10" height="10" transform="rotate(0,80,150)"/><rect x="75" y="155" width="10" height="10" transform="rotate(0,80,160)"/><rect x="75" y="165" width="10" height="10" transform="rotate(0,80,170)"/><rect x="75" y="175" width="10" height="10" transform="rotate(0,80,180)"/><rect x="75" y="215" width="10" height="10" transform="rotate(0,80,220)"/><rect x="75" y="225" width="10" height="10" transform="rotate(0,80,230)"/><rect x="75" y="265" width="10" height="10" transform="rotate(0,80,270)"/><rect x="75" y="305" width="10" height="10" transform="rotate(0,80,310)"/><rect x="75" y="315" width="10" height="10" transform="rotate(0,80,320)"/><rect x="75" y="325" width="10" height="10" transform="rotate(0,80,330)"/><rect x="75" y="335" width="10" height="10" transform="rotate(0,80,340)"/><rect x="85" y="105" width="10" height="10" transform="rotate(0,90,110)"/><rect x="85" y="125" width="10" height="10" transform="rotate(0,90,130)"/><rect x="85" y="145" width="10" height="10" transform="rotate(0,90,150)"/><rect x="85" y="165" width="10" height="10" transform="rotate(0,90,170)"/><rect x="85" y="185" width="10" height="10" transform="rotate(0,90,190)"/><rect x="85" y="205" width="10" height="10" transform="rotate(0,90,210)"/><rect x="85" y="225" width="10" height="10" transform="rotate(0,90,230)"/><rect x="85" y="245" width="10" height="10" transform="rotate(0,90,250)"/><rect x="85" y="265" width="10" height="10" transform="rotate(0,90,270)"/><rect x="85" y="285" width="10" height="10" transform="rotate(0,90,290)"/><rect x="85" y="305" width="10" height="10" transform="rotate(0,90,310)"/><rect x="85" y="325" width="10" height="10" transform="rotate(0,90,330)"/><rect x="85" y="345" width="10" height="10" transform="rotate(0,90,350)"/><rect x="85" y="365" width="10" height="10" transform="rotate(0,90,370)"/><rect x="85" y="385" width="10" height="10" transform="rotate(0,90,390)"/><rect x="95" y="145" width="10" height="10" transform="rotate(0,100,150)"/><rect x="95" y="165" width="10" height="10" transform="rotate(0,100,170)"/><rect x="95" y="175" width="10" height="10" transform="rotate(0,100,180)"/><rect x="95" y="185" width="10" height="10" transform="rotate(0,100,190)"/><rect x="95" y="205" width="10" height="10" transform="rotate(0,100,210)"/><rect x="95" y="215" width="10" height="10" transform="rotate(0,100,220)"/><rect x="95" y="225" width="10" height="10" transform="rotate(0,100,230)"/><rect x="95" y="265" width="10" height="10" transform="rotate(0,100,270)"/><rect x="95" y="275" width="10" height="10" transform="rotate(0,100,280)"/><rect x="95" y="305" width="10" height="10" transform="rotate(0,100,310)"/><rect x="95" y="315" width="10" height="10" transform="rotate(0,100,320)"/><rect x="95" y="335" width="10" height="10" transform="rotate(0,100,340)"/><rect x="105" y="35" width="10" height="10" transform="rotate(0,110,40)"/><rect x="105" y="45" width="10" height="10" transform="rotate(0,110,50)"/><rect x="105" y="55" width="10" height="10" transform="rotate(0,110,60)"/><rect x="105" y="75" width="10" height="10" transform="rotate(0,110,80)"/><rect x="105" y="85" width="10" height="10" transform="rotate(0,110,90)"/><rect x="105" y="125" width="10" height="10" transform="rotate(0,110,130)"/><rect x="105" y="135" width="10" height="10" transform="rotate(0,110,140)"/><rect x="105" y="165" width="10" height="10" transform="rotate(0,110,170)"/><rect x="105" y="185" width="10" height="10" transform="rotate(0,110,190)"/><rect x="105" y="215" width="10" height="10" transform="rotate(0,110,220)"/><rect x="105" y="225" width="10" height="10" transform="rotate(0,110,230)"/><rect x="105" y="235" width="10" height="10" transform="rotate(0,110,240)"/><rect x="105" y="245" width="10" height="10" transform="rotate(0,110,250)"/><rect x="105" y="255" width="10" height="10" transform="rotate(0,110,260)"/><rect x="105" y="265" width="10" height="10" transform="rotate(0,110,270)"/><rect x="105" y="305" width="10" height="10" transform="rotate(0,110,310)"/><rect x="105" y="315" width="10" height="10" transform="rotate(0,110,320)"/><rect x="105" y="325" width="10" height="10" transform="rotate(0,110,330)"/><rect x="105" y="355" width="10" height="10" transform="rotate(0,110,360)"/><rect x="105" y="365" width="10" height="10" transform="rotate(0,110,370)"/><rect x="105" y="385" width="10" height="10" transform="rotate(0,110,390)"/><rect x="105" y="445" width="10" height="10" transform="rotate(0,110,450)"/><rect x="105" y="455" width="10" height="10" transform="rotate(0,110,460)"/><rect x="115" y="55" width="10" height="10" transform="rotate(0,120,60)"/><rect x="115" y="125" width="10" height="10" transform="rotate(0,120,130)"/><rect x="115" y="135" width="10" height="10" transform="rotate(0,120,140)"/><rect x="115" y="145" width="10" height="10" transform="rotate(0,120,150)"/><rect x="115" y="155" width="10" height="10" transform="rotate(0,120,160)"/><rect x="115" y="165" width="10" height="10" transform="rotate(0,120,170)"/><rect x="115" y="175" width="10" height="10" transform="rotate(0,120,180)"/><rect x="115" y="185" width="10" height="10" transform="rotate(0,120,190)"/><rect x="115" y="205" width="10" height="10" transform="rotate(0,120,210)"/><rect x="115" y="255" width="10" height="10" transform="rotate(0,120,260)"/><rect x="115" y="265" width="10" height="10" transform="rotate(0,120,270)"/><rect x="115" y="275" width="10" height="10" transform="rotate(0,120,280)"/><rect x="115" y="295" width="10" height="10" transform="rotate(0,120,300)"/><rect x="115" y="315" width="10" height="10" transform="rotate(0,120,320)"/><rect x="115" y="325" width="10" height="10" transform="rotate(0,120,330)"/><rect x="115" y="335" width="10" height="10" transform="rotate(0,120,340)"/><rect x="115" y="385" width="10" height="10" transform="rotate(0,120,390)"/><rect x="115" y="395" width="10" height="10" transform="rotate(0,120,400)"/><rect x="115" y="415" width="10" height="10" transform="rotate(0,120,420)"/><rect x="115" y="435" width="10" height="10" transform="rotate(0,120,440)"/><rect x="115" y="445" width="10" height="10" transform="rotate(0,120,450)"/><rect x="115" y="465" width="10" height="10" transform="rotate(0,120,470)"/><rect x="125" y="35" width="10" height="10" transform="rotate(0,130,40)"/><rect x="125" y="65" width="10" height="10" transform="rotate(0,130,70)"/><rect x="125" y="85" width="10" height="10" transform="rotate(0,130,90)"/><rect x="125" y="95" width="10" height="10" transform="rotate(0,130,100)"/><rect x="125" y="135" width="10" height="10" transform="rotate(0,130,140)"/><rect x="125" y="165" width="10" height="10" transform="rotate(0,130,170)"/><rect x="125" y="195" width="10" height="10" transform="rotate(0,130,200)"/><rect x="125" y="205" width="10" height="10" transform="rotate(0,130,210)"/><rect x="125" y="225" width="10" height="10" transform="rotate(0,130,230)"/><rect x="125" y="235" width="10" height="10" transform="rotate(0,130,240)"/><rect x="125" y="245" width="10" height="10" transform="rotate(0,130,250)"/><rect x="125" y="255" width="10" height="10" transform="rotate(0,130,260)"/><rect x="125" y="265" width="10" height="10" transform="rotate(0,130,270)"/><rect x="125" y="275" width="10" height="10" transform="rotate(0,130,280)"/><rect x="125" y="295" width="10" height="10" transform="rotate(0,130,300)"/><rect x="125" y="325" width="10" height="10" transform="rotate(0,130,330)"/><rect x="125" y="335" width="10" height="10" transform="rotate(0,130,340)"/><rect x="125" y="365" width="10" height="10" transform="rotate(0,130,370)"/><rect x="125" y="375" width="10" height="10" transform="rotate(0,130,380)"/><rect x="125" y="395" width="10" height="10" transform="rotate(0,130,400)"/><rect x="125" y="415" width="10" height="10" transform="rotate(0,130,420)"/><rect x="125" y="455" width="10" height="10" transform="rotate(0,130,460)"/><rect x="125" y="465" width="10" height="10" transform="rotate(0,130,470)"/><rect x="135" y="25" width="10" height="10" transform="rotate(0,140,30)"/><rect x="135" y="35" width="10" height="10" transform="rotate(0,140,40)"/><rect x="135" y="45" width="10" height="10" transform="rotate(0,140,50)"/><rect x="135" y="55" width="10" height="10" transform="rotate(0,140,60)"/><rect x="135" y="65" width="10" height="10" transform="rotate(0,140,70)"/><rect x="135" y="95" width="10" height="10" transform="rotate(0,140,100)"/><rect x="135" y="115" width="10" height="10" transform="rotate(0,140,120)"/><rect x="135" y="125" width="10" height="10" transform="rotate(0,140,130)"/><rect x="135" y="135" width="10" height="10" transform="rotate(0,140,140)"/><rect x="135" y="145" width="10" height="10" transform="rotate(0,140,150)"/><rect x="135" y="165" width="10" height="10" transform="rotate(0,140,170)"/><rect x="135" y="225" width="10" height="10" transform="rotate(0,140,230)"/><rect x="135" y="235" width="10" height="10" transform="rotate(0,140,240)"/><rect x="135" y="265" width="10" height="10" transform="rotate(0,140,270)"/><rect x="135" y="315" width="10" height="10" transform="rotate(0,140,320)"/><rect x="135" y="335" width="10" height="10" transform="rotate(0,140,340)"/><rect x="135" y="345" width="10" height="10" transform="rotate(0,140,350)"/><rect x="135" y="355" width="10" height="10" transform="rotate(0,140,360)"/><rect x="135" y="365" width="10" height="10" transform="rotate(0,140,370)"/><rect x="135" y="375" width="10" height="10" transform="rotate(0,140,380)"/><rect x="135" y="435" width="10" height="10" transform="rotate(0,140,440)"/><rect x="135" y="455" width="10" height="10" transform="rotate(0,140,460)"/><rect x="135" y="465" width="10" height="10" transform="rotate(0,140,470)"/><rect x="145" y="35" width="10" height="10" transform="rotate(0,150,40)"/><rect x="145" y="45" width="10" height="10" transform="rotate(0,150,50)"/><rect x="145" y="55" width="10" height="10" transform="rotate(0,150,60)"/><rect x="145" y="75" width="10" height="10" transform="rotate(0,150,80)"/><rect x="145" y="85" width="10" height="10" transform="rotate(0,150,90)"/><rect x="145" y="95" width="10" height="10" transform="rotate(0,150,100)"/><rect x="145" y="105" width="10" height="10" transform="rotate(0,150,110)"/><rect x="145" y="115" width="10" height="10" transform="rotate(0,150,120)"/><rect x="145" y="135" width="10" height="10" transform="rotate(0,150,140)"/><rect x="145" y="145" width="10" height="10" transform="rotate(0,150,150)"/><rect x="145" y="175" width="10" height="10" transform="rotate(0,150,180)"/><rect x="145" y="185" width="10" height="10" transform="rotate(0,150,190)"/><rect x="145" y="195" width="10" height="10" transform="rotate(0,150,200)"/><rect x="145" y="205" width="10" height="10" transform="rotate(0,150,210)"/><rect x="145" y="225" width="10" height="10" transform="rotate(0,150,230)"/><rect x="145" y="235" width="10" height="10" transform="rotate(0,150,240)"/><rect x="145" y="275" width="10" height="10" transform="rotate(0,150,280)"/><rect x="145" y="325" width="10" height="10" transform="rotate(0,150,330)"/><rect x="145" y="335" width="10" height="10" transform="rotate(0,150,340)"/><rect x="155" y="35" width="10" height="10" transform="rotate(0,160,40)"/><rect x="155" y="65" width="10" height="10" transform="rotate(0,160,70)"/><rect x="155" y="95" width="10" height="10" transform="rotate(0,160,100)"/><rect x="155" y="135" width="10" height="10" transform="rotate(0,160,140)"/><rect x="155" y="155" width="10" height="10" transform="rotate(0,160,160)"/><rect x="155" y="215" width="10" height="10" transform="rotate(0,160,220)"/><rect x="155" y="225" width="10" height="10" transform="rotate(0,160,230)"/><rect x="155" y="245" width="10" height="10" transform="rotate(0,160,250)"/><rect x="155" y="275" width="10" height="10" transform="rotate(0,160,280)"/><rect x="155" y="285" width="10" height="10" transform="rotate(0,160,290)"/><rect x="155" y="305" width="10" height="10" transform="rotate(0,160,310)"/><rect x="155" y="315" width="10" height="10" transform="rotate(0,160,320)"/><rect x="155" y="335" width="10" height="10" transform="rotate(0,160,340)"/><rect x="155" y="345" width="10" height="10" transform="rotate(0,160,350)"/><rect x="155" y="395" width="10" height="10" transform="rotate(0,160,400)"/><rect x="155" y="405" width="10" height="10" transform="rotate(0,160,410)"/><rect x="155" y="415" width="10" height="10" transform="rotate(0,160,420)"/><rect x="155" y="425" width="10" height="10" transform="rotate(0,160,430)"/><rect x="155" y="435" width="10" height="10" transform="rotate(0,160,440)"/><rect x="155" y="445" width="10" height="10" transform="rotate(0,160,450)"/><rect x="165" y="55" width="10" height="10" transform="rotate(0,170,60)"/><rect x="165" y="65" width="10" height="10" transform="rotate(0,170,70)"/><rect x="165" y="75" width="10" height="10" transform="rotate(0,170,80)"/><rect x="165" y="85" width="10" height="10" transform="rotate(0,170,90)"/><rect x="165" y="95" width="10" height="10" transform="rotate(0,170,100)"/><rect x="165" y="115" width="10" height="10" transform="rotate(0,170,120)"/><rect x="165" y="125" width="10" height="10" transform="rotate(0,170,130)"/><rect x="165" y="155" width="10" height="10" transform="rotate(0,170,160)"/><rect x="165" y="175" width="10" height="10" transform="rotate(0,170,180)"/><rect x="165" y="225" width="10" height="10" transform="rotate(0,170,230)"/><rect x="165" y="245" width="10" height="10" transform="rotate(0,170,250)"/><rect x="165" y="255" width="10" height="10" transform="rotate(0,170,260)"/><rect x="165" y="265" width="10" height="10" transform="rotate(0,170,270)"/><rect x="165" y="275" width="10" height="10" transform="rotate(0,170,280)"/><rect x="165" y="285" width="10" height="10" transform="rotate(0,170,290)"/><rect x="165" y="295" width="10" height="10" transform="rotate(0,170,300)"/><rect x="165" y="325" width="10" height="10" transform="rotate(0,170,330)"/><rect x="165" y="375" width="10" height="10" transform="rotate(0,170,380)"/><rect x="165" y="385" width="10" height="10" transform="rotate(0,170,390)"/><rect x="165" y="395" width="10" height="10" transform="rotate(0,170,400)"/><rect x="165" y="405" width="10" height="10" transform="rotate(0,170,410)"/><rect x="165" y="415" width="10" height="10" transform="rotate(0,170,420)"/><rect x="165" y="425" width="10" height="10" transform="rotate(0,170,430)"/><rect x="165" y="435" width="10" height="10" transform="rotate(0,170,440)"/><rect x="165" y="445" width="10" height="10" transform="rotate(0,170,450)"/><rect x="175" y="45" width="10" height="10" transform="rotate(0,180,50)"/><rect x="175" y="55" width="10" height="10" transform="rotate(0,180,60)"/><rect x="175" y="75" width="10" height="10" transform="rotate(0,180,80)"/><rect x="175" y="125" width="10" height="10" transform="rotate(0,180,130)"/><rect x="175" y="155" width="10" height="10" transform="rotate(0,180,160)"/><rect x="175" y="185" width="10" height="10" transform="rotate(0,180,190)"/><rect x="175" y="195" width="10" height="10" transform="rotate(0,180,200)"/><rect x="175" y="225" width="10" height="10" transform="rotate(0,180,230)"/><rect x="175" y="285" width="10" height="10" transform="rotate(0,180,290)"/><rect x="175" y="295" width="10" height="10" transform="rotate(0,180,300)"/><rect x="175" y="305" width="10" height="10" transform="rotate(0,180,310)"/><rect x="175" y="325" width="10" height="10" transform="rotate(0,180,330)"/><rect x="175" y="335" width="10" height="10" transform="rotate(0,180,340)"/><rect x="175" y="345" width="10" height="10" transform="rotate(0,180,350)"/><rect x="175" y="355" width="10" height="10" transform="rotate(0,180,360)"/><rect x="175" y="365" width="10" height="10" transform="rotate(0,180,370)"/><rect x="175" y="385" width="10" height="10" transform="rotate(0,180,390)"/><rect x="175" y="425" width="10" height="10" transform="rotate(0,180,430)"/><rect x="175" y="435" width="10" height="10" transform="rotate(0,180,440)"/><rect x="175" y="445" width="10" height="10" transform="rotate(0,180,450)"/><rect x="185" y="25" width="10" height="10" transform="rotate(0,190,30)"/><rect x="185" y="45" width="10" height="10" transform="rotate(0,190,50)"/><rect x="185" y="75" width="10" height="10" transform="rotate(0,190,80)"/><rect x="185" y="85" width="10" height="10" transform="rotate(0,190,90)"/><rect x="185" y="105" width="10" height="10" transform="rotate(0,190,110)"/><rect x="185" y="115" width="10" height="10" transform="rotate(0,190,120)"/><rect x="185" y="125" width="10" height="10" transform="rotate(0,190,130)"/><rect x="185" y="165" width="10" height="10" transform="rotate(0,190,170)"/><rect x="185" y="175" width="10" height="10" transform="rotate(0,190,180)"/><rect x="185" y="265" width="10" height="10" transform="rotate(0,190,270)"/><rect x="185" y="275" width="10" height="10" transform="rotate(0,190,280)"/><rect x="185" y="295" width="10" height="10" transform="rotate(0,190,300)"/><rect x="185" y="325" width="10" height="10" transform="rotate(0,190,330)"/><rect x="185" y="335" width="10" height="10" transform="rotate(0,190,340)"/><rect x="185" y="345" width="10" height="10" transform="rotate(0,190,350)"/><rect x="185" y="365" width="10" height="10" transform="rotate(0,190,370)"/><rect x="185" y="385" width="10" height="10" transform="rotate(0,190,390)"/><rect x="185" y="405" width="10" height="10" transform="rotate(0,190,410)"/><rect x="185" y="415" width="10" height="10" transform="rotate(0,190,420)"/><rect x="185" y="435" width="10" height="10" transform="rotate(0,190,440)"/><rect x="185" y="445" width="10" height="10" transform="rotate(0,190,450)"/><rect x="185" y="465" width="10" height="10" transform="rotate(0,190,470)"/><rect x="195" y="35" width="10" height="10" transform="rotate(0,200,40)"/><rect x="195" y="45" width="10" height="10" transform="rotate(0,200,50)"/><rect x="195" y="65" width="10" height="10" transform="rotate(0,200,70)"/><rect x="195" y="75" width="10" height="10" transform="rotate(0,200,80)"/><rect x="195" y="115" width="10" height="10" transform="rotate(0,200,120)"/><rect x="195" y="125" width="10" height="10" transform="rotate(0,200,130)"/><rect x="195" y="135" width="10" height="10" transform="rotate(0,200,140)"/><rect x="195" y="145" width="10" height="10" transform="rotate(0,200,150)"/><rect x="195" y="155" width="10" height="10" transform="rotate(0,200,160)"/><rect x="195" y="175" width="10" height="10" transform="rotate(0,200,180)"/><rect x="195" y="195" width="10" height="10" transform="rotate(0,200,200)"/><rect x="195" y="215" width="10" height="10" transform="rotate(0,200,220)"/><rect x="195" y="225" width="10" height="10" transform="rotate(0,200,230)"/><rect x="195" y="245" width="10" height="10" transform="rotate(0,200,250)"/><rect x="195" y="255" width="10" height="10" transform="rotate(0,200,260)"/><rect x="195" y="265" width="10" height="10" transform="rotate(0,200,270)"/><rect x="195" y="305" width="10" height="10" transform="rotate(0,200,310)"/><rect x="195" y="315" width="10" height="10" transform="rotate(0,200,320)"/><rect x="195" y="365" width="10" height="10" transform="rotate(0,200,370)"/><rect x="195" y="395" width="10" height="10" transform="rotate(0,200,400)"/><rect x="195" y="455" width="10" height="10" transform="rotate(0,200,460)"/><rect x="195" y="465" width="10" height="10" transform="rotate(0,200,470)"/><rect x="205" y="55" width="10" height="10" transform="rotate(0,210,60)"/><rect x="205" y="65" width="10" height="10" transform="rotate(0,210,70)"/><rect x="205" y="75" width="10" height="10" transform="rotate(0,210,80)"/><rect x="205" y="85" width="10" height="10" transform="rotate(0,210,90)"/><rect x="205" y="95" width="10" height="10" transform="rotate(0,210,100)"/><rect x="205" y="105" width="10" height="10" transform="rotate(0,210,110)"/><rect x="205" y="125" width="10" height="10" transform="rotate(0,210,130)"/><rect x="205" y="135" width="10" height="10" transform="rotate(0,210,140)"/><rect x="205" y="155" width="10" height="10" transform="rotate(0,210,160)"/><rect x="205" y="185" width="10" height="10" transform="rotate(0,210,190)"/><rect x="205" y="215" width="10" height="10" transform="rotate(0,210,220)"/><rect x="205" y="225" width="10" height="10" transform="rotate(0,210,230)"/><rect x="205" y="235" width="10" height="10" transform="rotate(0,210,240)"/><rect x="205" y="245" width="10" height="10" transform="rotate(0,210,250)"/><rect x="205" y="255" width="10" height="10" transform="rotate(0,210,260)"/><rect x="205" y="285" width="10" height="10" transform="rotate(0,210,290)"/><rect x="205" y="305" width="10" height="10" transform="rotate(0,210,310)"/><rect x="205" y="315" width="10" height="10" transform="rotate(0,210,320)"/><rect x="205" y="335" width="10" height="10" transform="rotate(0,210,340)"/><rect x="205" y="355" width="10" height="10" transform="rotate(0,210,360)"/><rect x="205" y="365" width="10" height="10" transform="rotate(0,210,370)"/><rect x="205" y="375" width="10" height="10" transform="rotate(0,210,380)"/><rect x="205" y="405" width="10" height="10" transform="rotate(0,210,410)"/><rect x="205" y="415" width="10" height="10" transform="rotate(0,210,420)"/><rect x="205" y="455" width="10" height="10" transform="rotate(0,210,460)"/><rect x="215" y="25" width="10" height="10" transform="rotate(0,220,30)"/><rect x="215" y="45" width="10" height="10" transform="rotate(0,220,50)"/><rect x="215" y="95" width="10" height="10" transform="rotate(0,220,100)"/><rect x="215" y="115" width="10" height="10" transform="rotate(0,220,120)"/><rect x="215" y="125" width="10" height="10" transform="rotate(0,220,130)"/><rect x="215" y="155" width="10" height="10" transform="rotate(0,220,160)"/><rect x="215" y="175" width="10" height="10" transform="rotate(0,220,180)"/><rect x="215" y="195" width="10" height="10" transform="rotate(0,220,200)"/><rect x="215" y="205" width="10" height="10" transform="rotate(0,220,210)"/><rect x="215" y="215" width="10" height="10" transform="rotate(0,220,220)"/><rect x="215" y="245" width="10" height="10" transform="rotate(0,220,250)"/><rect x="215" y="255" width="10" height="10" transform="rotate(0,220,260)"/><rect x="215" y="265" width="10" height="10" transform="rotate(0,220,270)"/><rect x="215" y="275" width="10" height="10" transform="rotate(0,220,280)"/><rect x="215" y="325" width="10" height="10" transform="rotate(0,220,330)"/><rect x="215" y="335" width="10" height="10" transform="rotate(0,220,340)"/><rect x="215" y="375" width="10" height="10" transform="rotate(0,220,380)"/><rect x="215" y="395" width="10" height="10" transform="rotate(0,220,400)"/><rect x="215" y="425" width="10" height="10" transform="rotate(0,220,430)"/><rect x="215" y="435" width="10" height="10" transform="rotate(0,220,440)"/><rect x="215" y="455" width="10" height="10" transform="rotate(0,220,460)"/><rect x="215" y="465" width="10" height="10" transform="rotate(0,220,470)"/><rect x="225" y="35" width="10" height="10" transform="rotate(0,230,40)"/><rect x="225" y="45" width="10" height="10" transform="rotate(0,230,50)"/><rect x="225" y="65" width="10" height="10" transform="rotate(0,230,70)"/><rect x="225" y="75" width="10" height="10" transform="rotate(0,230,80)"/><rect x="225" y="85" width="10" height="10" transform="rotate(0,230,90)"/><rect x="225" y="95" width="10" height="10" transform="rotate(0,230,100)"/><rect x="225" y="105" width="10" height="10" transform="rotate(0,230,110)"/><rect x="225" y="125" width="10" height="10" transform="rotate(0,230,130)"/><rect x="225" y="135" width="10" height="10" transform="rotate(0,230,140)"/><rect x="225" y="165" width="10" height="10" transform="rotate(0,230,170)"/><rect x="225" y="195" width="10" height="10" transform="rotate(0,230,200)"/><rect x="225" y="215" width="10" height="10" transform="rotate(0,230,220)"/><rect x="225" y="225" width="10" height="10" transform="rotate(0,230,230)"/><rect x="225" y="235" width="10" height="10" transform="rotate(0,230,240)"/><rect x="225" y="245" width="10" height="10" transform="rotate(0,230,250)"/><rect x="225" y="255" width="10" height="10" transform="rotate(0,230,260)"/><rect x="225" y="265" width="10" height="10" transform="rotate(0,230,270)"/><rect x="225" y="275" width="10" height="10" transform="rotate(0,230,280)"/><rect x="225" y="285" width="10" height="10" transform="rotate(0,230,290)"/><rect x="225" y="295" width="10" height="10" transform="rotate(0,230,300)"/><rect x="225" y="325" width="10" height="10" transform="rotate(0,230,330)"/><rect x="225" y="355" width="10" height="10" transform="rotate(0,230,360)"/><rect x="225" y="385" width="10" height="10" transform="rotate(0,230,390)"/><rect x="225" y="395" width="10" height="10" transform="rotate(0,230,400)"/><rect x="225" y="405" width="10" height="10" transform="rotate(0,230,410)"/><rect x="225" y="415" width="10" height="10" transform="rotate(0,230,420)"/><rect x="225" y="425" width="10" height="10" transform="rotate(0,230,430)"/><rect x="225" y="445" width="10" height="10" transform="rotate(0,230,450)"/><rect x="225" y="455" width="10" height="10" transform="rotate(0,230,460)"/><rect x="235" y="25" width="10" height="10" transform="rotate(0,240,30)"/><rect x="235" y="45" width="10" height="10" transform="rotate(0,240,50)"/><rect x="235" y="65" width="10" height="10" transform="rotate(0,240,70)"/><rect x="235" y="105" width="10" height="10" transform="rotate(0,240,110)"/><rect x="235" y="135" width="10" height="10" transform="rotate(0,240,140)"/><rect x="235" y="145" width="10" height="10" transform="rotate(0,240,150)"/><rect x="235" y="165" width="10" height="10" transform="rotate(0,240,170)"/><rect x="235" y="185" width="10" height="10" transform="rotate(0,240,190)"/><rect x="235" y="195" width="10" height="10" transform="rotate(0,240,200)"/><rect x="235" y="205" width="10" height="10" transform="rotate(0,240,210)"/><rect x="235" y="225" width="10" height="10" transform="rotate(0,240,230)"/><rect x="235" y="265" width="10" height="10" transform="rotate(0,240,270)"/><rect x="235" y="275" width="10" height="10" transform="rotate(0,240,280)"/><rect x="235" y="285" width="10" height="10" transform="rotate(0,240,290)"/><rect x="235" y="295" width="10" height="10" transform="rotate(0,240,300)"/><rect x="235" y="305" width="10" height="10" transform="rotate(0,240,310)"/><rect x="235" y="315" width="10" height="10" transform="rotate(0,240,320)"/><rect x="235" y="335" width="10" height="10" transform="rotate(0,240,340)"/><rect x="235" y="375" width="10" height="10" transform="rotate(0,240,380)"/><rect x="235" y="385" width="10" height="10" transform="rotate(0,240,390)"/><rect x="235" y="425" width="10" height="10" transform="rotate(0,240,430)"/><rect x="235" y="455" width="10" height="10" transform="rotate(0,240,460)"/><rect x="235" y="465" width="10" height="10" transform="rotate(0,240,470)"/><rect x="245" y="65" width="10" height="10" transform="rotate(0,250,70)"/><rect x="245" y="85" width="10" height="10" transform="rotate(0,250,90)"/><rect x="245" y="105" width="10" height="10" transform="rotate(0,250,110)"/><rect x="245" y="155" width="10" height="10" transform="rotate(0,250,160)"/><rect x="245" y="165" width="10" height="10" transform="rotate(0,250,170)"/><rect x="245" y="195" width="10" height="10" transform="rotate(0,250,200)"/><rect x="245" y="215" width="10" height="10" transform="rotate(0,250,220)"/><rect x="245" y="225" width="10" height="10" transform="rotate(0,250,230)"/><rect x="245" y="245" width="10" height="10" transform="rotate(0,250,250)"/><rect x="245" y="265" width="10" height="10" transform="rotate(0,250,270)"/><rect x="245" y="285" width="10" height="10" transform="rotate(0,250,290)"/><rect x="245" y="295" width="10" height="10" transform="rotate(0,250,300)"/><rect x="245" y="305" width="10" height="10" transform="rotate(0,250,310)"/><rect x="245" y="315" width="10" height="10" transform="rotate(0,250,320)"/><rect x="245" y="335" width="10" height="10" transform="rotate(0,250,340)"/><rect x="245" y="345" width="10" height="10" transform="rotate(0,250,350)"/><rect x="245" y="365" width="10" height="10" transform="rotate(0,250,370)"/><rect x="245" y="385" width="10" height="10" transform="rotate(0,250,390)"/><rect x="245" y="405" width="10" height="10" transform="rotate(0,250,410)"/><rect x="245" y="425" width="10" height="10" transform="rotate(0,250,430)"/><rect x="245" y="435" width="10" height="10" transform="rotate(0,250,440)"/><rect x="245" y="455" width="10" height="10" transform="rotate(0,250,460)"/><rect x="245" y="465" width="10" height="10" transform="rotate(0,250,470)"/><rect x="255" y="35" width="10" height="10" transform="rotate(0,260,40)"/><rect x="255" y="65" width="10" height="10" transform="rotate(0,260,70)"/><rect x="255" y="105" width="10" height="10" transform="rotate(0,260,110)"/><rect x="255" y="115" width="10" height="10" transform="rotate(0,260,120)"/><rect x="255" y="135" width="10" height="10" transform="rotate(0,260,140)"/><rect x="255" y="145" width="10" height="10" transform="rotate(0,260,150)"/><rect x="255" y="195" width="10" height="10" transform="rotate(0,260,200)"/><rect x="255" y="215" width="10" height="10" transform="rotate(0,260,220)"/><rect x="255" y="225" width="10" height="10" transform="rotate(0,260,230)"/><rect x="255" y="265" width="10" height="10" transform="rotate(0,260,270)"/><rect x="255" y="275" width="10" height="10" transform="rotate(0,260,280)"/><rect x="255" y="315" width="10" height="10" transform="rotate(0,260,320)"/><rect x="255" y="325" width="10" height="10" transform="rotate(0,260,330)"/><rect x="255" y="335" width="10" height="10" transform="rotate(0,260,340)"/><rect x="255" y="345" width="10" height="10" transform="rotate(0,260,350)"/><rect x="255" y="355" width="10" height="10" transform="rotate(0,260,360)"/><rect x="255" y="385" width="10" height="10" transform="rotate(0,260,390)"/><rect x="255" y="425" width="10" height="10" transform="rotate(0,260,430)"/><rect x="255" y="435" width="10" height="10" transform="rotate(0,260,440)"/><rect x="265" y="55" width="10" height="10" transform="rotate(0,270,60)"/><rect x="265" y="65" width="10" height="10" transform="rotate(0,270,70)"/><rect x="265" y="75" width="10" height="10" transform="rotate(0,270,80)"/><rect x="265" y="85" width="10" height="10" transform="rotate(0,270,90)"/><rect x="265" y="95" width="10" height="10" transform="rotate(0,270,100)"/><rect x="265" y="105" width="10" height="10" transform="rotate(0,270,110)"/><rect x="265" y="115" width="10" height="10" transform="rotate(0,270,120)"/><rect x="265" y="125" width="10" height="10" transform="rotate(0,270,130)"/><rect x="265" y="155" width="10" height="10" transform="rotate(0,270,160)"/><rect x="265" y="165" width="10" height="10" transform="rotate(0,270,170)"/><rect x="265" y="185" width="10" height="10" transform="rotate(0,270,190)"/><rect x="265" y="205" width="10" height="10" transform="rotate(0,270,210)"/><rect x="265" y="215" width="10" height="10" transform="rotate(0,270,220)"/><rect x="265" y="225" width="10" height="10" transform="rotate(0,270,230)"/><rect x="265" y="235" width="10" height="10" transform="rotate(0,270,240)"/><rect x="265" y="245" width="10" height="10" transform="rotate(0,270,250)"/><rect x="265" y="255" width="10" height="10" transform="rotate(0,270,260)"/><rect x="265" y="265" width="10" height="10" transform="rotate(0,270,270)"/><rect x="265" y="275" width="10" height="10" transform="rotate(0,270,280)"/><rect x="265" y="315" width="10" height="10" transform="rotate(0,270,320)"/><rect x="265" y="325" width="10" height="10" transform="rotate(0,270,330)"/><rect x="265" y="335" width="10" height="10" transform="rotate(0,270,340)"/><rect x="265" y="365" width="10" height="10" transform="rotate(0,270,370)"/><rect x="265" y="385" width="10" height="10" transform="rotate(0,270,390)"/><rect x="265" y="395" width="10" height="10" transform="rotate(0,270,400)"/><rect x="265" y="405" width="10" height="10" transform="rotate(0,270,410)"/><rect x="265" y="415" width="10" height="10" transform="rotate(0,270,420)"/><rect x="265" y="425" width="10" height="10" transform="rotate(0,270,430)"/><rect x="265" y="435" width="10" height="10" transform="rotate(0,270,440)"/><rect x="265" y="455" width="10" height="10" transform="rotate(0,270,460)"/><rect x="275" y="45" width="10" height="10" transform="rotate(0,280,50)"/><rect x="275" y="55" width="10" height="10" transform="rotate(0,280,60)"/><rect x="275" y="95" width="10" height="10" transform="rotate(0,280,100)"/><rect x="275" y="115" width="10" height="10" transform="rotate(0,280,120)"/><rect x="275" y="145" width="10" height="10" transform="rotate(0,280,150)"/><rect x="275" y="175" width="10" height="10" transform="rotate(0,280,180)"/><rect x="275" y="205" width="10" height="10" transform="rotate(0,280,210)"/><rect x="275" y="215" width="10" height="10" transform="rotate(0,280,220)"/><rect x="275" y="225" width="10" height="10" transform="rotate(0,280,230)"/><rect x="275" y="235" width="10" height="10" transform="rotate(0,280,240)"/><rect x="275" y="255" width="10" height="10" transform="rotate(0,280,260)"/><rect x="275" y="265" width="10" height="10" transform="rotate(0,280,270)"/><rect x="275" y="295" width="10" height="10" transform="rotate(0,280,300)"/><rect x="275" y="335" width="10" height="10" transform="rotate(0,280,340)"/><rect x="275" y="355" width="10" height="10" transform="rotate(0,280,360)"/><rect x="275" y="395" width="10" height="10" transform="rotate(0,280,400)"/><rect x="275" y="405" width="10" height="10" transform="rotate(0,280,410)"/><rect x="275" y="415" width="10" height="10" transform="rotate(0,280,420)"/><rect x="275" y="435" width="10" height="10" transform="rotate(0,280,440)"/><rect x="275" y="445" width="10" height="10" transform="rotate(0,280,450)"/><rect x="285" y="45" width="10" height="10" transform="rotate(0,290,50)"/><rect x="285" y="65" width="10" height="10" transform="rotate(0,290,70)"/><rect x="285" y="75" width="10" height="10" transform="rotate(0,290,80)"/><rect x="285" y="85" width="10" height="10" transform="rotate(0,290,90)"/><rect x="285" y="125" width="10" height="10" transform="rotate(0,290,130)"/><rect x="285" y="135" width="10" height="10" transform="rotate(0,290,140)"/><rect x="285" y="155" width="10" height="10" transform="rotate(0,290,160)"/><rect x="285" y="195" width="10" height="10" transform="rotate(0,290,200)"/><rect x="285" y="205" width="10" height="10" transform="rotate(0,290,210)"/><rect x="285" y="215" width="10" height="10" transform="rotate(0,290,220)"/><rect x="285" y="275" width="10" height="10" transform="rotate(0,290,280)"/><rect x="285" y="295" width="10" height="10" transform="rotate(0,290,300)"/><rect x="285" y="305" width="10" height="10" transform="rotate(0,290,310)"/><rect x="285" y="315" width="10" height="10" transform="rotate(0,290,320)"/><rect x="285" y="325" width="10" height="10" transform="rotate(0,290,330)"/><rect x="285" y="345" width="10" height="10" transform="rotate(0,290,350)"/><rect x="285" y="355" width="10" height="10" transform="rotate(0,290,360)"/><rect x="285" y="415" width="10" height="10" transform="rotate(0,290,420)"/><rect x="285" y="435" width="10" height="10" transform="rotate(0,290,440)"/><rect x="295" y="45" width="10" height="10" transform="rotate(0,300,50)"/><rect x="295" y="65" width="10" height="10" transform="rotate(0,300,70)"/><rect x="295" y="105" width="10" height="10" transform="rotate(0,300,110)"/><rect x="295" y="115" width="10" height="10" transform="rotate(0,300,120)"/><rect x="295" y="125" width="10" height="10" transform="rotate(0,300,130)"/><rect x="295" y="135" width="10" height="10" transform="rotate(0,300,140)"/><rect x="295" y="165" width="10" height="10" transform="rotate(0,300,170)"/><rect x="295" y="185" width="10" height="10" transform="rotate(0,300,190)"/><rect x="295" y="205" width="10" height="10" transform="rotate(0,300,210)"/><rect x="295" y="215" width="10" height="10" transform="rotate(0,300,220)"/><rect x="295" y="235" width="10" height="10" transform="rotate(0,300,240)"/><rect x="295" y="245" width="10" height="10" transform="rotate(0,300,250)"/><rect x="295" y="265" width="10" height="10" transform="rotate(0,300,270)"/><rect x="295" y="275" width="10" height="10" transform="rotate(0,300,280)"/><rect x="295" y="285" width="10" height="10" transform="rotate(0,300,290)"/><rect x="295" y="305" width="10" height="10" transform="rotate(0,300,310)"/><rect x="295" y="325" width="10" height="10" transform="rotate(0,300,330)"/><rect x="295" y="335" width="10" height="10" transform="rotate(0,300,340)"/><rect x="295" y="345" width="10" height="10" transform="rotate(0,300,350)"/><rect x="295" y="365" width="10" height="10" transform="rotate(0,300,370)"/><rect x="295" y="375" width="10" height="10" transform="rotate(0,300,380)"/><rect x="295" y="405" width="10" height="10" transform="rotate(0,300,410)"/><rect x="295" y="425" width="10" height="10" transform="rotate(0,300,430)"/><rect x="295" y="445" width="10" height="10" transform="rotate(0,300,450)"/><rect x="295" y="455" width="10" height="10" transform="rotate(0,300,460)"/><rect x="305" y="25" width="10" height="10" transform="rotate(0,310,30)"/><rect x="305" y="55" width="10" height="10" transform="rotate(0,310,60)"/><rect x="305" y="65" width="10" height="10" transform="rotate(0,310,70)"/><rect x="305" y="85" width="10" height="10" transform="rotate(0,310,90)"/><rect x="305" y="105" width="10" height="10" transform="rotate(0,310,110)"/><rect x="305" y="115" width="10" height="10" transform="rotate(0,310,120)"/><rect x="305" y="145" width="10" height="10" transform="rotate(0,310,150)"/><rect x="305" y="185" width="10" height="10" transform="rotate(0,310,190)"/><rect x="305" y="195" width="10" height="10" transform="rotate(0,310,200)"/><rect x="305" y="225" width="10" height="10" transform="rotate(0,310,230)"/><rect x="305" y="255" width="10" height="10" transform="rotate(0,310,260)"/><rect x="305" y="265" width="10" height="10" transform="rotate(0,310,270)"/><rect x="305" y="275" width="10" height="10" transform="rotate(0,310,280)"/><rect x="305" y="295" width="10" height="10" transform="rotate(0,310,300)"/><rect x="305" y="325" width="10" height="10" transform="rotate(0,310,330)"/><rect x="305" y="345" width="10" height="10" transform="rotate(0,310,350)"/><rect x="305" y="365" width="10" height="10" transform="rotate(0,310,370)"/><rect x="305" y="375" width="10" height="10" transform="rotate(0,310,380)"/><rect x="305" y="385" width="10" height="10" transform="rotate(0,310,390)"/><rect x="305" y="405" width="10" height="10" transform="rotate(0,310,410)"/><rect x="305" y="415" width="10" height="10" transform="rotate(0,310,420)"/><rect x="305" y="425" width="10" height="10" transform="rotate(0,310,430)"/><rect x="305" y="435" width="10" height="10" transform="rotate(0,310,440)"/><rect x="305" y="445" width="10" height="10" transform="rotate(0,310,450)"/><rect x="305" y="465" width="10" height="10" transform="rotate(0,310,470)"/><rect x="315" y="35" width="10" height="10" transform="rotate(0,320,40)"/><rect x="315" y="45" width="10" height="10" transform="rotate(0,320,50)"/><rect x="315" y="55" width="10" height="10" transform="rotate(0,320,60)"/><rect x="315" y="125" width="10" height="10" transform="rotate(0,320,130)"/><rect x="315" y="135" width="10" height="10" transform="rotate(0,320,140)"/><rect x="315" y="155" width="10" height="10" transform="rotate(0,320,160)"/><rect x="315" y="185" width="10" height="10" transform="rotate(0,320,190)"/><rect x="315" y="195" width="10" height="10" transform="rotate(0,320,200)"/><rect x="315" y="225" width="10" height="10" transform="rotate(0,320,230)"/><rect x="315" y="245" width="10" height="10" transform="rotate(0,320,250)"/><rect x="315" y="255" width="10" height="10" transform="rotate(0,320,260)"/><rect x="315" y="265" width="10" height="10" transform="rotate(0,320,270)"/><rect x="315" y="275" width="10" height="10" transform="rotate(0,320,280)"/><rect x="315" y="295" width="10" height="10" transform="rotate(0,320,300)"/><rect x="315" y="315" width="10" height="10" transform="rotate(0,320,320)"/><rect x="315" y="345" width="10" height="10" transform="rotate(0,320,350)"/><rect x="315" y="355" width="10" height="10" transform="rotate(0,320,360)"/><rect x="315" y="365" width="10" height="10" transform="rotate(0,320,370)"/><rect x="315" y="385" width="10" height="10" transform="rotate(0,320,390)"/><rect x="315" y="405" width="10" height="10" transform="rotate(0,320,410)"/><rect x="315" y="415" width="10" height="10" transform="rotate(0,320,420)"/><rect x="315" y="425" width="10" height="10" transform="rotate(0,320,430)"/><rect x="315" y="435" width="10" height="10" transform="rotate(0,320,440)"/><rect x="315" y="445" width="10" height="10" transform="rotate(0,320,450)"/><rect x="315" y="455" width="10" height="10" transform="rotate(0,320,460)"/><rect x="315" y="465" width="10" height="10" transform="rotate(0,320,470)"/><rect x="325" y="25" width="10" height="10" transform="rotate(0,330,30)"/><rect x="325" y="35" width="10" height="10" transform="rotate(0,330,40)"/><rect x="325" y="45" width="10" height="10" transform="rotate(0,330,50)"/><rect x="325" y="65" width="10" height="10" transform="rotate(0,330,70)"/><rect x="325" y="75" width="10" height="10" transform="rotate(0,330,80)"/><rect x="325" y="85" width="10" height="10" transform="rotate(0,330,90)"/><rect x="325" y="125" width="10" height="10" transform="rotate(0,330,130)"/><rect x="325" y="135" width="10" height="10" transform="rotate(0,330,140)"/><rect x="325" y="145" width="10" height="10" transform="rotate(0,330,150)"/><rect x="325" y="165" width="10" height="10" transform="rotate(0,330,170)"/><rect x="325" y="185" width="10" height="10" transform="rotate(0,330,190)"/><rect x="325" y="215" width="10" height="10" transform="rotate(0,330,220)"/><rect x="325" y="235" width="10" height="10" transform="rotate(0,330,240)"/><rect x="325" y="245" width="10" height="10" transform="rotate(0,330,250)"/><rect x="325" y="255" width="10" height="10" transform="rotate(0,330,260)"/><rect x="325" y="295" width="10" height="10" transform="rotate(0,330,300)"/><rect x="325" y="355" width="10" height="10" transform="rotate(0,330,360)"/><rect x="325" y="365" width="10" height="10" transform="rotate(0,330,370)"/><rect x="325" y="375" width="10" height="10" transform="rotate(0,330,380)"/><rect x="325" y="385" width="10" height="10" transform="rotate(0,330,390)"/><rect x="325" y="435" width="10" height="10" transform="rotate(0,330,440)"/><rect x="325" y="455" width="10" height="10" transform="rotate(0,330,460)"/><rect x="335" y="35" width="10" height="10" transform="rotate(0,340,40)"/><rect x="335" y="55" width="10" height="10" transform="rotate(0,340,60)"/><rect x="335" y="65" width="10" height="10" transform="rotate(0,340,70)"/><rect x="335" y="105" width="10" height="10" transform="rotate(0,340,110)"/><rect x="335" y="115" width="10" height="10" transform="rotate(0,340,120)"/><rect x="335" y="125" width="10" height="10" transform="rotate(0,340,130)"/><rect x="335" y="165" width="10" height="10" transform="rotate(0,340,170)"/><rect x="335" y="175" width="10" height="10" transform="rotate(0,340,180)"/><rect x="335" y="185" width="10" height="10" transform="rotate(0,340,190)"/><rect x="335" y="195" width="10" height="10" transform="rotate(0,340,200)"/><rect x="335" y="205" width="10" height="10" transform="rotate(0,340,210)"/><rect x="335" y="215" width="10" height="10" transform="rotate(0,340,220)"/><rect x="335" y="235" width="10" height="10" transform="rotate(0,340,240)"/><rect x="335" y="245" width="10" height="10" transform="rotate(0,340,250)"/><rect x="335" y="265" width="10" height="10" transform="rotate(0,340,270)"/><rect x="335" y="275" width="10" height="10" transform="rotate(0,340,280)"/><rect x="335" y="285" width="10" height="10" transform="rotate(0,340,290)"/><rect x="335" y="305" width="10" height="10" transform="rotate(0,340,310)"/><rect x="335" y="355" width="10" height="10" transform="rotate(0,340,360)"/><rect x="335" y="365" width="10" height="10" transform="rotate(0,340,370)"/><rect x="335" y="385" width="10" height="10" transform="rotate(0,340,390)"/><rect x="335" y="415" width="10" height="10" transform="rotate(0,340,420)"/><rect x="345" y="25" width="10" height="10" transform="rotate(0,350,30)"/><rect x="345" y="35" width="10" height="10" transform="rotate(0,350,40)"/><rect x="345" y="45" width="10" height="10" transform="rotate(0,350,50)"/><rect x="345" y="65" width="10" height="10" transform="rotate(0,350,70)"/><rect x="345" y="85" width="10" height="10" transform="rotate(0,350,90)"/><rect x="345" y="95" width="10" height="10" transform="rotate(0,350,100)"/><rect x="345" y="105" width="10" height="10" transform="rotate(0,350,110)"/><rect x="345" y="115" width="10" height="10" transform="rotate(0,350,120)"/><rect x="345" y="155" width="10" height="10" transform="rotate(0,350,160)"/><rect x="345" y="165" width="10" height="10" transform="rotate(0,350,170)"/><rect x="345" y="185" width="10" height="10" transform="rotate(0,350,190)"/><rect x="345" y="225" width="10" height="10" transform="rotate(0,350,230)"/><rect x="345" y="235" width="10" height="10" transform="rotate(0,350,240)"/><rect x="345" y="255" width="10" height="10" transform="rotate(0,350,260)"/><rect x="345" y="275" width="10" height="10" transform="rotate(0,350,280)"/><rect x="345" y="295" width="10" height="10" transform="rotate(0,350,300)"/><rect x="345" y="305" width="10" height="10" transform="rotate(0,350,310)"/><rect x="345" y="335" width="10" height="10" transform="rotate(0,350,340)"/><rect x="345" y="385" width="10" height="10" transform="rotate(0,350,390)"/><rect x="345" y="395" width="10" height="10" transform="rotate(0,350,400)"/><rect x="345" y="405" width="10" height="10" transform="rotate(0,350,410)"/><rect x="345" y="435" width="10" height="10" transform="rotate(0,350,440)"/><rect x="345" y="445" width="10" height="10" transform="rotate(0,350,450)"/><rect x="345" y="455" width="10" height="10" transform="rotate(0,350,460)"/><rect x="355" y="25" width="10" height="10" transform="rotate(0,360,30)"/><rect x="355" y="35" width="10" height="10" transform="rotate(0,360,40)"/><rect x="355" y="75" width="10" height="10" transform="rotate(0,360,80)"/><rect x="355" y="115" width="10" height="10" transform="rotate(0,360,120)"/><rect x="355" y="125" width="10" height="10" transform="rotate(0,360,130)"/><rect x="355" y="155" width="10" height="10" transform="rotate(0,360,160)"/><rect x="355" y="165" width="10" height="10" transform="rotate(0,360,170)"/><rect x="355" y="175" width="10" height="10" transform="rotate(0,360,180)"/><rect x="355" y="205" width="10" height="10" transform="rotate(0,360,210)"/><rect x="355" y="215" width="10" height="10" transform="rotate(0,360,220)"/><rect x="355" y="245" width="10" height="10" transform="rotate(0,360,250)"/><rect x="355" y="265" width="10" height="10" transform="rotate(0,360,270)"/><rect x="355" y="285" width="10" height="10" transform="rotate(0,360,290)"/><rect x="355" y="315" width="10" height="10" transform="rotate(0,360,320)"/><rect x="355" y="325" width="10" height="10" transform="rotate(0,360,330)"/><rect x="355" y="395" width="10" height="10" transform="rotate(0,360,400)"/><rect x="355" y="445" width="10" height="10" transform="rotate(0,360,450)"/><rect x="355" y="455" width="10" height="10" transform="rotate(0,360,460)"/><rect x="355" y="465" width="10" height="10" transform="rotate(0,360,470)"/><rect x="365" y="65" width="10" height="10" transform="rotate(0,370,70)"/><rect x="365" y="85" width="10" height="10" transform="rotate(0,370,90)"/><rect x="365" y="95" width="10" height="10" transform="rotate(0,370,100)"/><rect x="365" y="105" width="10" height="10" transform="rotate(0,370,110)"/><rect x="365" y="125" width="10" height="10" transform="rotate(0,370,130)"/><rect x="365" y="135" width="10" height="10" transform="rotate(0,370,140)"/><rect x="365" y="145" width="10" height="10" transform="rotate(0,370,150)"/><rect x="365" y="165" width="10" height="10" transform="rotate(0,370,170)"/><rect x="365" y="175" width="10" height="10" transform="rotate(0,370,180)"/><rect x="365" y="185" width="10" height="10" transform="rotate(0,370,190)"/><rect x="365" y="195" width="10" height="10" transform="rotate(0,370,200)"/><rect x="365" y="215" width="10" height="10" transform="rotate(0,370,220)"/><rect x="365" y="225" width="10" height="10" transform="rotate(0,370,230)"/><rect x="365" y="235" width="10" height="10" transform="rotate(0,370,240)"/><rect x="365" y="265" width="10" height="10" transform="rotate(0,370,270)"/><rect x="365" y="285" width="10" height="10" transform="rotate(0,370,290)"/><rect x="365" y="295" width="10" height="10" transform="rotate(0,370,300)"/><rect x="365" y="315" width="10" height="10" transform="rotate(0,370,320)"/><rect x="365" y="325" width="10" height="10" transform="rotate(0,370,330)"/><rect x="365" y="335" width="10" height="10" transform="rotate(0,370,340)"/><rect x="365" y="345" width="10" height="10" transform="rotate(0,370,350)"/><rect x="365" y="365" width="10" height="10" transform="rotate(0,370,370)"/><rect x="365" y="385" width="10" height="10" transform="rotate(0,370,390)"/><rect x="365" y="395" width="10" height="10" transform="rotate(0,370,400)"/><rect x="365" y="405" width="10" height="10" transform="rotate(0,370,410)"/><rect x="365" y="425" width="10" height="10" transform="rotate(0,370,430)"/><rect x="365" y="445" width="10" height="10" transform="rotate(0,370,450)"/><rect x="365" y="455" width="10" height="10" transform="rotate(0,370,460)"/><rect x="365" y="465" width="10" height="10" transform="rotate(0,370,470)"/><rect x="375" y="35" width="10" height="10" transform="rotate(0,380,40)"/><rect x="375" y="45" width="10" height="10" transform="rotate(0,380,50)"/><rect x="375" y="55" width="10" height="10" transform="rotate(0,380,60)"/><rect x="375" y="65" width="10" height="10" transform="rotate(0,380,70)"/><rect x="375" y="105" width="10" height="10" transform="rotate(0,380,110)"/><rect x="375" y="125" width="10" height="10" transform="rotate(0,380,130)"/><rect x="375" y="155" width="10" height="10" transform="rotate(0,380,160)"/><rect x="375" y="165" width="10" height="10" transform="rotate(0,380,170)"/><rect x="375" y="175" width="10" height="10" transform="rotate(0,380,180)"/><rect x="375" y="185" width="10" height="10" transform="rotate(0,380,190)"/><rect x="375" y="205" width="10" height="10" transform="rotate(0,380,210)"/><rect x="375" y="215" width="10" height="10" transform="rotate(0,380,220)"/><rect x="375" y="235" width="10" height="10" transform="rotate(0,380,240)"/><rect x="375" y="265" width="10" height="10" transform="rotate(0,380,270)"/><rect x="375" y="275" width="10" height="10" transform="rotate(0,380,280)"/><rect x="375" y="285" width="10" height="10" transform="rotate(0,380,290)"/><rect x="375" y="315" width="10" height="10" transform="rotate(0,380,320)"/><rect x="375" y="325" width="10" height="10" transform="rotate(0,380,330)"/><rect x="375" y="335" width="10" height="10" transform="rotate(0,380,340)"/><rect x="375" y="345" width="10" height="10" transform="rotate(0,380,350)"/><rect x="375" y="355" width="10" height="10" transform="rotate(0,380,360)"/><rect x="375" y="375" width="10" height="10" transform="rotate(0,380,380)"/><rect x="375" y="385" width="10" height="10" transform="rotate(0,380,390)"/><rect x="375" y="405" width="10" height="10" transform="rotate(0,380,410)"/><rect x="375" y="415" width="10" height="10" transform="rotate(0,380,420)"/><rect x="375" y="435" width="10" height="10" transform="rotate(0,380,440)"/><rect x="375" y="465" width="10" height="10" transform="rotate(0,380,470)"/><rect x="385" y="25" width="10" height="10" transform="rotate(0,390,30)"/><rect x="385" y="55" width="10" height="10" transform="rotate(0,390,60)"/><rect x="385" y="65" width="10" height="10" transform="rotate(0,390,70)"/><rect x="385" y="85" width="10" height="10" transform="rotate(0,390,90)"/><rect x="385" y="95" width="10" height="10" transform="rotate(0,390,100)"/><rect x="385" y="105" width="10" height="10" transform="rotate(0,390,110)"/><rect x="385" y="125" width="10" height="10" transform="rotate(0,390,130)"/><rect x="385" y="135" width="10" height="10" transform="rotate(0,390,140)"/><rect x="385" y="145" width="10" height="10" transform="rotate(0,390,150)"/><rect x="385" y="155" width="10" height="10" transform="rotate(0,390,160)"/><rect x="385" y="165" width="10" height="10" transform="rotate(0,390,170)"/><rect x="385" y="175" width="10" height="10" transform="rotate(0,390,180)"/><rect x="385" y="185" width="10" height="10" transform="rotate(0,390,190)"/><rect x="385" y="195" width="10" height="10" transform="rotate(0,390,200)"/><rect x="385" y="215" width="10" height="10" transform="rotate(0,390,220)"/><rect x="385" y="225" width="10" height="10" transform="rotate(0,390,230)"/><rect x="385" y="235" width="10" height="10" transform="rotate(0,390,240)"/><rect x="385" y="245" width="10" height="10" transform="rotate(0,390,250)"/><rect x="385" y="255" width="10" height="10" transform="rotate(0,390,260)"/><rect x="385" y="265" width="10" height="10" transform="rotate(0,390,270)"/><rect x="385" y="285" width="10" height="10" transform="rotate(0,390,290)"/><rect x="385" y="295" width="10" height="10" transform="rotate(0,390,300)"/><rect x="385" y="315" width="10" height="10" transform="rotate(0,390,320)"/><rect x="385" y="325" width="10" height="10" transform="rotate(0,390,330)"/><rect x="385" y="335" width="10" height="10" transform="rotate(0,390,340)"/><rect x="385" y="365" width="10" height="10" transform="rotate(0,390,370)"/><rect x="385" y="385" width="10" height="10" transform="rotate(0,390,390)"/><rect x="385" y="395" width="10" height="10" transform="rotate(0,390,400)"/><rect x="385" y="405" width="10" height="10" transform="rotate(0,390,410)"/><rect x="385" y="415" width="10" height="10" transform="rotate(0,390,420)"/><rect x="385" y="425" width="10" height="10" transform="rotate(0,390,430)"/><rect x="385" y="455" width="10" height="10" transform="rotate(0,390,460)"/><rect x="395" y="105" width="10" height="10" transform="rotate(0,400,110)"/><rect x="395" y="125" width="10" height="10" transform="rotate(0,400,130)"/><rect x="395" y="135" width="10" height="10" transform="rotate(0,400,140)"/><rect x="395" y="185" width="10" height="10" transform="rotate(0,400,190)"/><rect x="395" y="215" width="10" height="10" transform="rotate(0,400,220)"/><rect x="395" y="225" width="10" height="10" transform="rotate(0,400,230)"/><rect x="395" y="265" width="10" height="10" transform="rotate(0,400,270)"/><rect x="395" y="285" width="10" height="10" transform="rotate(0,400,290)"/><rect x="395" y="295" width="10" height="10" transform="rotate(0,400,300)"/><rect x="395" y="345" width="10" height="10" transform="rotate(0,400,350)"/><rect x="395" y="385" width="10" height="10" transform="rotate(0,400,390)"/><rect x="395" y="425" width="10" height="10" transform="rotate(0,400,430)"/><rect x="395" y="455" width="10" height="10" transform="rotate(0,400,460)"/><rect x="405" y="175" width="10" height="10" transform="rotate(0,410,180)"/><rect x="405" y="185" width="10" height="10" transform="rotate(0,410,190)"/><rect x="405" y="195" width="10" height="10" transform="rotate(0,410,200)"/><rect x="405" y="215" width="10" height="10" transform="rotate(0,410,220)"/><rect x="405" y="225" width="10" height="10" transform="rotate(0,410,230)"/><rect x="405" y="245" width="10" height="10" transform="rotate(0,410,250)"/><rect x="405" y="265" width="10" height="10" transform="rotate(0,410,270)"/><rect x="405" y="275" width="10" height="10" transform="rotate(0,410,280)"/><rect x="405" y="295" width="10" height="10" transform="rotate(0,410,300)"/><rect x="405" y="305" width="10" height="10" transform="rotate(0,410,310)"/><rect x="405" y="315" width="10" height="10" transform="rotate(0,410,320)"/><rect x="405" y="325" width="10" height="10" transform="rotate(0,410,330)"/><rect x="405" y="355" width="10" height="10" transform="rotate(0,410,360)"/><rect x="405" y="375" width="10" height="10" transform="rotate(0,410,380)"/><rect x="405" y="385" width="10" height="10" transform="rotate(0,410,390)"/><rect x="405" y="405" width="10" height="10" transform="rotate(0,410,410)"/><rect x="405" y="425" width="10" height="10" transform="rotate(0,410,430)"/><rect x="405" y="435" width="10" height="10" transform="rotate(0,410,440)"/><rect x="415" y="105" width="10" height="10" transform="rotate(0,420,110)"/><rect x="415" y="115" width="10" height="10" transform="rotate(0,420,120)"/><rect x="415" y="125" width="10" height="10" transform="rotate(0,420,130)"/><rect x="415" y="135" width="10" height="10" transform="rotate(0,420,140)"/><rect x="415" y="145" width="10" height="10" transform="rotate(0,420,150)"/><rect x="415" y="165" width="10" height="10" transform="rotate(0,420,170)"/><rect x="415" y="215" width="10" height="10" transform="rotate(0,420,220)"/><rect x="415" y="225" width="10" height="10" transform="rotate(0,420,230)"/><rect x="415" y="265" width="10" height="10" transform="rotate(0,420,270)"/><rect x="415" y="275" width="10" height="10" transform="rotate(0,420,280)"/><rect x="415" y="285" width="10" height="10" transform="rotate(0,420,290)"/><rect x="415" y="295" width="10" height="10" transform="rotate(0,420,300)"/><rect x="415" y="305" width="10" height="10" transform="rotate(0,420,310)"/><rect x="415" y="325" width="10" height="10" transform="rotate(0,420,330)"/><rect x="415" y="345" width="10" height="10" transform="rotate(0,420,350)"/><rect x="415" y="365" width="10" height="10" transform="rotate(0,420,370)"/><rect x="415" y="375" width="10" height="10" transform="rotate(0,420,380)"/><rect x="415" y="385" width="10" height="10" transform="rotate(0,420,390)"/><rect x="415" y="425" width="10" height="10" transform="rotate(0,420,430)"/><rect x="415" y="435" width="10" height="10" transform="rotate(0,420,440)"/><rect x="415" y="445" width="10" height="10" transform="rotate(0,420,450)"/><rect x="415" y="455" width="10" height="10" transform="rotate(0,420,460)"/><rect x="425" y="115" width="10" height="10" transform="rotate(0,430,120)"/><rect x="425" y="155" width="10" height="10" transform="rotate(0,430,160)"/><rect x="425" y="165" width="10" height="10" transform="rotate(0,430,170)"/><rect x="425" y="205" width="10" height="10" transform="rotate(0,430,210)"/><rect x="425" y="225" width="10" height="10" transform="rotate(0,430,230)"/><rect x="425" y="235" width="10" height="10" transform="rotate(0,430,240)"/><rect x="425" y="245" width="10" height="10" transform="rotate(0,430,250)"/><rect x="425" y="255" width="10" height="10" transform="rotate(0,430,260)"/><rect x="425" y="265" width="10" height="10" transform="rotate(0,430,270)"/><rect x="425" y="275" width="10" height="10" transform="rotate(0,430,280)"/><rect x="425" y="295" width="10" height="10" transform="rotate(0,430,300)"/><rect x="425" y="315" width="10" height="10" transform="rotate(0,430,320)"/><rect x="425" y="335" width="10" height="10" transform="rotate(0,430,340)"/><rect x="425" y="345" width="10" height="10" transform="rotate(0,430,350)"/><rect x="425" y="355" width="10" height="10" transform="rotate(0,430,360)"/><rect x="425" y="365" width="10" height="10" transform="rotate(0,430,370)"/><rect x="425" y="385" width="10" height="10" transform="rotate(0,430,390)"/><rect x="425" y="395" width="10" height="10" transform="rotate(0,430,400)"/><rect x="425" y="405" width="10" height="10" transform="rotate(0,430,410)"/><rect x="425" y="415" width="10" height="10" transform="rotate(0,430,420)"/><rect x="425" y="425" width="10" height="10" transform="rotate(0,430,430)"/><rect x="425" y="445" width="10" height="10" transform="rotate(0,430,450)"/><rect x="435" y="105" width="10" height="10" transform="rotate(0,440,110)"/><rect x="435" y="125" width="10" height="10" transform="rotate(0,440,130)"/><rect x="435" y="135" width="10" height="10" transform="rotate(0,440,140)"/><rect x="435" y="155" width="10" height="10" transform="rotate(0,440,160)"/><rect x="435" y="185" width="10" height="10" transform="rotate(0,440,190)"/><rect x="435" y="195" width="10" height="10" transform="rotate(0,440,200)"/><rect x="435" y="205" width="10" height="10" transform="rotate(0,440,210)"/><rect x="435" y="215" width="10" height="10" transform="rotate(0,440,220)"/><rect x="435" y="225" width="10" height="10" transform="rotate(0,440,230)"/><rect x="435" y="235" width="10" height="10" transform="rotate(0,440,240)"/><rect x="435" y="285" width="10" height="10" transform="rotate(0,440,290)"/><rect x="435" y="305" width="10" height="10" transform="rotate(0,440,310)"/><rect x="435" y="315" width="10" height="10" transform="rotate(0,440,320)"/><rect x="435" y="335" width="10" height="10" transform="rotate(0,440,340)"/><rect x="435" y="365" width="10" height="10" transform="rotate(0,440,370)"/><rect x="435" y="375" width="10" height="10" transform="rotate(0,440,380)"/><rect x="435" y="385" width="10" height="10" transform="rotate(0,440,390)"/><rect x="435" y="395" width="10" height="10" transform="rotate(0,440,400)"/><rect x="435" y="415" width="10" height="10" transform="rotate(0,440,420)"/><rect x="435" y="435" width="10" height="10" transform="rotate(0,440,440)"/><rect x="435" y="445" width="10" height="10" transform="rotate(0,440,450)"/><rect x="445" y="105" width="10" height="10" transform="rotate(0,450,110)"/><rect x="445" y="115" width="10" height="10" transform="rotate(0,450,120)"/><rect x="445" y="155" width="10" height="10" transform="rotate(0,450,160)"/><rect x="445" y="225" width="10" height="10" transform="rotate(0,450,230)"/><rect x="445" y="235" width="10" height="10" transform="rotate(0,450,240)"/><rect x="445" y="245" width="10" height="10" transform="rotate(0,450,250)"/><rect x="445" y="265" width="10" height="10" transform="rotate(0,450,270)"/><rect x="445" y="275" width="10" height="10" transform="rotate(0,450,280)"/><rect x="445" y="285" width="10" height="10" transform="rotate(0,450,290)"/><rect x="445" y="295" width="10" height="10" transform="rotate(0,450,300)"/><rect x="445" y="335" width="10" height="10" transform="rotate(0,450,340)"/><rect x="445" y="355" width="10" height="10" transform="rotate(0,450,360)"/><rect x="445" y="365" width="10" height="10" transform="rotate(0,450,370)"/><rect x="445" y="375" width="10" height="10" transform="rotate(0,450,380)"/><rect x="445" y="385" width="10" height="10" transform="rotate(0,450,390)"/><rect x="445" y="435" width="10" height="10" transform="rotate(0,450,440)"/><rect x="445" y="445" width="10" height="10" transform="rotate(0,450,450)"/><rect x="445" y="455" width="10" height="10" transform="rotate(0,450,460)"/><rect x="455" y="105" width="10" height="10" transform="rotate(0,460,110)"/><rect x="455" y="135" width="10" height="10" transform="rotate(0,460,140)"/><rect x="455" y="155" width="10" height="10" transform="rotate(0,460,160)"/><rect x="455" y="195" width="10" height="10" transform="rotate(0,460,200)"/><rect x="455" y="205" width="10" height="10" transform="rotate(0,460,210)"/><rect x="455" y="215" width="10" height="10" transform="rotate(0,460,220)"/><rect x="455" y="255" width="10" height="10" transform="rotate(0,460,260)"/><rect x="455" y="295" width="10" height="10" transform="rotate(0,460,300)"/><rect x="455" y="315" width="10" height="10" transform="rotate(0,460,320)"/><rect x="455" y="335" width="10" height="10" transform="rotate(0,460,340)"/><rect x="455" y="355" width="10" height="10" transform="rotate(0,460,360)"/><rect x="455" y="365" width="10" height="10" transform="rotate(0,460,370)"/><rect x="455" y="395" width="10" height="10" transform="rotate(0,460,400)"/><rect x="455" y="405" width="10" height="10" transform="rotate(0,460,410)"/><rect x="455" y="465" width="10" height="10" transform="rotate(0,460,470)"/><rect x="465" y="125" width="10" height="10" transform="rotate(0,470,130)"/><rect x="465" y="145" width="10" height="10" transform="rotate(0,470,150)"/><rect x="465" y="155" width="10" height="10" transform="rotate(0,470,160)"/><rect x="465" y="165" width="10" height="10" transform="rotate(0,470,170)"/><rect x="465" y="175" width="10" height="10" transform="rotate(0,470,180)"/><rect x="465" y="185" width="10" height="10" transform="rotate(0,470,190)"/><rect x="465" y="195" width="10" height="10" transform="rotate(0,470,200)"/><rect x="465" y="235" width="10" height="10" transform="rotate(0,470,240)"/><rect x="465" y="245" width="10" height="10" transform="rotate(0,470,250)"/><rect x="465" y="255" width="10" height="10" transform="rotate(0,470,260)"/><rect x="465" y="275" width="10" height="10" transform="rotate(0,470,280)"/><rect x="465" y="305" width="10" height="10" transform="rotate(0,470,310)"/><rect x="465" y="315" width="10" height="10" transform="rotate(0,470,320)"/><rect x="465" y="355" width="10" height="10" transform="rotate(0,470,360)"/><rect x="465" y="385" width="10" height="10" transform="rotate(0,470,390)"/><rect x="465" y="405" width="10" height="10" transform="rotate(0,470,410)"/><rect x="465" y="415" width="10" height="10" transform="rotate(0,470,420)"/><rect x="465" y="425" width="10" height="10" transform="rotate(0,470,430)"/><rect x="465" y="435" width="10" height="10" transform="rotate(0,470,440)"/><rect x="465" y="445" width="10" height="10" transform="rotate(0,470,450)"/><path clip-rule="evenodd" d="M 25 25v 70h 70v -70zM 35 35h 50v 50h -50z" transform="rotate(0,60,60)"/><rect x="45" y="45" width="30" height="30" transform="rotate(0,60,60)"/><path clip-rule="evenodd" d="M 405 25v 70h 70v -70zM 415 35h 50v 50h -50z" transform="rotate(90,440,60)"/><rect x="425" y="45" width="30" height="30" transform="rotate(90,440,60)"/><path clip-rule="evenodd" d="M 25 405v 70h 70v -70zM 35 415h 50v 50h -50z" transform="rotate(-90,60,440)"/><rect x="45" y="425" width="30" height="30" transform="rotate(-90,60,440)"/></clipPath></defs><rect x="0" y="0" height="500" width="500" clip-path="url('#clip-path-background-color')" fill="#fff"/><rect x="0" y="0" height="500" width="500" clip-path="url('#clip-path-dot-color')" fill="#000000"/></svg>