<?xml version="1.0" encoding="UTF-8" standalone="yes"?>
<!-- Created with qrencode 4.1.1 (https://fukuchi.org/works/qrencode/index.html) -->
<svg width="58.21cm" height="58.21cm" viewBox="0 0 33 33" preserveAspectRatio="none" version="1.1" xmlns="http://www.w3.org/2000/svg">
	<g id="QRcode">
		<rect x="0" y="0" width="33" height="33" fill="#ffffff"/>
		<g id="Pattern" transform="translate(4,4)">
			<rect x="0" y="0" width="1" height="1" fill="#000000"/>
			<rect x="1" y="0" width="1" height="1" fill="#000000"/>
			<rect x="2" y="0" width="1" height="1" fill="#000000"/>
			<rect x="3" y="0" width="1" height="1" fill="#000000"/>
			<rect x="4" y="0" width="1" height="1" fill="#000000"/>
			<rect x="5" y="0" width="1" height="1" fill="#000000"/>
			<rect x="6" y="0" width="1" height="1" fill="#000000"/>
			<rect x="8" y="0" width="1" height="1" fill="#000000"/>
			<rect x="9" y="0" width="1" height="1" fill="#000000"/>
			<rect x="13" y="0" width="1" height="1" fill="#000000"/>
			<rect x="18" y="0" width="1" height="1" fill="#000000"/>
			<rect x="19" y="0" width="1" height="1" fill="#000000"/>
			<rect x="20" y="0" width="1" height="1" fill="#000000"/>
			<rect x="21" y="0" width="1" height="1" fill="#000000"/>
			<rect x="22" y="0" width="1" height="1" fill="#000000"/>
			<rect x="23" y="0" width="1" height="1" fill="#000000"/>
			<rect x="24" y="0" width="1" height="1" fill="#000000"/>
			<rect x="0" y="1" width="1" height="1" fill="#000000"/>
			<rect x="6" y="1" width="1" height="1" fill="#000000"/>
			<rect x="9" y="1" width="1" height="1" fill="#000000"/>
			<rect x="13" y="1" width="1" height="1" fill="#000000"/>
			<rect x="16" y="1" width="1" height="1" fill="#000000"/>
			<rect x="18" y="1" width="1" height="1" fill="#000000"/>
			<rect x="24" y="1" width="1" height="1" fill="#000000"/>
			<rect x="0" y="2" width="1" height="1" fill="#000000"/>
			<rect x="2" y="2" width="1" height="1" fill="#000000"/>
			<rect x="3" y="2" width="1" height="1" fill="#000000"/>
			<rect x="4" y="2" width="1" height="1" fill="#000000"/>
			<rect x="6" y="2" width="1" height="1" fill="#000000"/>
			<rect x="9" y="2" width="1" height="1" fill="#000000"/>
			<rect x="11" y="2" width="1" height="1" fill="#000000"/>
			<rect x="12" y="2" width="1" height="1" fill="#000000"/>
			<rect x="13" y="2" width="1" height="1" fill="#000000"/>
			<rect x="16" y="2" width="1" height="1" fill="#000000"/>
			<rect x="18" y="2" width="1" height="1" fill="#000000"/>
			<rect x="20" y="2" width="1" height="1" fill="#000000"/>
			<rect x="21" y="2" width="1" height="1" fill="#000000"/>
			<rect x="22" y="2" width="1" height="1" fill="#000000"/>
			<rect x="24" y="2" width="1" height="1" fill="#000000"/>
			<rect x="0" y="3" width="1" height="1" fill="#000000"/>
			<rect x="2" y="3" width="1" height="1" fill="#000000"/>
			<rect x="3" y="3" width="1" height="1" fill="#000000"/>
			<rect x="4" y="3" width="1" height="1" fill="#000000"/>
			<rect x="6" y="3" width="1" height="1" fill="#000000"/>
			<rect x="10" y="3" width="1" height="1" fill="#000000"/>
			<rect x="11" y="3" width="1" height="1" fill="#000000"/>
			<rect x="12" y="3" width="1" height="1" fill="#000000"/>
			<rect x="13" y="3" width="1" height="1" fill="#000000"/>
			<rect x="18" y="3" width="1" height="1" fill="#000000"/>
			<rect x="20" y="3" width="1" height="1" fill="#000000"/>
			<rect x="21" y="3" width="1" height="1" fill="#000000"/>
			<rect x="22" y="3" width="1" height="1" fill="#000000"/>
			<rect x="24" y="3" width="1" height="1" fill="#000000"/>
			<rect x="0" y="4" width="1" height="1" fill="#000000"/>
			<rect x="2" y="4" width="1" height="1" fill="#000000"/>
			<rect x="3" y="4" width="1" height="1" fill="#000000"/>
			<rect x="4" y="4" width="1" height="1" fill="#000000"/>
			<rect x="6" y="4" width="1" height="1" fill="#000000"/>
			<rect x="16" y="4" width="1" height="1" fill="#000000"/>
			<rect x="18" y="4" width="1" height="1" fill="#000000"/>
			<rect x="20" y="4" width="1" height="1" fill="#000000"/>
			<rect x="21" y="4" width="1" height="1" fill="#000000"/>
			<rect x="22" y="4" width="1" height="1" fill="#000000"/>
			<rect x="24" y="4" width="1" height="1" fill="#000000"/>
			<rect x="0" y="5" width="1" height="1" fill="#000000"/>
			<rect x="6" y="5" width="1" height="1" fill="#000000"/>
			<rect x="9" y="5" width="1" height="1" fill="#000000"/>
			<rect x="11" y="5" width="1" height="1" fill="#000000"/>
			<rect x="12" y="5" width="1" height="1" fill="#000000"/>
			<rect x="13" y="5" width="1" height="1" fill="#000000"/>
			<rect x="18" y="5" width="1" height="1" fill="#000000"/>
			<rect x="24" y="5" width="1" height="1" fill="#000000"/>
			<rect x="0" y="6" width="1" height="1" fill="#000000"/>
			<rect x="1" y="6" width="1" height="1" fill="#000000"/>
			<rect x="2" y="6" width="1" height="1" fill="#000000"/>
			<rect x="3" y="6" width="1" height="1" fill="#000000"/>
			<rect x="4" y="6" width="1" height="1" fill="#000000"/>
			<rect x="5" y="6" width="1" height="1" fill="#000000"/>
			<rect x="6" y="6" width="1" height="1" fill="#000000"/>
			<rect x="8" y="6" width="1" height="1" fill="#000000"/>
			<rect x="10" y="6" width="1" height="1" fill="#000000"/>
			<rect x="12" y="6" width="1" height="1" fill="#000000"/>
			<rect x="14" y="6" width="1" height="1" fill="#000000"/>
			<rect x="16" y="6" width="1" height="1" fill="#000000"/>
			<rect x="18" y="6" width="1" height="1" fill="#000000"/>
			<rect x="19" y="6" width="1" height="1" fill="#000000"/>
			<rect x="20" y="6" width="1" height="1" fill="#000000"/>
			<rect x="21" y="6" width="1" height="1" fill="#000000"/>
			<rect x="22" y="6" width="1" height="1" fill="#000000"/>
			<rect x="23" y="6" width="1" height="1" fill="#000000"/>
			<rect x="24" y="6" width="1" height="1" fill="#000000"/>
			<rect x="8" y="7" width="1" height="1" fill="#000000"/>
			<rect x="9" y="7" width="1" height="1" fill="#000000"/>
			<rect x="11" y="7" width="1" height="1" fill="#000000"/>
			<rect x="13" y="7" width="1" height="1" fill="#000000"/>
			<rect x="14" y="7" width="1" height="1" fill="#000000"/>
			<rect x="15" y="7" width="1" height="1" fill="#000000"/>
			<rect x="16" y="7" width="1" height="1" fill="#000000"/>
			<rect x="0" y="8" width="1" height="1" fill="#000000"/>
			<rect x="1" y="8" width="1" height="1" fill="#000000"/>
			<rect x="3" y="8" width="1" height="1" fill="#000000"/>
			<rect x="4" y="8" width="1" height="1" fill="#000000"/>
			<rect x="6" y="8" width="1" height="1" fill="#000000"/>
			<rect x="9" y="8" width="1" height="1" fill="#000000"/>
			<rect x="11" y="8" width="1" height="1" fill="#000000"/>
			<rect x="12" y="8" width="1" height="1" fill="#000000"/>
			<rect x="14" y="8" width="1" height="1" fill="#000000"/>
			<rect x="16" y="8" width="1" height="1" fill="#000000"/>
			<rect x="18" y="8" width="1" height="1" fill="#000000"/>
			<rect x="24" y="8" width="1" height="1" fill="#000000"/>
			<rect x="0" y="9" width="1" height="1" fill="#000000"/>
			<rect x="1" y="9" width="1" height="1" fill="#000000"/>
			<rect x="2" y="9" width="1" height="1" fill="#000000"/>
			<rect x="3" y="9" width="1" height="1" fill="#000000"/>
			<rect x="5" y="9" width="1" height="1" fill="#000000"/>
			<rect x="7" y="9" width="1" height="1" fill="#000000"/>
			<rect x="8" y="9" width="1" height="1" fill="#000000"/>
			<rect x="10" y="9" width="1" height="1" fill="#000000"/>
			<rect x="11" y="9" width="1" height="1" fill="#000000"/>
			<rect x="14" y="9" width="1" height="1" fill="#000000"/>
			<rect x="15" y="9" width="1" height="1" fill="#000000"/>
			<rect x="16" y="9" width="1" height="1" fill="#000000"/>
			<rect x="17" y="9" width="1" height="1" fill="#000000"/>
			<rect x="19" y="9" width="1" height="1" fill="#000000"/>
			<rect x="20" y="9" width="1" height="1" fill="#000000"/>
			<rect x="21" y="9" width="1" height="1" fill="#000000"/>
			<rect x="22" y="9" width="1" height="1" fill="#000000"/>
			<rect x="23" y="9" width="1" height="1" fill="#000000"/>
			<rect x="3" y="10" width="1" height="1" fill="#000000"/>
			<rect x="4" y="10" width="1" height="1" fill="#000000"/>
			<rect x="6" y="10" width="1" height="1" fill="#000000"/>
			<rect x="9" y="10" width="1" height="1" fill="#000000"/>
			<rect x="11" y="10" width="1" height="1" fill="#000000"/>
			<rect x="15" y="10" width="1" height="1" fill="#000000"/>
			<rect x="16" y="10" width="1" height="1" fill="#000000"/>
			<rect x="17" y="10" width="1" height="1" fill="#000000"/>
			<rect x="18" y="10" width="1" height="1" fill="#000000"/>
			<rect x="19" y="10" width="1" height="1" fill="#000000"/>
			<rect x="20" y="10" width="1" height="1" fill="#000000"/>
			<rect x="22" y="10" width="1" height="1" fill="#000000"/>
			<rect x="24" y="10" width="1" height="1" fill="#000000"/>
			<rect x="0" y="11" width="1" height="1" fill="#000000"/>
			<rect x="4" y="11" width="1" height="1" fill="#000000"/>
			<rect x="5" y="11" width="1" height="1" fill="#000000"/>
			<rect x="7" y="11" width="1" height="1" fill="#000000"/>
			<rect x="8" y="11" width="1" height="1" fill="#000000"/>
			<rect x="11" y="11" width="1" height="1" fill="#000000"/>
			<rect x="12" y="11" width="1" height="1" fill="#000000"/>
			<rect x="14" y="11" width="1" height="1" fill="#000000"/>
			<rect x="17" y="11" width="1" height="1" fill="#000000"/>
			<rect x="18" y="11" width="1" height="1" fill="#000000"/>
			<rect x="20" y="11" width="1" height="1" fill="#000000"/>
			<rect x="22" y="11" width="1" height="1" fill="#000000"/>
			<rect x="0" y="12" width="1" height="1" fill="#000000"/>
			<rect x="6" y="12" width="1" height="1" fill="#000000"/>
			<rect x="7" y="12" width="1" height="1" fill="#000000"/>
			<rect x="9" y="12" width="1" height="1" fill="#000000"/>
			<rect x="10" y="12" width="1" height="1" fill="#000000"/>
			<rect x="12" y="12" width="1" height="1" fill="#000000"/>
			<rect x="16" y="12" width="1" height="1" fill="#000000"/>
			<rect x="18" y="12" width="1" height="1" fill="#000000"/>
			<rect x="19" y="12" width="1" height="1" fill="#000000"/>
			<rect x="21" y="12" width="1" height="1" fill="#000000"/>
			<rect x="24" y="12" width="1" height="1" fill="#000000"/>
			<rect x="0" y="13" width="1" height="1" fill="#000000"/>
			<rect x="2" y="13" width="1" height="1" fill="#000000"/>
			<rect x="5" y="13" width="1" height="1" fill="#000000"/>
			<rect x="7" y="13" width="1" height="1" fill="#000000"/>
			<rect x="8" y="13" width="1" height="1" fill="#000000"/>
			<rect x="10" y="13" width="1" height="1" fill="#000000"/>
			<rect x="11" y="13" width="1" height="1" fill="#000000"/>
			<rect x="13" y="13" width="1" height="1" fill="#000000"/>
			<rect x="14" y="13" width="1" height="1" fill="#000000"/>
			<rect x="15" y="13" width="1" height="1" fill="#000000"/>
			<rect x="16" y="13" width="1" height="1" fill="#000000"/>
			<rect x="20" y="13" width="1" height="1" fill="#000000"/>
			<rect x="21" y="13" width="1" height="1" fill="#000000"/>
			<rect x="22" y="13" width="1" height="1" fill="#000000"/>
			<rect x="23" y="13" width="1" height="1" fill="#000000"/>
			<rect x="0" y="14" width="1" height="1" fill="#000000"/>
			<rect x="1" y="14" width="1" height="1" fill="#000000"/>
			<rect x="2" y="14" width="1" height="1" fill="#000000"/>
			<rect x="3" y="14" width="1" height="1" fill="#000000"/>
			<rect x="5" y="14" width="1" height="1" fill="#000000"/>
			<rect x="6" y="14" width="1" height="1" fill="#000000"/>
			<rect x="7" y="14" width="1" height="1" fill="#000000"/>
			<rect x="8" y="14" width="1" height="1" fill="#000000"/>
			<rect x="9" y="14" width="1" height="1" fill="#000000"/>
			<rect x="12" y="14" width="1" height="1" fill="#000000"/>
			<rect x="13" y="14" width="1" height="1" fill="#000000"/>
			<rect x="15" y="14" width="1" height="1" fill="#000000"/>
			<rect x="19" y="14" width="1" height="1" fill="#000000"/>
			<rect x="21" y="14" width="1" height="1" fill="#000000"/>
			<rect x="23" y="14" width="1" height="1" fill="#000000"/>
			<rect x="24" y="14" width="1" height="1" fill="#000000"/>
			<rect x="0" y="15" width="1" height="1" fill="#000000"/>
			<rect x="3" y="15" width="1" height="1" fill="#000000"/>
			<rect x="9" y="15" width="1" height="1" fill="#000000"/>
			<rect x="15" y="15" width="1" height="1" fill="#000000"/>
			<rect x="17" y="15" width="1" height="1" fill="#000000"/>
			<rect x="18" y="15" width="1" height="1" fill="#000000"/>
			<rect x="19" y="15" width="1" height="1" fill="#000000"/>
			<rect x="21" y="15" width="1" height="1" fill="#000000"/>
			<rect x="22" y="15" width="1" height="1" fill="#000000"/>
			<rect x="23" y="15" width="1" height="1" fill="#000000"/>
			<rect x="0" y="16" width="1" height="1" fill="#000000"/>
			<rect x="3" y="16" width="1" height="1" fill="#000000"/>
			<rect x="4" y="16" width="1" height="1" fill="#000000"/>
			<rect x="5" y="16" width="1" height="1" fill="#000000"/>
			<rect x="6" y="16" width="1" height="1" fill="#000000"/>
			<rect x="8" y="16" width="1" height="1" fill="#000000"/>
			<rect x="9" y="16" width="1" height="1" fill="#000000"/>
			<rect x="10" y="16" width="1" height="1" fill="#000000"/>
			<rect x="12" y="16" width="1" height="1" fill="#000000"/>
			<rect x="13" y="16" width="1" height="1" fill="#000000"/>
			<rect x="16" y="16" width="1" height="1" fill="#000000"/>
			<rect x="17" y="16" width="1" height="1" fill="#000000"/>
			<rect x="18" y="16" width="1" height="1" fill="#000000"/>
			<rect x="19" y="16" width="1" height="1" fill="#000000"/>
			<rect x="20" y="16" width="1" height="1" fill="#000000"/>
			<rect x="21" y="16" width="1" height="1" fill="#000000"/>
			<rect x="22" y="16" width="1" height="1" fill="#000000"/>
			<rect x="24" y="16" width="1" height="1" fill="#000000"/>
			<rect x="8" y="17" width="1" height="1" fill="#000000"/>
			<rect x="10" y="17" width="1" height="1" fill="#000000"/>
			<rect x="13" y="17" width="1" height="1" fill="#000000"/>
			<rect x="16" y="17" width="1" height="1" fill="#000000"/>
			<rect x="20" y="17" width="1" height="1" fill="#000000"/>
			<rect x="22" y="17" width="1" height="1" fill="#000000"/>
			<rect x="0" y="18" width="1" height="1" fill="#000000"/>
			<rect x="1" y="18" width="1" height="1" fill="#000000"/>
			<rect x="2" y="18" width="1" height="1" fill="#000000"/>
			<rect x="3" y="18" width="1" height="1" fill="#000000"/>
			<rect x="4" y="18" width="1" height="1" fill="#000000"/>
			<rect x="5" y="18" width="1" height="1" fill="#000000"/>
			<rect x="6" y="18" width="1" height="1" fill="#000000"/>
			<rect x="9" y="18" width="1" height="1" fill="#000000"/>
			<rect x="10" y="18" width="1" height="1" fill="#000000"/>
			<rect x="11" y="18" width="1" height="1" fill="#000000"/>
			<rect x="13" y="18" width="1" height="1" fill="#000000"/>
			<rect x="16" y="18" width="1" height="1" fill="#000000"/>
			<rect x="18" y="18" width="1" height="1" fill="#000000"/>
			<rect x="20" y="18" width="1" height="1" fill="#000000"/>
			<rect x="22" y="18" width="1" height="1" fill="#000000"/>
			<rect x="24" y="18" width="1" height="1" fill="#000000"/>
			<rect x="0" y="19" width="1" height="1" fill="#000000"/>
			<rect x="6" y="19" width="1" height="1" fill="#000000"/>
			<rect x="9" y="19" width="1" height="1" fill="#000000"/>
			<rect x="13" y="19" width="1" height="1" fill="#000000"/>
			<rect x="15" y="19" width="1" height="1" fill="#000000"/>
			<rect x="16" y="19" width="1" height="1" fill="#000000"/>
			<rect x="20" y="19" width="1" height="1" fill="#000000"/>
			<rect x="21" y="19" width="1" height="1" fill="#000000"/>
			<rect x="0" y="20" width="1" height="1" fill="#000000"/>
			<rect x="2" y="20" width="1" height="1" fill="#000000"/>
			<rect x="3" y="20" width="1" height="1" fill="#000000"/>
			<rect x="4" y="20" width="1" height="1" fill="#000000"/>
			<rect x="6" y="20" width="1" height="1" fill="#000000"/>
			<rect x="8" y="20" width="1" height="1" fill="#000000"/>
			<rect x="9" y="20" width="1" height="1" fill="#000000"/>
			<rect x="11" y="20" width="1" height="1" fill="#000000"/>
			<rect x="12" y="20" width="1" height="1" fill="#000000"/>
			<rect x="14" y="20" width="1" height="1" fill="#000000"/>
			<rect x="15" y="20" width="1" height="1" fill="#000000"/>
			<rect x="16" y="20" width="1" height="1" fill="#000000"/>
			<rect x="17" y="20" width="1" height="1" fill="#000000"/>
			<rect x="18" y="20" width="1" height="1" fill="#000000"/>
			<rect x="19" y="20" width="1" height="1" fill="#000000"/>
			<rect x="20" y="20" width="1" height="1" fill="#000000"/>
			<rect x="21" y="20" width="1" height="1" fill="#000000"/>
			<rect x="23" y="20" width="1" height="1" fill="#000000"/>
			<rect x="0" y="21" width="1" height="1" fill="#000000"/>
			<rect x="2" y="21" width="1" height="1" fill="#000000"/>
			<rect x="3" y="21" width="1" height="1" fill="#000000"/>
			<rect x="4" y="21" width="1" height="1" fill="#000000"/>
			<rect x="6" y="21" width="1" height="1" fill="#000000"/>
			<rect x="8" y="21" width="1" height="1" fill="#000000"/>
			<rect x="10" y="21" width="1" height="1" fill="#000000"/>
			<rect x="11" y="21" width="1" height="1" fill="#000000"/>
			<rect x="12" y="21" width="1" height="1" fill="#000000"/>
			<rect x="14" y="21" width="1" height="1" fill="#000000"/>
			<rect x="15" y="21" width="1" height="1" fill="#000000"/>
			<rect x="18" y="21" width="1" height="1" fill="#000000"/>
			<rect x="21" y="21" width="1" height="1" fill="#000000"/>
			<rect x="23" y="21" width="1" height="1" fill="#000000"/>
			<rect x="24" y="21" width="1" height="1" fill="#000000"/>
			<rect x="0" y="22" width="1" height="1" fill="#000000"/>
			<rect x="2" y="22" width="1" height="1" fill="#000000"/>
			<rect x="3" y="22" width="1" height="1" fill="#000000"/>
			<rect x="4" y="22" width="1" height="1" fill="#000000"/>
			<rect x="6" y="22" width="1" height="1" fill="#000000"/>
			<rect x="11" y="22" width="1" height="1" fill="#000000"/>
			<rect x="12" y="22" width="1" height="1" fill="#000000"/>
			<rect x="15" y="22" width="1" height="1" fill="#000000"/>
			<rect x="17" y="22" width="1" height="1" fill="#000000"/>
			<rect x="19" y="22" width="1" height="1" fill="#000000"/>
			<rect x="20" y="22" width="1" height="1" fill="#000000"/>
			<rect x="23" y="22" width="1" height="1" fill="#000000"/>
			<rect x="24" y="22" width="1" height="1" fill="#000000"/>
			<rect x="0" y="23" width="1" height="1" fill="#000000"/>
			<rect x="6" y="23" width="1" height="1" fill="#000000"/>
			<rect x="8" y="23" width="1" height="1" fill="#000000"/>
			<rect x="10" y="23" width="1" height="1" fill="#000000"/>
			<rect x="12" y="23" width="1" height="1" fill="#000000"/>
			<rect x="14" y="23" width="1" height="1" fill="#000000"/>
			<rect x="21" y="23" width="1" height="1" fill="#000000"/>
			<rect x="22" y="23" width="1" height="1" fill="#000000"/>
			<rect x="23" y="23" width="1" height="1" fill="#000000"/>
			<rect x="24" y="23" width="1" height="1" fill="#000000"/>
			<rect x="0" y="24" width="1" height="1" fill="#000000"/>
			<rect x="1" y="24" width="1" height="1" fill="#000000"/>
			<rect x="2" y="24" width="1" height="1" fill="#000000"/>
			<rect x="3" y="24" width="1" height="1" fill="#000000"/>
			<rect x="4" y="24" width="1" height="1" fill="#000000"/>
			<rect x="5" y="24" width="1" height="1" fill="#000000"/>
			<rect x="6" y="24" width="1" height="1" fill="#000000"/>
			<rect x="8" y="24" width="1" height="1" fill="#000000"/>
			<rect x="10" y="24" width="1" height="1" fill="#000000"/>
			<rect x="11" y="24" width="1" height="1" fill="#000000"/>
			<rect x="16" y="24" width="1" height="1" fill="#000000"/>
			<rect x="17" y="24" width="1" height="1" fill="#000000"/>
			<rect x="19" y="24" width="1" height="1" fill="#000000"/>
			<rect x="20" y="24" width="1" height="1" fill="#000000"/>
			<rect x="24" y="24" width="1" height="1" fill="#000000"/>
		</g>
	</g>
</svg>
