<?xml version="1.0" encoding="UTF-8" standalone="no"?>
<!-- Created with Inkscape (http://www.inkscape.org/) -->

<svg
   width="250"
   height="122"
   viewBox="0 0 62.5 30.5"
   version="1.1"
   id="svg1"
   inkscape:version="1.3.2 (1:1.3.2+202311252150+091e20ef0f)"
   sodipodi:docname="initial_message.svg"
   inkscape:export-filename="initial_message.png"
   inkscape:export-xdpi="96"
   inkscape:export-ydpi="96"
   xmlns:inkscape="http://www.inkscape.org/namespaces/inkscape"
   xmlns:sodipodi="http://sodipodi.sourceforge.net/DTD/sodipodi-0.dtd"
   xmlns="http://www.w3.org/2000/svg"
   xmlns:svg="http://www.w3.org/2000/svg">
  <sodipodi:namedview
     id="namedview1"
     pagecolor="#ffffff"
     bordercolor="#666666"
     borderopacity="1.0"
     inkscape:showpageshadow="2"
     inkscape:pageopacity="0.0"
     inkscape:pagecheckerboard="0"
     inkscape:deskcolor="#d1d1d1"
     inkscape:document-units="mm"
     inkscape:zoom="13.206004"
     inkscape:cx="78.86564"
     inkscape:cy="68.037233"
     inkscape:window-width="3840"
     inkscape:window-height="2087"
     inkscape:window-x="1080"
     inkscape:window-y="0"
     inkscape:window-maximized="1"
     inkscape:current-layer="layer1"
     showgrid="true">
    <inkscape:grid
       id="grid16"
       units="px"
       originx="0"
       originy="0"
       spacingx="0.25"
       spacingy="0.25"
       empcolor="#3f3fff"
       empopacity="0.25098039"
       color="#3f3fff"
       opacity="0.1254902"
       empspacing="1"
       dotted="false"
       gridanglex="30"
       gridanglez="30"
       visible="true" />
  </sodipodi:namedview>
  <defs
     id="defs1" />
  <g
     inkscape:label="Layer 1"
     inkscape:groupmode="layer"
     id="layer1">
    <text
       xml:space="preserve"
       style="font-size:4.0671px;line-height:1.25;font-family:'Roboto Condensed';-inkscape-font-specification:'Roboto Condensed, ';letter-spacing:0px;word-spacing:0px;writing-mode:lr-tb;stroke-width:0.111441"
       x="2.6808023"
       y="5.56845"
       id="text1"><tspan
         sodipodi:role="line"
         style="font-size:4.0671px;writing-mode:lr-tb;stroke-width:0.111441"
         x="2.6808023"
         y="5.56845"
         id="tspan13">Welcome to your</tspan><tspan
         sodipodi:role="line"
         style="font-size:4.0671px;writing-mode:lr-tb;stroke-width:0.111441"
         x="2.6808023"
         y="10.652325"
         id="tspan15">new AmpliPro!</tspan></text>
    <text
       xml:space="preserve"
       style="font-size:4.63982px;line-height:1.25;font-family:'Roboto Condensed';-inkscape-font-specification:'Roboto Condensed, ';letter-spacing:0px;word-spacing:0px;stroke-width:0.115996"
       x="1.0737787"
       y="9.5974474"
       id="text1-7"><tspan
         sodipodi:role="line"
         id="tspan1-2"
         style="stroke-width:0.115996"
         x="1.0737787"
         y="9.5974474" /></text>
    <text
       xml:space="preserve"
       style="font-size:3.91814px;line-height:1.25;font-family:'Roboto Condensed';-inkscape-font-specification:'Roboto Condensed, ';letter-spacing:0px;word-spacing:0px;stroke-width:0.279866"
       x="2.6591823"
       y="21.926825"
       id="text2"><tspan
         sodipodi:role="line"
         id="tspan2"
         style="font-size:3.91814px;stroke-width:0.279866"
         x="2.6591823"
         y="21.926825">Scan code for the</tspan><tspan
         sodipodi:role="line"
         style="font-size:3.91814px;stroke-width:0.279866"
         x="2.6591823"
         y="26.824499"
         id="tspan16">quickstart guide!</tspan></text>
  </g>
  <g
     inkscape:label="QR Code: https://inkscape.org"
     transform="translate(26.230488,19.869077)"
     id="g33">
    <g
       style="fill:#000000;stroke:none"
       id="g32"
       transform="translate(5.5543395,-21.119077)">
      <path
         d="M 4,4 H 5 V 5 H 4 Z M 5,4 H 6 V 5 H 5 Z M 6,4 H 7 V 5 H 6 Z M 7,4 H 8 V 5 H 7 Z M 8,4 H 9 V 5 H 8 Z m 1,0 h 1 V 5 H 9 Z m 1,0 h 1 v 1 h -1 z m 2,0 h 1 v 1 h -1 z m 1,0 h 1 v 1 h -1 z m 1,0 h 1 v 1 h -1 z m 1,0 h 1 v 1 h -1 z m 3,0 h 1 v 1 h -1 z m 4,0 h 1 v 1 h -1 z m 1,0 h 1 v 1 h -1 z m 1,0 h 1 v 1 h -1 z m 1,0 h 1 v 1 h -1 z m 1,0 h 1 v 1 h -1 z m 1,0 h 1 v 1 h -1 z m 1,0 h 1 V 5 H 28 Z M 4,5 H 5 V 6 H 4 Z m 6,0 h 1 v 1 h -1 z m 2,0 h 1 v 1 h -1 z m 3,0 h 1 v 1 h -1 z m 2,0 h 1 v 1 h -1 z m 1,0 h 1 v 1 h -1 z m 4,0 h 1 v 1 h -1 z m 6,0 h 1 V 6 H 28 Z M 4,6 H 5 V 7 H 4 Z M 6,6 H 7 V 7 H 6 Z M 7,6 H 8 V 7 H 7 Z M 8,6 H 9 V 7 H 8 Z m 2,0 h 1 v 1 h -1 z m 3,0 h 1 v 1 h -1 z m 4,0 h 1 v 1 h -1 z m 5,0 h 1 v 1 h -1 z m 2,0 h 1 v 1 h -1 z m 1,0 h 1 v 1 h -1 z m 1,0 h 1 v 1 h -1 z m 2,0 h 1 V 7 H 28 Z M 4,7 H 5 V 8 H 4 Z M 6,7 H 7 V 8 H 6 Z M 7,7 H 8 V 8 H 7 Z M 8,7 H 9 V 8 H 8 Z m 2,0 h 1 v 1 h -1 z m 5,0 h 1 v 1 h -1 z m 1,0 h 1 v 1 h -1 z m 1,0 h 1 v 1 h -1 z m 1,0 h 1 v 1 h -1 z m 1,0 h 1 v 1 h -1 z m 3,0 h 1 v 1 h -1 z m 2,0 h 1 v 1 h -1 z m 1,0 h 1 v 1 h -1 z m 1,0 h 1 v 1 h -1 z m 2,0 h 1 V 8 H 28 Z M 4,8 H 5 V 9 H 4 Z M 6,8 H 7 V 9 H 6 Z M 7,8 H 8 V 9 H 7 Z M 8,8 H 9 V 9 H 8 Z m 2,0 h 1 v 1 h -1 z m 2,0 h 1 v 1 h -1 z m 3,0 h 1 v 1 h -1 z m 1,0 h 1 v 1 h -1 z m 1,0 h 1 v 1 h -1 z m 3,0 h 1 v 1 h -1 z m 2,0 h 1 v 1 h -1 z m 2,0 h 1 v 1 h -1 z m 1,0 h 1 v 1 h -1 z m 1,0 h 1 v 1 h -1 z m 2,0 h 1 V 9 H 28 Z M 4,9 h 1 v 1 H 4 Z m 6,0 h 1 v 1 h -1 z m 2,0 h 1 v 1 h -1 z m 1,0 h 1 v 1 h -1 z m 1,0 h 1 v 1 h -1 z m 2,0 h 1 v 1 h -1 z m 1,0 h 1 v 1 h -1 z m 3,0 h 1 v 1 h -1 z m 2,0 h 1 v 1 h -1 z m 6,0 h 1 v 1 H 28 Z M 4,10 h 1 v 1 H 4 Z m 1,0 h 1 v 1 H 5 Z m 1,0 h 1 v 1 H 6 Z m 1,0 h 1 v 1 H 7 Z m 1,0 h 1 v 1 H 8 Z m 1,0 h 1 v 1 H 9 Z m 1,0 h 1 v 1 h -1 z m 2,0 h 1 v 1 h -1 z m 2,0 h 1 v 1 h -1 z m 2,0 h 1 v 1 h -1 z m 2,0 h 1 v 1 h -1 z m 2,0 h 1 v 1 h -1 z m 2,0 h 1 v 1 h -1 z m 1,0 h 1 v 1 h -1 z m 1,0 h 1 v 1 h -1 z m 1,0 h 1 v 1 h -1 z m 1,0 h 1 v 1 h -1 z m 1,0 h 1 v 1 h -1 z m 1,0 h 1 v 1 h -1 z m -16,1 h 1 v 1 h -1 z m 1,0 h 1 v 1 h -1 z m 7,0 h 1 v 1 H 20 Z M 4,12 h 1 v 1 H 4 Z m 1,0 h 1 v 1 H 5 Z m 1,0 h 1 v 1 H 6 Z m 3,0 h 1 v 1 H 9 Z m 1,0 h 1 v 1 h -1 z m 2,0 h 1 v 1 h -1 z m 1,0 h 1 v 1 h -1 z m 2,0 h 1 v 1 h -1 z m 1,0 h 1 v 1 h -1 z m 3,0 h 1 v 1 h -1 z m 1,0 h 1 v 1 h -1 z m 1,0 h 1 v 1 h -1 z m 1,0 h 1 v 1 h -1 z m 1,0 h 1 v 1 h -1 z m 1,0 h 1 v 1 h -1 z m 3,0 h 1 v 1 h -1 z m 1,0 h 1 v 1 H 28 Z M 5,13 h 1 v 1 H 5 Z m 1,0 h 1 v 1 H 6 Z m 1,0 h 1 v 1 H 7 Z m 2,0 h 1 v 1 H 9 Z m 3,0 h 1 v 1 h -1 z m 4,0 h 1 v 1 h -1 z m 3,0 h 1 v 1 h -1 z m 1,0 h 1 v 1 h -1 z m 2,0 h 1 v 1 h -1 z m 1,0 h 1 v 1 h -1 z m 2,0 h 1 v 1 h -1 z m 2,0 h 1 v 1 h -1 z m 1,0 h 1 v 1 H 28 Z M 5,14 h 1 v 1 H 5 Z m 1,0 h 1 v 1 H 6 Z m 2,0 h 1 v 1 H 8 Z m 1,0 h 1 v 1 H 9 Z m 1,0 h 1 v 1 h -1 z m 3,0 h 1 v 1 h -1 z m 1,0 h 1 v 1 h -1 z m 2,0 h 1 v 1 h -1 z m 3,0 h 1 v 1 h -1 z m 1,0 h 1 v 1 h -1 z m 4,0 h 1 v 1 h -1 z m 1,0 h 1 v 1 h -1 z m 1,0 h 1 v 1 h -1 z m 2,0 h 1 v 1 H 28 Z M 4,15 h 1 v 1 H 4 Z m 1,0 h 1 v 1 H 5 Z m 4,0 h 1 v 1 H 9 Z m 2,0 h 1 v 1 h -1 z m 3,0 h 1 v 1 h -1 z m 1,0 h 1 v 1 h -1 z m 1,0 h 1 v 1 h -1 z m 2,0 h 1 v 1 h -1 z m 4,0 h 1 v 1 h -1 z m 2,0 h 1 v 1 h -1 z m 1,0 h 1 v 1 H 25 Z M 4,16 h 1 v 1 H 4 Z m 1,0 h 1 v 1 H 5 Z m 3,0 h 1 v 1 H 8 Z m 2,0 h 1 v 1 h -1 z m 2,0 h 1 v 1 h -1 z m 1,0 h 1 v 1 h -1 z m 1,0 h 1 v 1 h -1 z m 3,0 h 1 v 1 h -1 z m 1,0 h 1 v 1 h -1 z m 1,0 h 1 v 1 h -1 z m 3,0 h 1 v 1 h -1 z m 1,0 h 1 v 1 h -1 z m 5,0 h 1 v 1 H 28 Z M 6,17 h 1 v 1 H 6 Z m 1,0 h 1 v 1 H 7 Z m 2,0 h 1 v 1 H 9 Z m 4,0 h 1 v 1 h -1 z m 1,0 h 1 v 1 h -1 z m 3,0 h 1 v 1 h -1 z m 2,0 h 1 v 1 h -1 z m 1,0 h 1 v 1 h -1 z m 2,0 h 1 v 1 h -1 z m 1,0 h 1 v 1 h -1 z m 4,0 h 1 v 1 h -1 z m 1,0 h 1 v 1 H 28 Z M 4,18 h 1 v 1 H 4 Z m 1,0 h 1 v 1 H 5 Z m 3,0 h 1 v 1 H 8 Z m 2,0 h 1 v 1 h -1 z m 2,0 h 1 v 1 h -1 z m 3,0 h 1 v 1 h -1 z m 4,0 h 1 v 1 h -1 z m 2,0 h 1 v 1 h -1 z m 4,0 h 1 v 1 h -1 z m 1,0 h 1 v 1 h -1 z m 2,0 h 1 v 1 H 28 Z M 6,19 h 1 v 1 H 6 Z m 2,0 h 1 v 1 H 8 Z m 1,0 h 1 v 1 H 9 Z m 3,0 h 1 v 1 h -1 z m 1,0 h 1 v 1 h -1 z m 4,0 h 1 v 1 h -1 z m 4,0 h 1 v 1 h -1 z m 1,0 h 1 v 1 h -1 z m 1,0 h 1 v 1 h -1 z m 1,0 h 1 v 1 h -1 z m 1,0 h 1 v 1 H 25 Z M 4,20 h 1 v 1 H 4 Z m 1,0 h 1 v 1 H 5 Z m 1,0 h 1 v 1 H 6 Z m 1,0 h 1 v 1 H 7 Z m 1,0 h 1 v 1 H 8 Z m 2,0 h 1 v 1 h -1 z m 1,0 h 1 v 1 h -1 z m 3,0 h 1 v 1 h -1 z m 1,0 h 1 v 1 h -1 z m 1,0 h 1 v 1 h -1 z m 1,0 h 1 v 1 h -1 z m 2,0 h 1 v 1 h -1 z m 1,0 h 1 v 1 h -1 z m 1,0 h 1 v 1 h -1 z m 1,0 h 1 v 1 h -1 z m 1,0 h 1 v 1 h -1 z m 1,0 h 1 v 1 h -1 z m 3,0 h 1 v 1 h -1 z m -15,1 h 1 v 1 h -1 z m 2,0 h 1 v 1 h -1 z m 2,0 h 1 v 1 h -1 z m 4,0 h 1 v 1 h -1 z m 4,0 h 1 v 1 h -1 z m 4,0 h 1 v 1 H 28 Z M 4,22 h 1 v 1 H 4 Z m 1,0 h 1 v 1 H 5 Z m 1,0 h 1 v 1 H 6 Z m 1,0 h 1 v 1 H 7 Z m 1,0 h 1 v 1 H 8 Z m 1,0 h 1 v 1 H 9 Z m 1,0 h 1 v 1 h -1 z m 3,0 h 1 v 1 h -1 z m 1,0 h 1 v 1 h -1 z m 2,0 h 1 v 1 h -1 z m 1,0 h 1 v 1 h -1 z m 1,0 h 1 v 1 h -1 z m 2,0 h 1 v 1 h -1 z m 2,0 h 1 v 1 h -1 z m 2,0 h 1 v 1 h -1 z m 4,0 h 1 v 1 H 28 Z M 4,23 h 1 v 1 H 4 Z m 6,0 h 1 v 1 h -1 z m 2,0 h 1 v 1 h -1 z m 1,0 h 1 v 1 h -1 z m 1,0 h 1 v 1 h -1 z m 1,0 h 1 v 1 h -1 z m 1,0 h 1 v 1 h -1 z m 2,0 h 1 v 1 h -1 z m 1,0 h 1 v 1 h -1 z m 1,0 h 1 v 1 h -1 z m 4,0 h 1 v 1 H 24 Z M 4,24 h 1 v 1 H 4 Z m 2,0 h 1 v 1 H 6 Z m 1,0 h 1 v 1 H 7 Z m 1,0 h 1 v 1 H 8 Z m 2,0 h 1 v 1 h -1 z m 7,0 h 1 v 1 h -1 z m 1,0 h 1 v 1 h -1 z m 1,0 h 1 v 1 h -1 z m 1,0 h 1 v 1 h -1 z m 1,0 h 1 v 1 h -1 z m 1,0 h 1 v 1 h -1 z m 1,0 h 1 v 1 h -1 z m 1,0 h 1 v 1 h -1 z m 4,0 h 1 v 1 H 28 Z M 4,25 h 1 v 1 H 4 Z m 2,0 h 1 v 1 H 6 Z m 1,0 h 1 v 1 H 7 Z m 1,0 h 1 v 1 H 8 Z m 2,0 h 1 v 1 h -1 z m 4,0 h 1 v 1 h -1 z m 3,0 h 1 v 1 h -1 z m 1,0 h 1 v 1 h -1 z m 1,0 h 1 v 1 h -1 z m 1,0 h 1 v 1 h -1 z m 1,0 h 1 v 1 h -1 z m 3,0 h 1 v 1 h -1 z m 2,0 h 1 v 1 h -1 z m 1,0 h 1 v 1 H 27 Z M 4,26 h 1 v 1 H 4 Z m 2,0 h 1 v 1 H 6 Z m 1,0 h 1 v 1 H 7 Z m 1,0 h 1 v 1 H 8 Z m 2,0 h 1 v 1 h -1 z m 2,0 h 1 v 1 h -1 z m 1,0 h 1 v 1 h -1 z m 1,0 h 1 v 1 h -1 z m 1,0 h 1 v 1 h -1 z m 4,0 h 1 v 1 h -1 z m 1,0 h 1 v 1 h -1 z m 3,0 h 1 v 1 h -1 z m 1,0 h 1 v 1 h -1 z m 1,0 h 1 v 1 h -1 z m 2,0 h 1 v 1 h -1 z m 1,0 h 1 v 1 H 28 Z M 4,27 h 1 v 1 H 4 Z m 6,0 h 1 v 1 h -1 z m 2,0 h 1 v 1 h -1 z m 1,0 h 1 v 1 h -1 z m 4,0 h 1 v 1 h -1 z m 3,0 h 1 v 1 h -1 z m 3,0 h 1 v 1 h -1 z m 1,0 h 1 v 1 H 24 Z M 4,28 h 1 v 1 H 4 Z m 1,0 h 1 v 1 H 5 Z m 1,0 h 1 v 1 H 6 Z m 1,0 h 1 v 1 H 7 Z m 1,0 h 1 v 1 H 8 Z m 1,0 h 1 v 1 H 9 Z m 1,0 h 1 v 1 h -1 z m 2,0 h 1 v 1 h -1 z m 1,0 h 1 v 1 h -1 z m 1,0 h 1 v 1 h -1 z m 1,0 h 1 v 1 h -1 z m 1,0 h 1 v 1 h -1 z m 1,0 h 1 v 1 h -1 z m 3,0 h 1 v 1 h -1 z m 5,0 h 1 v 1 h -1 z m 3,0 h 1 v 1 h -1 z"
         id="path32" />
    </g>
  </g>
</svg>
