<?xml version="1.0" encoding="UTF-8" standalone="no"?>
<!-- Created with Inkscape (http://www.inkscape.org/) -->

<svg
   width="250"
   height="122"
   viewBox="0 0 62.5 30.5"
   version="1.1"
   id="svg1"
   inkscape:version="1.3.2 (1:1.3.2+202311252150+091e20ef0f)"
   sodipodi:docname="delivery_message.svg"
   inkscape:export-filename="delivery_message.png"
   inkscape:export-xdpi="96"
   inkscape:export-ydpi="96"
   xmlns:inkscape="http://www.inkscape.org/namespaces/inkscape"
   xmlns:sodipodi="http://sodipodi.sourceforge.net/DTD/sodipodi-0.dtd"
   xmlns="http://www.w3.org/2000/svg"
   xmlns:svg="http://www.w3.org/2000/svg">
  <sodipodi:namedview
     id="namedview1"
     pagecolor="#ffffff"
     bordercolor="#666666"
     borderopacity="1.0"
     inkscape:showpageshadow="2"
     inkscape:pageopacity="0.0"
     inkscape:pagecheckerboard="0"
     inkscape:deskcolor="#d1d1d1"
     inkscape:document-units="mm"
     inkscape:zoom="2"
     inkscape:cx="116.75"
     inkscape:cy="-52.75"
     inkscape:window-width="3840"
     inkscape:window-height="2083"
     inkscape:window-x="1080"
     inkscape:window-y="0"
     inkscape:window-maximized="1"
     inkscape:current-layer="g15"
     showgrid="true">
    <inkscape:grid
       id="grid16"
       units="px"
       originx="0"
       originy="0"
       spacingx="0.25"
       spacingy="0.25"
       empcolor="#3f3fff"
       empopacity="0.25098039"
       color="#3f3fff"
       opacity="0.1254902"
       empspacing="1"
       dotted="false"
       gridanglex="30"
       gridanglez="30"
       visible="true" />
  </sodipodi:namedview>
  <defs
     id="defs1" />
  <g
     inkscape:label="Layer 1"
     inkscape:groupmode="layer"
     id="layer1">
    <text
       xml:space="preserve"
       style="font-size:4.0671px;line-height:1.25;font-family:'Roboto Condensed';-inkscape-font-specification:'Roboto Condensed, ';letter-spacing:0px;word-spacing:0px;writing-mode:lr-tb;stroke-width:0.111441"
       x="2.6808023"
       y="5.56845"
       id="text1"><tspan
         sodipodi:role="line"
         style="font-size:4.0671px;writing-mode:lr-tb;stroke-width:0.111441"
         x="2.6808023"
         y="5.56845"
         id="tspan13">Welcome to your</tspan><tspan
         sodipodi:role="line"
         style="font-size:4.0671px;writing-mode:lr-tb;stroke-width:0.111441"
         x="2.6808023"
         y="10.652325"
         id="tspan15">new AmpliPro!</tspan></text>
    <text
       xml:space="preserve"
       style="font-size:4.63982px;line-height:1.25;font-family:'Roboto Condensed';-inkscape-font-specification:'Roboto Condensed, ';letter-spacing:0px;word-spacing:0px;stroke-width:0.115996"
       x="1.0737787"
       y="9.5974474"
       id="text1-7"><tspan
         sodipodi:role="line"
         id="tspan1-2"
         style="stroke-width:0.115996"
         x="1.0737787"
         y="9.5974474" /></text>
    <text
       xml:space="preserve"
       style="font-size:3.91814px;line-height:1.25;font-family:'Roboto Condensed';-inkscape-font-specification:'Roboto Condensed, ';letter-spacing:0px;word-spacing:0px;stroke-width:0.279866"
       x="2.6591823"
       y="21.926825"
       id="text2"><tspan
         sodipodi:role="line"
         id="tspan2"
         style="font-size:3.91814px;stroke-width:0.279866"
         x="2.6591823"
         y="21.926825">Scan code for the</tspan><tspan
         sodipodi:role="line"
         style="font-size:3.91814px;stroke-width:0.279866"
         x="2.6591823"
         y="26.824499"
         id="tspan16">quickstart guide!</tspan></text>
  </g>
  <g
     inkscape:label="QR Code: https://amplipi.com/getting-started"
     transform="translate(26.750102,-3.2699206)"
     id="g15">
    <g
       style="fill:#000000;stroke:none"
       id="g14"
       transform="translate(2)">
      <path
         d="m 32,33 h -1 c 0,0 0,0 0,0 v -2 h 1 z m -4,0 h -2 c 0,0 0,0 0,0 v -2 c 0,0 0,0 0,0 h 1 c 0,0 0,0 0,0 v -2 c 0,0 0,0 0,0 h -3 v -2 c 0,0 0,0 0,0 h -1 c 0,0 0,0 0,0 v 1 c 0,0 0,0 0,0 h -1 v -1 c 0,0 0,0 0,0 h -1 c 0,0 0,0 0,0 v 1 h -1 v -3 c 0,0 0,0 0,0 h 1 c 0,0 0,0 0,0 v -3 c 0,0 0,0 0,0 h 1 c 0,0 0,0 0,0 v 1 c 0,0 0,0 0,0 h 2 v 1 h -2 c 0,0 0,0 0,0 v 1 c 0,0 0,0 0,0 h 1 c 0,0 0,0 0,0 v 1 c 0,0 0,0 0,0 h 1 c 0,0 0,0 0,0 v -2 h 1 c 0,0 0,0 0,0 v -1 c 0,0 0,0 0,0 h -1 v -2 c 0,0 0,0 0,0 h -2 c 0,0 0,0 0,0 v -2 c 0,0 0,0 0,0 h -1 c 0,0 0,0 0,0 v 2 c 0,0 0,0 0,0 h -1 v -1 c 0,0 0,0 0,0 h -1 c 0,0 0,0 0,0 v -1 h 1 c 0,0 0,0 0,0 v -1 c 0,0 0,0 0,0 h -1 v -2 h 1 c 0,0 0,0 0,0 v 1 c 0,0 0,0 0,0 h 1 v 1 c 0,0 0,0 0,0 h 2 c 0,0 0,0 0,0 v -2 h 1 v 1 c 0,0 0,0 0,0 h 3 c 0,0 0,0 0,0 v 2 c 0,0 0,0 0,0 h -1 v -1 c 0,0 0,0 0,0 h -1 c 0,0 0,0 0,0 v 1 c 0,0 0,0 0,0 h 1 v 2 c 0,0 0,0 0,0 h -1 c 0,0 0,0 0,0 v 1 c 0,0 0,0 0,0 h 2 c 0,0 0,0 0,0 v -1 c 0,0 0,0 0,0 h 1 v 1 c 0,0 0,0 0,0 h 1 v 2 c 0,0 0,0 0,0 h 1 c 0,0 0,0 0,0 v -2 c 0,0 0,0 0,0 h -1 v -1 c 0,0 0,0 0,0 h -1 v -2 c 0,0 0,0 0,0 h 1 c 0,0 0,0 0,0 v 1 c 0,0 0,0 0,0 h 1 c 0,0 0,0 0,0 v 1 c 0,0 0,0 0,0 h 1 c 0,0 0,0 0,0 v -2 c 0,0 0,0 0,0 h -1 c 0,0 0,0 0,0 v -2 c 0,0 0,0 0,0 h -1 c 0,0 0,0 0,0 v -1 h 2 c 0,0 0,0 0,0 v 1 c 0,0 0,0 0,0 h 2 c 0,0 0,0 0,0 v 2 c 0,0 0,0 0,0 h -1 c 0,0 0,0 0,0 v 3 c 0,0 0,0 0,0 h -1 c 0,0 0,0 0,0 v 3 c 0,0 0,0 0,0 h 2 c 0,0 0,0 0,0 v 1 c 0,0 0,0 0,0 h -1 c 0,0 0,0 0,0 v 3 h -2 v -1 h 1 c 0,0 0,0 0,0 v -2 c 0,0 0,0 0,0 h -1 c 0,0 0,0 0,0 v 2 h -1 c 0,0 0,0 0,0 v 1 c 0,0 0,0 0,0 h 1 v 1 h -2 c 0,0 0,0 0,0 v 1 c 0,0 0,0 0,0 h 2 v 1 c 0,0 0,0 0,0 h -2 c 0,0 0,0 0,0 z m -3,0 h -3 c 0,0 0,0 0,0 v -1 c 0,0 0,0 0,0 h 2 c 0,0 0,0 0,0 v -1 h 1 c 0,0 0,0 0,0 z m -4,0 h -1 c 0,0 0,0 0,0 v -1 c 0,0 0,0 0,0 h -1 c 0,0 0,0 0,0 v 1 c 0,0 0,0 0,0 h -1 c 0,0 0,0 0,0 v -1 c 0,0 0,0 0,0 h -1 c 0,0 0,0 0,0 v -1 h 3 c 0,0 0,0 0,0 v -1 c 0,0 0,0 0,0 h -3 v -1 h 1 c 0,0 0,0 0,0 v -1 c 0,0 0,0 0,0 h 2 v 1 c 0,0 0,0 0,0 h 1 c 0,0 0,0 0,0 v -1 h 1 v 1 c 0,0 0,0 0,0 h 2 v 2 h -1 c 0,0 0,0 0,0 v -1 c 0,0 0,0 0,0 h -1 c 0,0 0,0 0,0 v 1 c 0,0 0,0 0,0 h -1 c 0,0 0,0 0,0 z m -6,0 h -1 c 0,0 0,0 0,0 v -1 h 1 z m -2,0 h -1 c 0,0 0,0 0,0 v -1 c 0,0 0,0 0,0 h 1 z m -2,0 H 4 c 0,0 0,0 0,0 v -7 c 0,0 0,0 0,0 h 7 c 0,0 0,0 0,0 z m 5,-1 h -1 v -2 h 2 v 1 h -1 c 0,0 0,0 0,0 z m -2,0 h -1 v -1 h 1 c 0,0 0,0 0,0 z m -4,0 v -5 c 0,0 0,0 0,0 H 5 c 0,0 0,0 0,0 v 5 c 0,0 0,0 0,0 z m 23,-1 h -1 v -2 h 1 c 0,0 0,0 0,0 z m -2,0 h -1 v -1 h 1 c 0,0 0,0 0,0 z m -18,0 h -1 c 0,0 0,0 0,0 v -2 c 0,0 0,0 0,0 h 2 c 0,0 0,0 0,0 v -1 c 0,0 0,0 0,0 h 3 c 0,0 0,0 0,0 v 1 h -2 c 0,0 0,0 0,0 v 1 h -2 c 0,0 0,0 0,0 z M 9,31 H 6 c 0,0 0,0 0,0 v -3 c 0,0 0,0 0,0 h 3 c 0,0 0,0 0,0 z m 19,-3 v -3 c 0,0 0,0 0,0 h -3 c 0,0 0,0 0,0 v 3 c 0,0 0,0 0,0 z m -15,0 h -1 c 0,0 0,0 0,0 v -5 c 0,0 0,0 0,0 h -2 c 0,0 0,0 0,0 v 1 c 0,0 0,0 0,0 h 1 c 0,0 0,0 0,0 v 1 c 0,0 0,0 0,0 H 5 c 0,0 0,0 0,0 v -1 c 0,0 0,0 0,0 h 1 c 0,0 0,0 0,0 v -5 c 0,0 0,0 0,0 h 1 c 0,0 0,0 0,0 v -1 h 1 c 0,0 0,0 0,0 v -2 c 0,0 0,0 0,0 H 7 c 0,0 0,0 0,0 v 2 H 5 v -1 c 0,0 0,0 0,0 h 1 c 0,0 0,0 0,0 v -2 c 0,0 0,0 0,0 H 5 v -2 h 1 v 1 c 0,0 0,0 0,0 h 2 c 0,0 0,0 0,0 v 1 c 0,0 0,0 0,0 h 2 v 1 H 9 c 0,0 0,0 0,0 v 3 c 0,0 0,0 0,0 H 8 c 0,0 0,0 0,0 v 1 c 0,0 0,0 0,0 H 7 c 0,0 0,0 0,0 v 2 c 0,0 0,0 0,0 h 1 v 1 c 0,0 0,0 0,0 H 7 c 0,0 0,0 0,0 v 1 c 0,0 0,0 0,0 h 2 c 0,0 0,0 0,0 v -2 h 2 c 0,0 0,0 0,0 v -1 h 1 c 0,0 0,0 0,0 v -1 c 0,0 0,0 0,0 h 1 c 0,0 0,0 0,0 v 1 c 0,0 0,0 0,0 h 1 c 0,0 0,0 0,0 v 1 c 0,0 0,0 0,0 h 1 c 0,0 0,0 0,0 v -1 c 0,0 0,0 0,0 h 1 c 0,0 0,0 0,0 v -3 c 0,0 0,0 0,0 h -4 c 0,0 0,0 0,0 v 1 c 0,0 0,0 0,0 h -2 c 0,0 0,0 0,0 v -1 c 0,0 0,0 0,0 h 1 c 0,0 0,0 0,0 v -1 c 0,0 0,0 0,0 h -1 c 0,0 0,0 0,0 v -1 h 1 c 0,0 0,0 0,0 v -1 h 1 c 0,0 0,0 0,0 v -1 c 0,0 0,0 0,0 h 1 v 1 c 0,0 0,0 0,0 h 1 c 0,0 0,0 0,0 v -1 c 0,0 0,0 0,0 h -1 v -1 c 0,0 0,0 0,0 h 1 c 0,0 0,0 0,0 v -1 h 1 v 2 c 0,0 0,0 0,0 h 1 c 0,0 0,0 0,0 v -1 c 0,0 0,0 0,0 h 1 v 2 c 0,0 0,0 0,0 h 1 c 0,0 0,0 0,0 v -1 c 0,0 0,0 0,0 h 1 c 0,0 0,0 0,0 v 2 h -2 c 0,0 0,0 0,0 v 1 c 0,0 0,0 0,0 h 1 c 0,0 0,0 0,0 v 1 h -1 c 0,0 0,0 0,0 v 1 c 0,0 0,0 0,0 h 1 v 1 c 0,0 0,0 0,0 h -1 c 0,0 0,0 0,0 v 1 c 0,0 0,0 0,0 h 1 c 0,0 0,0 0,0 v 1 c 0,0 0,0 0,0 h -2 c 0,0 0,0 0,0 v 1 h -1 c 0,0 0,0 0,0 v 1 c 0,0 0,0 0,0 h 1 c 0,0 0,0 0,0 v -1 h 1 c 0,0 0,0 0,0 v 1 c 0,0 0,0 0,0 h 1 c 0,0 0,0 0,0 v 1 c 0,0 0,0 0,0 h 1 c 0,0 0,0 0,0 v 1 c 0,0 0,0 0,0 h -1 c 0,0 0,0 0,0 v 1 c 0,0 0,0 0,0 h -1 c 0,0 0,0 0,0 v -2 c 0,0 0,0 0,0 h -1 c 0,0 0,0 0,0 v 1 c 0,0 0,0 0,0 h -1 v -1 c 0,0 0,0 0,0 h -1 v -2 c 0,0 0,0 0,0 h -1 c 0,0 0,0 0,0 v 2 c 0,0 0,0 0,0 h 1 v 1 h -1 c 0,0 0,0 0,0 z m 14,-1 h -1 c 0,0 0,0 0,0 v -1 c 0,0 0,0 0,0 h 1 c 0,0 0,0 0,0 z m -12,0 h -1 c 0,0 0,0 0,0 v -1 h 1 z m 13,-3 v -1 c 0,0 0,0 0,0 h -2 c 0,0 0,0 0,0 v 1 c 0,0 0,0 0,0 z m -8,0 h -1 c 0,0 0,0 0,0 v -3 c 0,0 0,0 0,0 h 1 z M 5,23 H 4 c 0,0 0,0 0,0 v -1 c 0,0 0,0 0,0 h 1 c 0,0 0,0 0,0 z M 9,22 H 8 v -1 c 0,0 0,0 0,0 h 1 c 0,0 0,0 0,0 z m 2,-1 h -1 c 0,0 0,0 0,0 v -1 c 0,0 0,0 0,0 h 1 c 0,0 0,0 0,0 z M 5,21 H 4 c 0,0 0,0 0,0 v -3 c 0,0 0,0 0,0 h 1 z m 19,-1 v -1 c 0,0 0,0 0,0 h -1 c 0,0 0,0 0,0 v 1 c 0,0 0,0 0,0 z m -5,-1 h -1 v -1 h 1 z m 3,-2 h -1 v -1 c 0,0 0,0 0,0 h 1 z m -7,0 v -1 h 1 c 0,0 0,0 0,0 v -1 c 0,0 0,0 0,0 h -1 c 0,0 0,0 0,0 v 1 h -3 c 0,0 0,0 0,0 v 1 c 0,0 0,0 0,0 z m 18,-1 h -1 c 0,0 0,0 0,0 v -1 h 1 c 0,0 0,0 0,0 z m -4,0 h -5 v -1 c 0,0 0,0 0,0 h 2 c 0,0 0,0 0,0 v -1 c 0,0 0,0 0,0 h -4 c 0,0 0,0 0,0 v 1 h -2 c 0,0 0,0 0,0 V 9 c 0,0 0,0 0,0 h 1 v 2 c 0,0 0,0 0,0 h 1 v 1 c 0,0 0,0 0,0 h 1 c 0,0 0,0 0,0 v -1 h 1 v 2 c 0,0 0,0 0,0 h 2 c 0,0 0,0 0,0 v -1 c 0,0 0,0 0,0 h 1 c 0,0 0,0 0,0 v 1 c 0,0 0,0 0,0 h 2 v 1 c 0,0 0,0 0,0 h -1 c 0,0 0,0 0,0 v 1 c 0,0 0,0 0,0 h 1 c 0,0 0,0 0,0 z m -6,0 h -1 v -1 h 1 c 0,0 0,0 0,0 z M 5,16 H 4 c 0,0 0,0 0,0 v -1 c 0,0 0,0 0,0 h 1 z m 27,-1 h -2 c 0,0 0,0 0,0 v -1 c 0,0 0,0 0,0 h 2 z m -21,0 h -1 v -1 c 0,0 0,0 0,0 h 1 c 0,0 0,0 0,0 z m 22,-1 h -1 v -1 c 0,0 0,0 0,0 h -1 c 0,0 0,0 0,0 v -1 c 0,0 0,0 0,0 h 2 c 0,0 0,0 0,0 z m -3,-1 h -1 v -1 c 0,0 0,0 0,0 h 1 c 0,0 0,0 0,0 z m -11,0 h -2 v -1 c 0,0 0,0 0,0 h -2 v -1 h 1 c 0,0 0,0 0,0 v -1 h 1 c 0,0 0,0 0,0 v 1 c 0,0 0,0 0,0 h 1 c 0,0 0,0 0,0 V 9 h 1 c 0,0 0,0 0,0 z m -7,0 H 9 c 0,0 0,0 0,0 v -1 c 0,0 0,0 0,0 h 3 z M 8,13 H 6 v -1 c 0,0 0,0 0,0 h 2 c 0,0 0,0 0,0 z M 5,13 H 4 c 0,0 0,0 0,0 v -1 c 0,0 0,0 0,0 h 1 c 0,0 0,0 0,0 z m 9,-1 h -2 v -2 c 0,0 0,0 0,0 h 1 v 1 c 0,0 0,0 0,0 h 1 z m 19,-1 h -7 c 0,0 0,0 0,0 V 4 c 0,0 0,0 0,0 h 7 c 0,0 0,0 0,0 z m -8,0 h -1 v -1 c 0,0 0,0 0,0 h -1 c 0,0 0,0 0,0 v 1 H 22 V 9 c 0,0 0,0 0,0 H 21 V 7 c 0,0 0,0 0,0 h 1 c 0,0 0,0 0,0 v 1 c 0,0 0,0 0,0 h 2 c 0,0 0,0 0,0 v 1 c 0,0 0,0 0,0 h 1 c 0,0 0,0 0,0 z m -10,0 h -1 v -1 h 1 z m -4,0 H 4 c 0,0 0,0 0,0 V 4 c 0,0 0,0 0,0 h 7 c 0,0 0,0 0,0 z M 32,10 V 5 c 0,0 0,0 0,0 h -5 c 0,0 0,0 0,0 v 5 c 0,0 0,0 0,0 z M 16,10 H 15 V 8 h 1 z m -2,0 H 13 V 9 c 0,0 0,0 0,0 h 1 c 0,0 0,0 0,0 z m -4,0 V 5 c 0,0 0,0 0,0 H 5 c 0,0 0,0 0,0 v 5 c 0,0 0,0 0,0 z M 31,9 h -3 c 0,0 0,0 0,0 V 6 c 0,0 0,0 0,0 h 3 c 0,0 0,0 0,0 z M 18,9 h -1 c 0,0 0,0 0,0 V 8 h 1 c 0,0 0,0 0,0 z M 9,9 H 6 C 6,9 6,9 6,9 V 6 C 6,6 6,6 6,6 H 9 C 9,6 9,6 9,6 Z M 17,8 H 16 V 7 c 0,0 0,0 0,0 h 1 z m -2,0 h -3 c 0,0 0,0 0,0 V 7 c 0,0 0,0 0,0 h 1 c 0,0 0,0 0,0 V 6 c 0,0 0,0 0,0 h -1 c 0,0 0,0 0,0 V 4 c 0,0 0,0 0,0 h 3 c 0,0 0,0 0,0 v 1 h -1 c 0,0 0,0 0,0 v 2 c 0,0 0,0 0,0 h 1 c 0,0 0,0 0,0 z M 25,7 h -2 c 0,0 0,0 0,0 V 6 h 2 c 0,0 0,0 0,0 z M 20,7 H 17 V 6 c 0,0 0,0 0,0 h 1 c 0,0 0,0 0,0 V 5 c 0,0 0,0 0,0 h 1 c 0,0 0,0 0,0 V 4 c 0,0 0,0 0,0 h 2 c 0,0 0,0 0,0 v 1 h -1 c 0,0 0,0 0,0 z m 3,-1 h -2 c 0,0 0,0 0,0 V 5 h 2 z m -7,0 h -1 c 0,0 0,0 0,0 V 5 h 1 c 0,0 0,0 0,0 z M 25,5 H 23 V 4 c 0,0 0,0 0,0 h 2 c 0,0 0,0 0,0 z"
         id="path14" />
    </g>
  </g>
</svg>
